<ttFont>
<head>
    <!-- Most of this table will be recalculated by the compiler -->
    <tableVersion value="1.0"/>
    <fontRevision value="1.00099"/>
    <checkSumAdjustment value="0x478ec5ec"/>
    <magicNumber value="0x5f0f3cf5"/>
    <flags value="00000000 00000011"/>
    <unitsPerEm value="1000"/>
    <created value="Mon Nov 21 19:53:38 2011"/>
    <modified value="Wed Aug  3 09:23:50 2016"/>
    <xMin value="-400"/>
    <yMin value="-275"/>
    <xMax value="1692"/>
    <yMax value="971"/>
    <macStyle value="00000000 00000000"/>
    <lowestRecPPEM value="7"/>
    <fontDirectionHint value="2"/>
    <indexToLocFormat value="0"/>
    <glyphDataFormat value="0"/>
  </head>
    <TTGlyph name=".notdef" xMin="54" yMin="-49" xMax="1155" yMax="619">
      <contour>
        <pt x="1146" y="458" on="1"/>
        <pt x="1150" y="458" on="0"/>
        <pt x="1155" y="452" on="0"/>
        <pt x="1155" y="447" on="1"/>
        <pt x="1155" y="441" on="0"/>
        <pt x="1150" y="436" on="1"/>
        <pt x="1129" y="416" on="0"/>
        <pt x="1063" y="396" on="0"/>
        <pt x="1005" y="384" on="1"/>
        <pt x="958" y="374" on="0"/>
        <pt x="906" y="358" on="0"/>
        <pt x="893" y="345" on="1"/>
        <pt x="885" y="337" on="0"/>
        <pt x="867" y="317" on="0"/>
        <pt x="856" y="306" on="1"/>
        <pt x="792" y="236" on="0"/>
        <pt x="682" y="142" on="0"/>
        <pt x="609" y="117" on="1"/>
        <pt x="610" y="106" on="1"/>
        <pt x="610" y="93" on="0"/>
        <pt x="602" y="85" on="1"/>
        <pt x="604" y="83" on="0"/>
        <pt x="615" y="76" on="0"/>
        <pt x="615" y="71" on="1"/>
        <pt x="615" y="67" on="0"/>
        <pt x="598" y="53" on="0"/>
        <pt x="586" y="46" on="1"/>
        <pt x="559" y="31" on="0"/>
        <pt x="540" y="14" on="1"/>
        <pt x="561" y="13" on="0"/>
        <pt x="586" y="9" on="0"/>
        <pt x="597" y="2" on="1"/>
        <pt x="597" y="-2" on="0"/>
        <pt x="594" y="-6" on="1"/>
        <pt x="569" y="0" on="0"/>
        <pt x="545" y="0" on="1"/>
        <pt x="531" y="0" on="0"/>
        <pt x="524" y="-1" on="1"/>
        <pt x="508" y="-4" on="0"/>
        <pt x="483" y="-29" on="0"/>
        <pt x="471" y="-48" on="1"/>
        <pt x="464" y="-49" on="0"/>
        <pt x="463" y="-44" on="1"/>
        <pt x="470" y="-17" on="0"/>
        <pt x="490" y="-5" on="1"/>
        <pt x="472" y="-8" on="0"/>
        <pt x="454" y="-17" on="0"/>
        <pt x="441" y="-28" on="1"/>
        <pt x="440" y="-27" on="0"/>
        <pt x="436" y="-25" on="0"/>
        <pt x="436" y="-21" on="1"/>
        <pt x="448" y="-5" on="0"/>
        <pt x="475" y="7" on="0"/>
        <pt x="501" y="11" on="0"/>
        <pt x="508" y="12" on="1"/>
        <pt x="541" y="38" on="0"/>
        <pt x="574" y="57" on="1"/>
        <pt x="592" y="69" on="1"/>
        <pt x="590" y="71" on="0"/>
        <pt x="577" y="79" on="1"/>
        <pt x="561" y="77" on="0"/>
        <pt x="550" y="102" on="1"/>
        <pt x="527" y="98" on="0"/>
        <pt x="495" y="98" on="1"/>
        <pt x="468" y="98" on="1"/>
        <pt x="467" y="93" on="0"/>
        <pt x="456" y="79" on="0"/>
        <pt x="449" y="79" on="1"/>
        <pt x="460" y="70" on="0"/>
        <pt x="460" y="64" on="1"/>
        <pt x="460" y="60" on="0"/>
        <pt x="434" y="52" on="1"/>
        <pt x="391" y="36" on="0"/>
        <pt x="373" y="26" on="1"/>
        <pt x="377" y="25" on="0"/>
        <pt x="397" y="19" on="0"/>
        <pt x="410" y="12" on="0"/>
        <pt x="416" y="5" on="1"/>
        <pt x="415" y="1" on="0"/>
        <pt x="411" y="0" on="0"/>
        <pt x="410" y="-1" on="1"/>
        <pt x="390" y="8" on="0"/>
        <pt x="374" y="13" on="0"/>
        <pt x="357" y="13" on="1"/>
        <pt x="327" y="13" on="0"/>
        <pt x="295" y="-19" on="1"/>
        <pt x="288" y="-17" on="0"/>
        <pt x="286" y="-13" on="1"/>
        <pt x="297" y="5" on="0"/>
        <pt x="323" y="17" on="1"/>
        <pt x="306" y="18" on="0"/>
        <pt x="281" y="12" on="0"/>
        <pt x="265" y="4" on="1"/>
        <pt x="265" y="4" on="0"/>
        <pt x="261" y="7" on="0"/>
        <pt x="261" y="11" on="1"/>
        <pt x="278" y="24" on="0"/>
        <pt x="313" y="30" on="0"/>
        <pt x="340" y="29" on="0"/>
        <pt x="344" y="29" on="1"/>
        <pt x="382" y="48" on="0"/>
        <pt x="439" y="67" on="1"/>
        <pt x="427" y="79" on="1"/>
        <pt x="418" y="79" on="0"/>
        <pt x="410" y="95" on="0"/>
        <pt x="410" y="103" on="1"/>
        <pt x="209" y="132" on="0"/>
        <pt x="197" y="311" on="1"/>
        <pt x="192" y="381" on="0"/>
        <pt x="174" y="449" on="0"/>
        <pt x="144" y="467" on="1"/>
        <pt x="59" y="483" on="1"/>
        <pt x="58" y="483" on="0"/>
        <pt x="54" y="485" on="0"/>
        <pt x="56" y="488" on="1"/>
        <pt x="118" y="517" on="1"/>
        <pt x="118" y="542" on="0"/>
        <pt x="145" y="589" on="0"/>
        <pt x="195" y="619" on="0"/>
        <pt x="226" y="619" on="1"/>
        <pt x="269" y="619" on="0"/>
        <pt x="332" y="573" on="0"/>
        <pt x="362" y="521" on="1"/>
        <pt x="375" y="503" on="0"/>
        <pt x="477" y="480" on="0"/>
        <pt x="590" y="463" on="1"/>
        <pt x="710" y="447" on="0"/>
        <pt x="817" y="426" on="1"/>
        <pt x="839" y="427" on="0"/>
        <pt x="1056" y="449" on="1"/>
        <pt x="1144" y="458" on="1"/>
      </contour>
      <contour>
        <pt x="407" y="143" on="0"/>
        <pt x="440" y="224" on="0"/>
        <pt x="440" y="284" on="1"/>
        <pt x="440" y="311" on="0"/>
        <pt x="437" y="336" on="1"/>
        <pt x="431" y="343" on="0"/>
        <pt x="411" y="351" on="0"/>
        <pt x="403" y="350" on="1"/>
        <pt x="404" y="344" on="0"/>
        <pt x="410" y="302" on="0"/>
        <pt x="410" y="282" on="1"/>
        <pt x="410" y="266" on="0"/>
        <pt x="407" y="249" on="1"/>
        <pt x="407" y="248" on="0"/>
        <pt x="404" y="242" on="0"/>
        <pt x="401" y="241" on="1"/>
        <pt x="392" y="271" on="0"/>
        <pt x="394" y="328" on="1"/>
        <pt x="386" y="336" on="0"/>
        <pt x="367" y="339" on="1"/>
        <pt x="362" y="329" on="0"/>
        <pt x="362" y="308" on="1"/>
        <pt x="362" y="281" on="0"/>
        <pt x="366" y="264" on="1"/>
        <pt x="363" y="255" on="0"/>
        <pt x="348" y="236" on="0"/>
        <pt x="338" y="233" on="1"/>
        <pt x="315" y="249" on="0"/>
        <pt x="315" y="308" on="1"/>
        <pt x="315" y="335" on="0"/>
        <pt x="326" y="386" on="0"/>
        <pt x="334" y="394" on="1"/>
        <pt x="338" y="388" on="0"/>
        <pt x="344" y="359" on="0"/>
        <pt x="343" y="348" on="1"/>
        <pt x="342" y="346" on="0"/>
        <pt x="343" y="344" on="0"/>
        <pt x="345" y="347" on="1"/>
        <pt x="364" y="363" on="0"/>
        <pt x="364" y="381" on="1"/>
        <pt x="364" y="405" on="0"/>
        <pt x="339" y="424" on="0"/>
        <pt x="320" y="427" on="1"/>
        <pt x="298" y="409" on="0"/>
        <pt x="278" y="348" on="0"/>
        <pt x="278" y="312" on="1"/>
        <pt x="278" y="275" on="0"/>
        <pt x="308" y="223" on="0"/>
        <pt x="340" y="223" on="1"/>
        <pt x="364" y="223" on="0"/>
        <pt x="372" y="248" on="1"/>
        <pt x="382" y="227" on="0"/>
        <pt x="402" y="227" on="1"/>
        <pt x="404" y="227" on="0"/>
        <pt x="409" y="230" on="0"/>
        <pt x="410" y="232" on="1"/>
        <pt x="406" y="195" on="0"/>
        <pt x="397" y="164" on="0"/>
        <pt x="381" y="153" on="1"/>
        <pt x="379" y="161" on="0"/>
        <pt x="379" y="167" on="1"/>
        <pt x="379" y="169" on="0"/>
        <pt x="382" y="190" on="1"/>
        <pt x="371" y="201" on="0"/>
        <pt x="353" y="201" on="1"/>
        <pt x="349" y="185" on="0"/>
        <pt x="349" y="175" on="1"/>
        <pt x="349" y="158" on="0"/>
        <pt x="360" y="143" on="0"/>
        <pt x="375" y="143" on="1"/>
      </contour>
      <contour>
        <pt x="732" y="225" on="0"/>
        <pt x="748" y="257" on="0"/>
        <pt x="748" y="279" on="1"/>
        <pt x="748" y="288" on="0"/>
        <pt x="747" y="292" on="1"/>
        <pt x="746" y="296" on="0"/>
        <pt x="744" y="292" on="1"/>
        <pt x="737" y="252" on="0"/>
        <pt x="717" y="235" on="1"/>
        <pt x="704" y="254" on="0"/>
        <pt x="704" y="284" on="1"/>
        <pt x="719" y="290" on="0"/>
        <pt x="737" y="339" on="0"/>
        <pt x="737" y="366" on="1"/>
        <pt x="737" y="393" on="0"/>
        <pt x="719" y="417" on="0"/>
        <pt x="694" y="421" on="1"/>
        <pt x="683" y="400" on="0"/>
        <pt x="671" y="341" on="0"/>
        <pt x="671" y="309" on="1"/>
        <pt x="671" y="283" on="0"/>
        <pt x="676" y="255" on="1"/>
        <pt x="677" y="252" on="1"/>
        <pt x="676" y="251" on="0"/>
        <pt x="667" y="234" on="0"/>
        <pt x="662" y="235" on="1"/>
        <pt x="657" y="253" on="0"/>
        <pt x="657" y="285" on="1"/>
        <pt x="657" y="320" on="0"/>
        <pt x="661" y="341" on="1"/>
        <pt x="657" y="345" on="0"/>
        <pt x="640" y="351" on="0"/>
        <pt x="635" y="350" on="1"/>
        <pt x="634" y="346" on="0"/>
        <pt x="630" y="334" on="0"/>
        <pt x="630" y="330" on="1"/>
        <pt x="620" y="333" on="0"/>
        <pt x="609" y="333" on="1"/>
        <pt x="592" y="316" on="0"/>
        <pt x="590" y="279" on="1"/>
        <pt x="590" y="264" on="1"/>
        <pt x="581" y="242" on="0"/>
        <pt x="569" y="236" on="1"/>
        <pt x="563" y="241" on="0"/>
        <pt x="559" y="256" on="1"/>
        <pt x="570" y="260" on="0"/>
        <pt x="584" y="287" on="0"/>
        <pt x="584" y="302" on="1"/>
        <pt x="584" y="342" on="0"/>
        <pt x="541" y="339" on="1"/>
        <pt x="536" y="329" on="0"/>
        <pt x="529" y="294" on="0"/>
        <pt x="529" y="277" on="1"/>
        <pt x="529" y="255" on="0"/>
        <pt x="548" y="228" on="0"/>
        <pt x="568" y="228" on="1"/>
        <pt x="584" y="229" on="0"/>
        <pt x="594" y="245" on="1"/>
        <pt x="600" y="227" on="0"/>
        <pt x="620" y="228" on="1"/>
        <pt x="626" y="228" on="0"/>
        <pt x="638" y="236" on="0"/>
        <pt x="639" y="242" on="1"/>
        <pt x="641" y="235" on="0"/>
        <pt x="654" y="225" on="0"/>
        <pt x="662" y="225" on="1"/>
        <pt x="675" y="225" on="0"/>
        <pt x="681" y="242" on="1"/>
        <pt x="690" y="225" on="0"/>
        <pt x="712" y="225" on="1"/>
      </contour>
      <contour>
        <pt x="718" y="379" on="0"/>
        <pt x="718" y="365" on="1"/>
        <pt x="718" y="345" on="0"/>
        <pt x="711" y="307" on="0"/>
        <pt x="704" y="297" on="1"/>
        <pt x="705" y="339" on="0"/>
        <pt x="717" y="385" on="1"/>
      </contour>
      <contour>
        <pt x="441" y="341" on="1"/>
        <pt x="449" y="324" on="0"/>
        <pt x="454" y="275" on="0"/>
        <pt x="457" y="233" on="0"/>
        <pt x="457" y="226" on="1"/>
        <pt x="461" y="226" on="1"/>
        <pt x="476" y="226" on="0"/>
        <pt x="481" y="244" on="1"/>
        <pt x="484" y="252" on="0"/>
        <pt x="484" y="278" on="1"/>
        <pt x="486" y="285" on="0"/>
        <pt x="496" y="301" on="0"/>
        <pt x="498" y="305" on="1"/>
        <pt x="501" y="286" on="0"/>
        <pt x="517" y="286" on="1"/>
        <pt x="522" y="286" on="0"/>
        <pt x="525" y="287" on="1"/>
        <pt x="524" y="292" on="0"/>
        <pt x="524" y="303" on="1"/>
        <pt x="524" y="321" on="0"/>
        <pt x="527" y="334" on="1"/>
        <pt x="519" y="345" on="0"/>
        <pt x="499" y="345" on="1"/>
        <pt x="494" y="335" on="0"/>
        <pt x="494" y="327" on="1"/>
        <pt x="492" y="318" on="0"/>
        <pt x="481" y="298" on="1"/>
        <pt x="480" y="321" on="0"/>
        <pt x="472" y="333" on="1"/>
        <pt x="468" y="338" on="1"/>
        <pt x="460" y="339" on="1"/>
        <pt x="453" y="341" on="1"/>
      </contour>
      <contour>
        <pt x="572" y="287" on="0"/>
        <pt x="565" y="267" on="0"/>
        <pt x="559" y="266" on="1"/>
        <pt x="559" y="296" on="0"/>
        <pt x="566" y="317" on="1"/>
        <pt x="572" y="311" on="0"/>
        <pt x="572" y="298" on="1"/>
      </contour>
      <contour>
        <pt x="627" y="306" on="0"/>
        <pt x="629" y="272" on="0"/>
        <pt x="633" y="258" on="1"/>
        <pt x="632" y="248" on="0"/>
        <pt x="619" y="238" on="1"/>
        <pt x="616" y="249" on="0"/>
        <pt x="616" y="262" on="1"/>
        <pt x="616" y="278" on="0"/>
        <pt x="623" y="311" on="0"/>
        <pt x="628" y="316" on="1"/>
      </contour>
    </TTGlyph>
    <TTGlyph name="A" xMin="42" yMin="0" xMax="629" yMax="709">
      <contour>
        <pt x="118" y="21" on="0"/>
        <pt x="87" y="0" on="0"/>
        <pt x="69" y="0" on="1"/>
        <pt x="55" y="0" on="0"/>
        <pt x="42" y="15" on="0"/>
        <pt x="42" y="27" on="1"/>
        <pt x="42" y="39" on="0"/>
        <pt x="47" y="52" on="1"/>
        <pt x="282" y="685" on="1"/>
        <pt x="286" y="696" on="0"/>
        <pt x="317" y="709" on="0"/>
        <pt x="337" y="709" on="1"/>
        <pt x="359" y="709" on="0"/>
        <pt x="394" y="695" on="0"/>
        <pt x="398" y="682" on="1"/>
        <pt x="627" y="48" on="1"/>
        <pt x="629" y="38" on="0"/>
        <pt x="629" y="33" on="1"/>
        <pt x="629" y="19" on="0"/>
        <pt x="610" y="0" on="0"/>
        <pt x="590" y="0" on="1"/>
        <pt x="569" y="0" on="0"/>
        <pt x="526" y="22" on="0"/>
        <pt x="515" y="53" on="1"/>
        <pt x="462" y="190" on="1"/>
        <pt x="181" y="190" on="1"/>
        <pt x="130" y="53" on="1"/>
      </contour>
      <contour>
        <pt x="320" y="591" on="1"/>
        <pt x="197" y="242" on="1"/>
        <pt x="447" y="242" on="1"/>
        <pt x="326" y="591" on="1"/>
      </contour>
    </TTGlyph>
    <TTGlyph name="AE" xMin="20" yMin="0" xMax="882" yMax="709">
      <contour>
        <pt x="795" y="535" on="0"/>
        <pt x="766" y="565" on="0"/>
        <pt x="766" y="600" on="1"/>
        <pt x="766" y="656" on="1"/>
        <pt x="539" y="656" on="1"/>
        <pt x="539" y="394" on="1"/>
        <pt x="739" y="394" on="1"/>
        <pt x="752" y="394" on="0"/>
        <pt x="767" y="377" on="0"/>
        <pt x="767" y="366" on="1"/>
        <pt x="767" y="356" on="0"/>
        <pt x="749" y="339" on="0"/>
        <pt x="739" y="339" on="1"/>
        <pt x="539" y="339" on="1"/>
        <pt x="539" y="53" on="1"/>
        <pt x="781" y="53" on="1"/>
        <pt x="781" y="109" on="1"/>
        <pt x="781" y="144" on="0"/>
        <pt x="810" y="174" on="0"/>
        <pt x="839" y="174" on="1"/>
        <pt x="861" y="174" on="0"/>
        <pt x="882" y="150" on="0"/>
        <pt x="882" y="124" on="1"/>
        <pt x="882" y="37" on="1"/>
        <pt x="882" y="16" on="0"/>
        <pt x="853" y="0" on="0"/>
        <pt x="822" y="0" on="1"/>
        <pt x="477" y="0" on="1"/>
        <pt x="454" y="0" on="0"/>
        <pt x="431" y="24" on="0"/>
        <pt x="431" y="50" on="1"/>
        <pt x="431" y="190" on="1"/>
        <pt x="193" y="190" on="1"/>
        <pt x="109" y="40" on="1"/>
        <pt x="96" y="17" on="0"/>
        <pt x="66" y="0" on="0"/>
        <pt x="48" y="0" on="1"/>
        <pt x="34" y="0" on="0"/>
        <pt x="20" y="14" on="0"/>
        <pt x="20" y="24" on="1"/>
        <pt x="20" y="34" on="0"/>
        <pt x="30" y="52" on="1"/>
        <pt x="403" y="685" on="1"/>
        <pt x="410" y="696" on="0"/>
        <pt x="442" y="709" on="0"/>
        <pt x="462" y="709" on="1"/>
        <pt x="807" y="709" on="1"/>
        <pt x="838" y="709" on="0"/>
        <pt x="867" y="693" on="0"/>
        <pt x="867" y="672" on="1"/>
        <pt x="867" y="585" on="1"/>
        <pt x="867" y="559" on="0"/>
        <pt x="846" y="535" on="0"/>
        <pt x="824" y="535" on="1"/>
      </contour>
      <contour>
        <pt x="425" y="590" on="1"/>
        <pt x="219" y="242" on="1"/>
        <pt x="431" y="242" on="1"/>
        <pt x="431" y="590" on="1"/>
      </contour>
    </TTGlyph>
    <TTGlyph name="Aacute" xMin="42" yMin="0" xMax="629" yMax="963">
      <component glyphName="A" x="0" y="0" flags="0x0"/>
      <component glyphName="uniF6C9" x="-15" y="0" flags="0x0"/>
    </TTGlyph>
    <TTGlyph name="Accent" xMin="-400" yMin="766" xMax="-226" yMax="963">
      <contour>
        <pt x="-341" y="775" on="0"/>
        <pt x="-361" y="766" on="0"/>
        <pt x="-372" y="766" on="1"/>
        <pt x="-384" y="766" on="0"/>
        <pt x="-400" y="776" on="0"/>
        <pt x="-400" y="785" on="1"/>
        <pt x="-400" y="791" on="0"/>
        <pt x="-398" y="795" on="1"/>
        <pt x="-341" y="937" on="1"/>
        <pt x="-335" y="950" on="0"/>
        <pt x="-302" y="963" on="0"/>
        <pt x="-282" y="963" on="1"/>
        <pt x="-256" y="963" on="0"/>
        <pt x="-226" y="950" on="0"/>
        <pt x="-226" y="939" on="1"/>
        <pt x="-226" y="934" on="0"/>
        <pt x="-229" y="929" on="1"/>
        <pt x="-335" y="782" on="1"/>
      </contour>
    </TTGlyph>
    <TTGlyph name="Acircumflex" xMin="42" yMin="0" xMax="629" yMax="919">
      <component glyphName="A" x="0" y="0" flags="0x0"/>
      <component glyphName="circumflex" x="55" y="208" flags="0x4"/>
    </TTGlyph>
    <TTGlyph name="Adieresis" xMin="42" yMin="0" xMax="629" yMax="921">
      <component glyphName="A" x="0" y="0" flags="0x0"/>
      <component glyphName="uniF6CB" x="17" y="0" flags="0x0"/>
    </TTGlyph>
    <TTGlyph name="Agrave" xMin="42" yMin="0" xMax="629" yMax="963">
      <component glyphName="A" x="0" y="0" flags="0x0"/>
      <component glyphName="uniF6CE" x="0" y="0" flags="0x0"/>
    </TTGlyph>
    <TTGlyph name="Aring" xMin="42" yMin="0" xMax="629" yMax="971">
      <component glyphName="A" x="0" y="0" flags="0x0"/>
      <component glyphName="Ring" x="-19" y="0" flags="0x0"/>
    </TTGlyph>
    <TTGlyph name="Atilde" xMin="42" yMin="0" xMax="629" yMax="912">
      <component glyphName="A" x="0" y="0" flags="0x0"/>
      <component glyphName="Tilde" x="-12" y="0" flags="0x0"/>
    </TTGlyph>
    <TTGlyph name="B" xMin="100" yMin="0" xMax="610" yMax="709">
      <contour>
        <pt x="100" y="685" on="0"/>
        <pt x="123" y="709" on="0"/>
        <pt x="146" y="709" on="1"/>
        <pt x="351" y="709" on="1"/>
        <pt x="573" y="709" on="0"/>
        <pt x="573" y="531" on="1"/>
        <pt x="573" y="481" on="0"/>
        <pt x="512" y="394" on="0"/>
        <pt x="460" y="381" on="1"/>
        <pt x="460" y="376" on="1"/>
        <pt x="536" y="363" on="0"/>
        <pt x="610" y="274" on="0"/>
        <pt x="610" y="212" on="1"/>
        <pt x="610" y="91" on="0"/>
        <pt x="453" y="0" on="0"/>
        <pt x="356" y="0" on="1"/>
        <pt x="146" y="0" on="1"/>
        <pt x="123" y="0" on="0"/>
        <pt x="100" y="24" on="0"/>
        <pt x="100" y="50" on="1"/>
        <pt x="100" y="659" on="1"/>
      </contour>
      <contour>
        <pt x="208" y="398" on="1"/>
        <pt x="323" y="398" on="1"/>
        <pt x="355" y="398" on="0"/>
        <pt x="418" y="425" on="0"/>
        <pt x="460" y="486" on="0"/>
        <pt x="460" y="534" on="1"/>
        <pt x="460" y="599" on="0"/>
        <pt x="370" y="656" on="0"/>
        <pt x="315" y="656" on="1"/>
        <pt x="208" y="656" on="1"/>
      </contour>
      <contour>
        <pt x="208" y="53" on="1"/>
        <pt x="342" y="53" on="1"/>
        <pt x="401" y="53" on="0"/>
        <pt x="497" y="122" on="0"/>
        <pt x="497" y="202" on="1"/>
        <pt x="497" y="252" on="0"/>
        <pt x="447" y="316" on="0"/>
        <pt x="371" y="345" on="0"/>
        <pt x="332" y="345" on="1"/>
        <pt x="208" y="345" on="1"/>
      </contour>
    </TTGlyph>
    <TTGlyph name="Breve" xMin="198" yMin="768" xMax="521" yMax="922">
      <contour>
        <pt x="521" y="859" on="0"/>
        <pt x="481" y="802" on="0"/>
        <pt x="407" y="768" on="0"/>
        <pt x="359" y="768" on="1"/>
        <pt x="312" y="768" on="0"/>
        <pt x="238" y="802" on="0"/>
        <pt x="198" y="859" on="0"/>
        <pt x="198" y="894" on="1"/>
        <pt x="198" y="906" on="0"/>
        <pt x="213" y="922" on="0"/>
        <pt x="228" y="922" on="1"/>
        <pt x="240" y="922" on="0"/>
        <pt x="263" y="907" on="0"/>
        <pt x="268" y="895" on="1"/>
        <pt x="282" y="860" on="0"/>
        <pt x="326" y="835" on="0"/>
        <pt x="359" y="835" on="1"/>
        <pt x="393" y="835" on="0"/>
        <pt x="437" y="860" on="0"/>
        <pt x="451" y="895" on="1"/>
        <pt x="456" y="907" on="0"/>
        <pt x="479" y="922" on="0"/>
        <pt x="491" y="922" on="1"/>
        <pt x="506" y="922" on="0"/>
        <pt x="521" y="906" on="0"/>
        <pt x="521" y="894" on="1"/>
      </contour>
    </TTGlyph>
    <TTGlyph name="C" xMin="53" yMin="0" xMax="561" yMax="709">
      <contour>
        <pt x="474" y="529" on="0"/>
        <pt x="445" y="559" on="0"/>
        <pt x="445" y="594" on="1"/>
        <pt x="445" y="650" on="1"/>
        <pt x="408" y="658" on="0"/>
        <pt x="372" y="658" on="1"/>
        <pt x="277" y="658" on="0"/>
        <pt x="166" y="499" on="0"/>
        <pt x="166" y="346" on="1"/>
        <pt x="166" y="183" on="0"/>
        <pt x="274" y="52" on="0"/>
        <pt x="379" y="52" on="1"/>
        <pt x="441" y="52" on="0"/>
        <pt x="510" y="81" on="1"/>
        <pt x="529" y="89" on="1"/>
        <pt x="535" y="91" on="0"/>
        <pt x="537" y="91" on="1"/>
        <pt x="547" y="91" on="0"/>
        <pt x="561" y="72" on="0"/>
        <pt x="561" y="61" on="1"/>
        <pt x="561" y="47" on="0"/>
        <pt x="548" y="41" on="1"/>
        <pt x="531" y="34" on="1"/>
        <pt x="490" y="17" on="0"/>
        <pt x="407" y="0" on="0"/>
        <pt x="351" y="0" on="1"/>
        <pt x="199" y="0" on="0"/>
        <pt x="53" y="181" on="0"/>
        <pt x="53" y="348" on="1"/>
        <pt x="53" y="469" on="0"/>
        <pt x="132" y="631" on="0"/>
        <pt x="270" y="709" on="0"/>
        <pt x="359" y="709" on="1"/>
        <pt x="439" y="709" on="0"/>
        <pt x="505" y="688" on="1"/>
        <pt x="529" y="680" on="0"/>
        <pt x="546" y="661" on="0"/>
        <pt x="546" y="639" on="1"/>
        <pt x="546" y="579" on="1"/>
        <pt x="546" y="553" on="0"/>
        <pt x="525" y="529" on="0"/>
        <pt x="503" y="529" on="1"/>
      </contour>
    </TTGlyph>
    <TTGlyph name="Ccedilla" xMin="53" yMin="-210" xMax="561" yMax="709">
      <contour>
        <pt x="474" y="529" on="0"/>
        <pt x="445" y="559" on="0"/>
        <pt x="445" y="594" on="1"/>
        <pt x="445" y="650" on="1"/>
        <pt x="408" y="658" on="0"/>
        <pt x="372" y="658" on="1"/>
        <pt x="277" y="658" on="0"/>
        <pt x="166" y="499" on="0"/>
        <pt x="166" y="346" on="1"/>
        <pt x="166" y="183" on="0"/>
        <pt x="274" y="52" on="0"/>
        <pt x="379" y="52" on="1"/>
        <pt x="441" y="52" on="0"/>
        <pt x="510" y="81" on="1"/>
        <pt x="529" y="89" on="1"/>
        <pt x="535" y="91" on="0"/>
        <pt x="537" y="91" on="1"/>
        <pt x="547" y="91" on="0"/>
        <pt x="561" y="72" on="0"/>
        <pt x="561" y="61" on="1"/>
        <pt x="561" y="47" on="0"/>
        <pt x="548" y="41" on="1"/>
        <pt x="531" y="34" on="1"/>
        <pt x="493" y="19" on="0"/>
        <pt x="420" y="1" on="0"/>
        <pt x="374" y="0" on="1"/>
        <pt x="374" y="-42" on="1"/>
        <pt x="420" y="-42" on="0"/>
        <pt x="480" y="-77" on="0"/>
        <pt x="480" y="-120" on="1"/>
        <pt x="480" y="-161" on="0"/>
        <pt x="414" y="-210" on="0"/>
        <pt x="363" y="-210" on="1"/>
        <pt x="331" y="-210" on="0"/>
        <pt x="268" y="-187" on="0"/>
        <pt x="268" y="-167" on="1"/>
        <pt x="268" y="-159" on="0"/>
        <pt x="280" y="-147" on="0"/>
        <pt x="290" y="-147" on="1"/>
        <pt x="298" y="-147" on="0"/>
        <pt x="315" y="-152" on="1"/>
        <pt x="341" y="-159" on="0"/>
        <pt x="351" y="-159" on="1"/>
        <pt x="376" y="-159" on="0"/>
        <pt x="400" y="-138" on="0"/>
        <pt x="400" y="-123" on="1"/>
        <pt x="400" y="-97" on="0"/>
        <pt x="363" y="-81" on="0"/>
        <pt x="319" y="-81" on="1"/>
        <pt x="319" y="1" on="1"/>
        <pt x="183" y="10" on="0"/>
        <pt x="53" y="190" on="0"/>
        <pt x="53" y="348" on="1"/>
        <pt x="53" y="469" on="0"/>
        <pt x="132" y="631" on="0"/>
        <pt x="270" y="709" on="0"/>
        <pt x="359" y="709" on="1"/>
        <pt x="439" y="709" on="0"/>
        <pt x="505" y="688" on="1"/>
        <pt x="529" y="680" on="0"/>
        <pt x="546" y="661" on="0"/>
        <pt x="546" y="639" on="1"/>
        <pt x="546" y="579" on="1"/>
        <pt x="546" y="553" on="0"/>
        <pt x="525" y="529" on="0"/>
        <pt x="503" y="529" on="1"/>
      </contour>
    </TTGlyph>
    <TTGlyph name="Cedilla" xMin="260" yMin="-210" xMax="472" yMax="8">
      <contour>
        <pt x="412" y="-42" on="0"/>
        <pt x="472" y="-77" on="0"/>
        <pt x="472" y="-120" on="1"/>
        <pt x="472" y="-161" on="0"/>
        <pt x="406" y="-210" on="0"/>
        <pt x="355" y="-210" on="1"/>
        <pt x="323" y="-210" on="0"/>
        <pt x="260" y="-187" on="0"/>
        <pt x="260" y="-167" on="1"/>
        <pt x="260" y="-159" on="0"/>
        <pt x="272" y="-147" on="0"/>
        <pt x="282" y="-147" on="1"/>
        <pt x="290" y="-147" on="0"/>
        <pt x="307" y="-152" on="1"/>
        <pt x="333" y="-159" on="0"/>
        <pt x="343" y="-159" on="1"/>
        <pt x="368" y="-159" on="0"/>
        <pt x="392" y="-138" on="0"/>
        <pt x="392" y="-123" on="1"/>
        <pt x="392" y="-97" on="0"/>
        <pt x="355" y="-81" on="0"/>
        <pt x="311" y="-81" on="1"/>
        <pt x="311" y="8" on="1"/>
        <pt x="366" y="8" on="1"/>
        <pt x="366" y="-42" on="1"/>
      </contour>
    </TTGlyph>
    <TTGlyph name="Circumflex" xMin="190" yMin="760" xMax="523" yMax="919">
      <contour>
        <pt x="301" y="791" on="1"/>
        <pt x="269" y="760" on="0"/>
        <pt x="231" y="760" on="1"/>
        <pt x="213" y="760" on="0"/>
        <pt x="190" y="773" on="0"/>
        <pt x="190" y="782" on="1"/>
        <pt x="190" y="787" on="0"/>
        <pt x="194" y="791" on="1"/>
        <pt x="304" y="900" on="1"/>
        <pt x="323" y="919" on="0"/>
        <pt x="353" y="919" on="1"/>
        <pt x="390" y="919" on="0"/>
        <pt x="409" y="900" on="1"/>
        <pt x="519" y="791" on="1"/>
        <pt x="523" y="787" on="0"/>
        <pt x="523" y="782" on="1"/>
        <pt x="523" y="773" on="0"/>
        <pt x="500" y="760" on="0"/>
        <pt x="482" y="760" on="1"/>
        <pt x="444" y="760" on="0"/>
        <pt x="412" y="791" on="1"/>
        <pt x="357" y="845" on="1"/>
      </contour>
    </TTGlyph>
    <TTGlyph name="D" xMin="100" yMin="0" xMax="640" yMax="709">
      <contour>
        <pt x="100" y="685" on="0"/>
        <pt x="123" y="709" on="0"/>
        <pt x="146" y="709" on="1"/>
        <pt x="289" y="709" on="1"/>
        <pt x="640" y="709" on="0"/>
        <pt x="640" y="358" on="1"/>
        <pt x="640" y="227" on="0"/>
        <pt x="531" y="66" on="0"/>
        <pt x="374" y="0" on="0"/>
        <pt x="294" y="0" on="1"/>
        <pt x="146" y="0" on="1"/>
        <pt x="123" y="0" on="0"/>
        <pt x="100" y="24" on="0"/>
        <pt x="100" y="50" on="1"/>
        <pt x="100" y="659" on="1"/>
      </contour>
      <contour>
        <pt x="208" y="53" on="1"/>
        <pt x="230" y="53" on="1"/>
        <pt x="230" y="54" on="1"/>
        <pt x="277" y="54" on="1"/>
        <pt x="388" y="54" on="0"/>
        <pt x="527" y="204" on="0"/>
        <pt x="527" y="358" on="1"/>
        <pt x="527" y="514" on="0"/>
        <pt x="390" y="656" on="0"/>
        <pt x="277" y="656" on="1"/>
        <pt x="208" y="656" on="1"/>
      </contour>
    </TTGlyph>
    <TTGlyph name="Dotaccent" xMin="80" yMin="783" xMax="217" yMax="920">
      <contour>
        <pt x="80" y="879" on="0"/>
        <pt x="121" y="920" on="0"/>
        <pt x="148" y="920" on="1"/>
        <pt x="175" y="920" on="0"/>
        <pt x="217" y="879" on="0"/>
        <pt x="217" y="851" on="1"/>
        <pt x="217" y="825" on="0"/>
        <pt x="175" y="783" on="0"/>
        <pt x="148" y="783" on="1"/>
        <pt x="121" y="783" on="0"/>
        <pt x="80" y="825" on="0"/>
        <pt x="80" y="851" on="1"/>
      </contour>
    </TTGlyph>
    <TTGlyph name="E" xMin="100" yMin="0" xMax="561" yMax="709">
      <contour>
        <pt x="474" y="535" on="0"/>
        <pt x="445" y="565" on="0"/>
        <pt x="445" y="600" on="1"/>
        <pt x="445" y="656" on="1"/>
        <pt x="208" y="656" on="1"/>
        <pt x="208" y="394" on="1"/>
        <pt x="418" y="394" on="1"/>
        <pt x="431" y="394" on="0"/>
        <pt x="446" y="377" on="0"/>
        <pt x="446" y="366" on="1"/>
        <pt x="446" y="356" on="0"/>
        <pt x="428" y="339" on="0"/>
        <pt x="418" y="339" on="1"/>
        <pt x="208" y="339" on="1"/>
        <pt x="208" y="53" on="1"/>
        <pt x="460" y="53" on="1"/>
        <pt x="460" y="109" on="1"/>
        <pt x="460" y="144" on="0"/>
        <pt x="489" y="174" on="0"/>
        <pt x="518" y="174" on="1"/>
        <pt x="540" y="174" on="0"/>
        <pt x="561" y="150" on="0"/>
        <pt x="561" y="124" on="1"/>
        <pt x="561" y="37" on="1"/>
        <pt x="561" y="16" on="0"/>
        <pt x="532" y="0" on="0"/>
        <pt x="501" y="0" on="1"/>
        <pt x="146" y="0" on="1"/>
        <pt x="123" y="0" on="0"/>
        <pt x="100" y="24" on="0"/>
        <pt x="100" y="50" on="1"/>
        <pt x="100" y="659" on="1"/>
        <pt x="100" y="685" on="0"/>
        <pt x="123" y="709" on="0"/>
        <pt x="146" y="709" on="1"/>
        <pt x="486" y="709" on="1"/>
        <pt x="517" y="709" on="0"/>
        <pt x="546" y="693" on="0"/>
        <pt x="546" y="672" on="1"/>
        <pt x="546" y="585" on="1"/>
        <pt x="546" y="559" on="0"/>
        <pt x="525" y="535" on="0"/>
        <pt x="503" y="535" on="1"/>
      </contour>
    </TTGlyph>
    <TTGlyph name="Eacute" xMin="100" yMin="0" xMax="561" yMax="963">
      <component glyphName="E" x="0" y="0" flags="0x0"/>
      <component glyphName="uniF6C9" x="-25" y="0" flags="0x0"/>
    </TTGlyph>
    <TTGlyph name="Ecircumflex" xMin="100" yMin="0" xMax="561" yMax="919">
      <component glyphName="E" x="0" y="0" flags="0x0"/>
      <component glyphName="circumflex" x="34" y="208" flags="0x4"/>
    </TTGlyph>
    <TTGlyph name="Edieresis" xMin="100" yMin="0" xMax="561" yMax="921">
      <component glyphName="E" x="0" y="0" flags="0x0"/>
      <component glyphName="uniF6CB" x="0" y="0" flags="0x0"/>
    </TTGlyph>
    <TTGlyph name="Egrave" xMin="100" yMin="0" xMax="561" yMax="963">
      <component glyphName="E" x="0" y="0" flags="0x0"/>
      <component glyphName="uniF6CE" x="-34" y="0" flags="0x0"/>
    </TTGlyph>
    <TTGlyph name="Eth" xMin="15" yMin="0" xMax="640" yMax="709">
      <contour>
        <pt x="100" y="659" on="1"/>
        <pt x="100" y="685" on="0"/>
        <pt x="123" y="709" on="0"/>
        <pt x="146" y="709" on="1"/>
        <pt x="289" y="709" on="1"/>
        <pt x="640" y="709" on="0"/>
        <pt x="640" y="358" on="1"/>
        <pt x="640" y="227" on="0"/>
        <pt x="531" y="66" on="0"/>
        <pt x="374" y="0" on="0"/>
        <pt x="294" y="0" on="1"/>
        <pt x="146" y="0" on="1"/>
        <pt x="123" y="0" on="0"/>
        <pt x="100" y="24" on="0"/>
        <pt x="100" y="50" on="1"/>
        <pt x="100" y="339" on="1"/>
        <pt x="36" y="339" on="1"/>
        <pt x="26" y="339" on="0"/>
        <pt x="15" y="355" on="0"/>
        <pt x="15" y="366" on="1"/>
        <pt x="15" y="377" on="0"/>
        <pt x="26" y="394" on="0"/>
        <pt x="36" y="394" on="1"/>
        <pt x="100" y="394" on="1"/>
      </contour>
      <contour>
        <pt x="208" y="394" on="1"/>
        <pt x="377" y="394" on="1"/>
        <pt x="387" y="394" on="0"/>
        <pt x="398" y="377" on="0"/>
        <pt x="398" y="366" on="1"/>
        <pt x="398" y="355" on="0"/>
        <pt x="387" y="339" on="0"/>
        <pt x="377" y="339" on="1"/>
        <pt x="208" y="339" on="1"/>
        <pt x="208" y="53" on="1"/>
        <pt x="230" y="53" on="1"/>
        <pt x="230" y="54" on="1"/>
        <pt x="277" y="54" on="1"/>
        <pt x="388" y="54" on="0"/>
        <pt x="527" y="204" on="0"/>
        <pt x="527" y="358" on="1"/>
        <pt x="527" y="514" on="0"/>
        <pt x="390" y="656" on="0"/>
        <pt x="277" y="656" on="1"/>
        <pt x="208" y="656" on="1"/>
      </contour>
    </TTGlyph>
    <TTGlyph name="Euro" xMin="-9" yMin="0" xMax="520" yMax="709">
      <contour>
        <pt x="181" y="146" on="0"/>
        <pt x="278" y="52" on="0"/>
        <pt x="362" y="52" on="1"/>
        <pt x="390" y="52" on="0"/>
        <pt x="442" y="66" on="0"/>
        <pt x="473" y="81" on="1"/>
        <pt x="490" y="89" on="1"/>
        <pt x="496" y="91" on="0"/>
        <pt x="498" y="91" on="1"/>
        <pt x="507" y="91" on="0"/>
        <pt x="520" y="72" on="0"/>
        <pt x="520" y="61" on="1"/>
        <pt x="520" y="47" on="0"/>
        <pt x="508" y="41" on="1"/>
        <pt x="492" y="34" on="1"/>
        <pt x="452" y="16" on="0"/>
        <pt x="387" y="0" on="0"/>
        <pt x="336" y="0" on="1"/>
        <pt x="215" y="0" on="0"/>
        <pt x="81" y="135" on="0"/>
        <pt x="66" y="261" on="1"/>
        <pt x="12" y="261" on="1"/>
        <pt x="2" y="261" on="0"/>
        <pt x="-9" y="277" on="0"/>
        <pt x="-9" y="288" on="1"/>
        <pt x="-9" y="299" on="0"/>
        <pt x="2" y="316" on="0"/>
        <pt x="12" y="316" on="1"/>
        <pt x="61" y="316" on="1"/>
        <pt x="61" y="378" on="1"/>
        <pt x="12" y="378" on="1"/>
        <pt x="2" y="378" on="0"/>
        <pt x="-9" y="394" on="0"/>
        <pt x="-9" y="405" on="1"/>
        <pt x="-9" y="416" on="0"/>
        <pt x="2" y="433" on="0"/>
        <pt x="12" y="433" on="1"/>
        <pt x="66" y="433" on="1"/>
        <pt x="83" y="571" on="0"/>
        <pt x="229" y="709" on="0"/>
        <pt x="339" y="709" on="1"/>
        <pt x="408" y="709" on="0"/>
        <pt x="468" y="688" on="1"/>
        <pt x="491" y="680" on="0"/>
        <pt x="506" y="662" on="0"/>
        <pt x="506" y="639" on="1"/>
        <pt x="506" y="587" on="1"/>
        <pt x="506" y="561" on="0"/>
        <pt x="486" y="537" on="0"/>
        <pt x="466" y="537" on="1"/>
        <pt x="439" y="537" on="0"/>
        <pt x="413" y="567" on="0"/>
        <pt x="413" y="602" on="1"/>
        <pt x="413" y="650" on="1"/>
        <pt x="379" y="658" on="0"/>
        <pt x="351" y="658" on="1"/>
        <pt x="277" y="658" on="0"/>
        <pt x="183" y="544" on="0"/>
        <pt x="170" y="433" on="1"/>
        <pt x="392" y="433" on="1"/>
        <pt x="402" y="433" on="0"/>
        <pt x="413" y="416" on="0"/>
        <pt x="413" y="405" on="1"/>
        <pt x="413" y="394" on="0"/>
        <pt x="402" y="378" on="0"/>
        <pt x="392" y="378" on="1"/>
        <pt x="165" y="378" on="1"/>
        <pt x="165" y="316" on="1"/>
        <pt x="348" y="316" on="1"/>
        <pt x="358" y="316" on="0"/>
        <pt x="369" y="299" on="0"/>
        <pt x="369" y="288" on="1"/>
        <pt x="369" y="277" on="0"/>
        <pt x="358" y="261" on="0"/>
        <pt x="348" y="261" on="1"/>
        <pt x="169" y="261" on="1"/>
      </contour>
    </TTGlyph>
    <TTGlyph name="F" xMin="100" yMin="0" xMax="546" yMax="709">
      <contour>
        <pt x="208" y="65" on="1"/>
        <pt x="208" y="30" on="0"/>
        <pt x="178" y="0" on="0"/>
        <pt x="146" y="0" on="1"/>
        <pt x="123" y="0" on="0"/>
        <pt x="100" y="24" on="0"/>
        <pt x="100" y="50" on="1"/>
        <pt x="100" y="659" on="1"/>
        <pt x="100" y="685" on="0"/>
        <pt x="123" y="709" on="0"/>
        <pt x="146" y="709" on="1"/>
        <pt x="486" y="709" on="1"/>
        <pt x="517" y="709" on="0"/>
        <pt x="546" y="693" on="0"/>
        <pt x="546" y="672" on="1"/>
        <pt x="546" y="595" on="1"/>
        <pt x="546" y="569" on="0"/>
        <pt x="525" y="545" on="0"/>
        <pt x="503" y="545" on="1"/>
        <pt x="474" y="545" on="0"/>
        <pt x="445" y="575" on="0"/>
        <pt x="445" y="610" on="1"/>
        <pt x="445" y="656" on="1"/>
        <pt x="208" y="656" on="1"/>
        <pt x="208" y="389" on="1"/>
        <pt x="418" y="389" on="1"/>
        <pt x="431" y="389" on="0"/>
        <pt x="446" y="372" on="0"/>
        <pt x="446" y="361" on="1"/>
        <pt x="446" y="351" on="0"/>
        <pt x="428" y="334" on="0"/>
        <pt x="418" y="334" on="1"/>
        <pt x="208" y="334" on="1"/>
      </contour>
    </TTGlyph>
    <TTGlyph name="G" xMin="53" yMin="0" xMax="610" yMax="709">
      <contour>
        <pt x="505" y="529" on="0"/>
        <pt x="476" y="559" on="0"/>
        <pt x="476" y="594" on="1"/>
        <pt x="476" y="650" on="1"/>
        <pt x="444" y="658" on="0"/>
        <pt x="395" y="658" on="1"/>
        <pt x="329" y="658" on="0"/>
        <pt x="226" y="588" on="0"/>
        <pt x="166" y="448" on="0"/>
        <pt x="166" y="347" on="1"/>
        <pt x="166" y="183" on="0"/>
        <pt x="277" y="51" on="0"/>
        <pt x="385" y="51" on="1"/>
        <pt x="457" y="51" on="0"/>
        <pt x="505" y="71" on="1"/>
        <pt x="505" y="287" on="1"/>
        <pt x="393" y="287" on="1"/>
        <pt x="381" y="287" on="0"/>
        <pt x="368" y="303" on="0"/>
        <pt x="368" y="314" on="1"/>
        <pt x="368" y="325" on="0"/>
        <pt x="383" y="342" on="0"/>
        <pt x="396" y="342" on="1"/>
        <pt x="566" y="342" on="1"/>
        <pt x="592" y="342" on="0"/>
        <pt x="610" y="323" on="0"/>
        <pt x="610" y="302" on="1"/>
        <pt x="610" y="95" on="1"/>
        <pt x="610" y="67" on="0"/>
        <pt x="595" y="44" on="0"/>
        <pt x="578" y="37" on="1"/>
        <pt x="527" y="17" on="0"/>
        <pt x="426" y="0" on="0"/>
        <pt x="366" y="0" on="1"/>
        <pt x="205" y="0" on="0"/>
        <pt x="53" y="181" on="0"/>
        <pt x="53" y="349" on="1"/>
        <pt x="53" y="469" on="0"/>
        <pt x="141" y="631" on="0"/>
        <pt x="290" y="709" on="0"/>
        <pt x="383" y="709" on="1"/>
        <pt x="464" y="709" on="0"/>
        <pt x="536" y="687" on="1"/>
        <pt x="560" y="679" on="0"/>
        <pt x="577" y="660" on="0"/>
        <pt x="577" y="638" on="1"/>
        <pt x="577" y="579" on="1"/>
        <pt x="577" y="553" on="0"/>
        <pt x="556" y="529" on="0"/>
        <pt x="534" y="529" on="1"/>
      </contour>
    </TTGlyph>
    <TTGlyph name="Gbreve" xMin="53" yMin="0" xMax="610" yMax="922">
      <component glyphName="G" x="0" y="0" flags="0x0"/>
      <component glyphName="Breve" x="0" y="0" flags="0x0"/>
    </TTGlyph>
    <TTGlyph name="H" xMin="100" yMin="0" xMax="642" yMax="709">
      <contour>
        <pt x="619" y="709" on="0"/>
        <pt x="642" y="685" on="0"/>
        <pt x="642" y="659" on="1"/>
        <pt x="642" y="50" on="1"/>
        <pt x="642" y="23" on="0"/>
        <pt x="622" y="0" on="0"/>
        <pt x="598" y="0" on="1"/>
        <pt x="567" y="0" on="0"/>
        <pt x="534" y="39" on="0"/>
        <pt x="534" y="77" on="1"/>
        <pt x="534" y="339" on="1"/>
        <pt x="208" y="339" on="1"/>
        <pt x="208" y="65" on="1"/>
        <pt x="208" y="30" on="0"/>
        <pt x="178" y="0" on="0"/>
        <pt x="146" y="0" on="1"/>
        <pt x="123" y="0" on="0"/>
        <pt x="100" y="24" on="0"/>
        <pt x="100" y="50" on="1"/>
        <pt x="100" y="659" on="1"/>
        <pt x="100" y="686" on="0"/>
        <pt x="120" y="709" on="0"/>
        <pt x="144" y="709" on="1"/>
        <pt x="175" y="709" on="0"/>
        <pt x="208" y="670" on="0"/>
        <pt x="208" y="632" on="1"/>
        <pt x="208" y="394" on="1"/>
        <pt x="534" y="394" on="1"/>
        <pt x="534" y="644" on="1"/>
        <pt x="534" y="679" on="0"/>
        <pt x="564" y="709" on="0"/>
        <pt x="596" y="709" on="1"/>
      </contour>
    </TTGlyph>
    <TTGlyph name="I" xMin="20" yMin="0" xMax="388" yMax="709">
      <contour>
        <pt x="32" y="0" on="0"/>
        <pt x="20" y="13" on="0"/>
        <pt x="20" y="24" on="1"/>
        <pt x="20" y="37" on="0"/>
        <pt x="37" y="53" on="0"/>
        <pt x="60" y="53" on="1"/>
        <pt x="150" y="53" on="1"/>
        <pt x="150" y="656" on="1"/>
        <pt x="60" y="656" on="1"/>
        <pt x="37" y="656" on="0"/>
        <pt x="20" y="672" on="0"/>
        <pt x="20" y="685" on="1"/>
        <pt x="20" y="696" on="0"/>
        <pt x="32" y="709" on="0"/>
        <pt x="50" y="709" on="1"/>
        <pt x="358" y="709" on="1"/>
        <pt x="376" y="709" on="0"/>
        <pt x="388" y="696" on="0"/>
        <pt x="388" y="685" on="1"/>
        <pt x="388" y="672" on="0"/>
        <pt x="371" y="656" on="0"/>
        <pt x="348" y="656" on="1"/>
        <pt x="258" y="656" on="1"/>
        <pt x="258" y="53" on="1"/>
        <pt x="348" y="53" on="1"/>
        <pt x="371" y="53" on="0"/>
        <pt x="388" y="37" on="0"/>
        <pt x="388" y="24" on="1"/>
        <pt x="388" y="13" on="0"/>
        <pt x="376" y="0" on="0"/>
        <pt x="358" y="0" on="1"/>
        <pt x="50" y="0" on="1"/>
      </contour>
    </TTGlyph>
    <TTGlyph name="Iacute" xMin="20" yMin="0" xMax="388" yMax="963">
      <component glyphName="I" x="0" y="0" flags="0x0"/>
      <component glyphName="uniF6C9" x="-128" y="0" flags="0x0"/>
    </TTGlyph>
    <TTGlyph name="Icircumflex" xMin="20" yMin="0" xMax="388" yMax="919">
      <component glyphName="I" x="0" y="0" flags="0x0"/>
      <component glyphName="circumflex" x="-76" y="208" flags="0x4"/>
    </TTGlyph>
    <TTGlyph name="Idieresis" xMin="20" yMin="0" xMax="388" yMax="921">
      <component glyphName="I" x="0" y="0" flags="0x0"/>
      <component glyphName="uniF6CB" x="-113" y="0" flags="0x0"/>
    </TTGlyph>
    <TTGlyph name="Idotaccent" xMin="20" yMin="0" xMax="388" yMax="920">
      <component glyphName="I" x="0" y="0" flags="0x0"/>
      <component glyphName="Dotaccent" x="56" y="0" flags="0x0"/>
    </TTGlyph>
    <TTGlyph name="Igrave" xMin="20" yMin="0" xMax="388" yMax="963">
      <component glyphName="I" x="0" y="0" flags="0x0"/>
      <component glyphName="uniF6CE" x="-152" y="0" flags="0x0"/>
    </TTGlyph>
    <TTGlyph name="J" xMin="35" yMin="0" xMax="408" yMax="709">
      <contour>
        <pt x="385" y="709" on="0"/>
        <pt x="408" y="685" on="0"/>
        <pt x="408" y="659" on="1"/>
        <pt x="408" y="261" on="1"/>
        <pt x="408" y="161" on="0"/>
        <pt x="312" y="0" on="0"/>
        <pt x="176" y="0" on="1"/>
        <pt x="148" y="0" on="0"/>
        <pt x="71" y="13" on="0"/>
        <pt x="55" y="21" on="1"/>
        <pt x="35" y="31" on="0"/>
        <pt x="35" y="52" on="1"/>
        <pt x="35" y="119" on="1"/>
        <pt x="35" y="145" on="0"/>
        <pt x="56" y="169" on="0"/>
        <pt x="78" y="169" on="1"/>
        <pt x="107" y="169" on="0"/>
        <pt x="136" y="139" on="0"/>
        <pt x="136" y="104" on="1"/>
        <pt x="136" y="55" on="1"/>
        <pt x="154" y="52" on="0"/>
        <pt x="178" y="52" on="1"/>
        <pt x="245" y="52" on="0"/>
        <pt x="300" y="144" on="0"/>
        <pt x="300" y="208" on="1"/>
        <pt x="300" y="644" on="1"/>
        <pt x="300" y="679" on="0"/>
        <pt x="330" y="709" on="0"/>
        <pt x="362" y="709" on="1"/>
      </contour>
    </TTGlyph>
    <TTGlyph name="K" xMin="100" yMin="0" xMax="606" yMax="709">
      <contour>
        <pt x="518" y="689" on="1"/>
        <pt x="537" y="709" on="0"/>
        <pt x="558" y="709" on="1"/>
        <pt x="573" y="709" on="0"/>
        <pt x="594" y="689" on="0"/>
        <pt x="594" y="677" on="1"/>
        <pt x="594" y="670" on="0"/>
        <pt x="589" y="665" on="1"/>
        <pt x="303" y="390" on="1"/>
        <pt x="592" y="66" on="1"/>
        <pt x="606" y="50" on="0"/>
        <pt x="606" y="37" on="1"/>
        <pt x="606" y="22" on="0"/>
        <pt x="583" y="0" on="0"/>
        <pt x="565" y="0" on="1"/>
        <pt x="542" y="0" on="0"/>
        <pt x="500" y="20" on="0"/>
        <pt x="475" y="49" on="1"/>
        <pt x="226" y="334" on="1"/>
        <pt x="208" y="315" on="1"/>
        <pt x="208" y="65" on="1"/>
        <pt x="208" y="30" on="0"/>
        <pt x="178" y="0" on="0"/>
        <pt x="146" y="0" on="1"/>
        <pt x="123" y="0" on="0"/>
        <pt x="100" y="24" on="0"/>
        <pt x="100" y="50" on="1"/>
        <pt x="100" y="659" on="1"/>
        <pt x="100" y="686" on="0"/>
        <pt x="120" y="709" on="0"/>
        <pt x="144" y="709" on="1"/>
        <pt x="175" y="709" on="0"/>
        <pt x="208" y="670" on="0"/>
        <pt x="208" y="632" on="1"/>
        <pt x="208" y="382" on="1"/>
      </contour>
    </TTGlyph>
    <TTGlyph name="L" xMin="100" yMin="0" xMax="536" yMax="709">
      <contour>
        <pt x="515" y="187" on="0"/>
        <pt x="536" y="163" on="0"/>
        <pt x="536" y="137" on="1"/>
        <pt x="536" y="32" on="1"/>
        <pt x="536" y="15" on="0"/>
        <pt x="506" y="0" on="0"/>
        <pt x="476" y="0" on="1"/>
        <pt x="146" y="0" on="1"/>
        <pt x="123" y="0" on="0"/>
        <pt x="100" y="24" on="0"/>
        <pt x="100" y="50" on="1"/>
        <pt x="100" y="659" on="1"/>
        <pt x="100" y="686" on="0"/>
        <pt x="120" y="709" on="0"/>
        <pt x="144" y="709" on="1"/>
        <pt x="175" y="709" on="0"/>
        <pt x="208" y="670" on="0"/>
        <pt x="208" y="632" on="1"/>
        <pt x="208" y="53" on="1"/>
        <pt x="435" y="53" on="1"/>
        <pt x="435" y="122" on="1"/>
        <pt x="435" y="157" on="0"/>
        <pt x="464" y="187" on="0"/>
        <pt x="493" y="187" on="1"/>
      </contour>
    </TTGlyph>
    <TTGlyph name="Lslash" xMin="-2" yMin="0" xMax="560" yMax="709">
      <contour>
        <pt x="232" y="53" on="1"/>
        <pt x="459" y="53" on="1"/>
        <pt x="459" y="122" on="1"/>
        <pt x="459" y="157" on="0"/>
        <pt x="488" y="187" on="0"/>
        <pt x="517" y="187" on="1"/>
        <pt x="539" y="187" on="0"/>
        <pt x="560" y="163" on="0"/>
        <pt x="560" y="137" on="1"/>
        <pt x="560" y="32" on="1"/>
        <pt x="560" y="15" on="0"/>
        <pt x="530" y="0" on="0"/>
        <pt x="500" y="0" on="1"/>
        <pt x="170" y="0" on="1"/>
        <pt x="147" y="0" on="0"/>
        <pt x="124" y="24" on="0"/>
        <pt x="124" y="50" on="1"/>
        <pt x="124" y="257" on="1"/>
        <pt x="38" y="203" on="1"/>
        <pt x="34" y="201" on="0"/>
        <pt x="32" y="201" on="1"/>
        <pt x="22" y="201" on="0"/>
        <pt x="-1" y="226" on="0"/>
        <pt x="-2" y="237" on="1"/>
        <pt x="-2" y="243" on="0"/>
        <pt x="3" y="246" on="1"/>
        <pt x="124" y="323" on="1"/>
        <pt x="124" y="659" on="1"/>
        <pt x="124" y="686" on="0"/>
        <pt x="144" y="709" on="0"/>
        <pt x="168" y="709" on="1"/>
        <pt x="199" y="709" on="0"/>
        <pt x="232" y="670" on="0"/>
        <pt x="232" y="632" on="1"/>
        <pt x="232" y="392" on="1"/>
        <pt x="391" y="493" on="1"/>
        <pt x="393" y="494" on="0"/>
        <pt x="396" y="494" on="1"/>
        <pt x="406" y="494" on="0"/>
        <pt x="428" y="468" on="0"/>
        <pt x="429" y="456" on="1"/>
        <pt x="429" y="448" on="0"/>
        <pt x="424" y="445" on="1"/>
        <pt x="232" y="324" on="1"/>
      </contour>
    </TTGlyph>
    <TTGlyph name="M" xMin="100" yMin="0" xMax="777" yMax="709">
      <contour>
        <pt x="676" y="0" on="0"/>
        <pt x="676" y="77" on="1"/>
        <pt x="676" y="561" on="1"/>
        <pt x="669" y="561" on="1"/>
        <pt x="463" y="37" on="1"/>
        <pt x="448" y="0" on="0"/>
        <pt x="421" y="0" on="1"/>
        <pt x="393" y="0" on="0"/>
        <pt x="378" y="37" on="1"/>
        <pt x="186" y="561" on="1"/>
        <pt x="179" y="561" on="1"/>
        <pt x="179" y="56" on="1"/>
        <pt x="179" y="27" on="0"/>
        <pt x="154" y="0" on="0"/>
        <pt x="138" y="0" on="1"/>
        <pt x="122" y="0" on="0"/>
        <pt x="100" y="22" on="0"/>
        <pt x="100" y="45" on="1"/>
        <pt x="100" y="656" on="1"/>
        <pt x="100" y="681" on="0"/>
        <pt x="138" y="709" on="0"/>
        <pt x="164" y="709" on="1"/>
        <pt x="186" y="709" on="0"/>
        <pt x="229" y="686" on="0"/>
        <pt x="239" y="661" on="1"/>
        <pt x="431" y="130" on="1"/>
        <pt x="436" y="130" on="1"/>
        <pt x="645" y="656" on="1"/>
        <pt x="655" y="684" on="0"/>
        <pt x="700" y="709" on="0"/>
        <pt x="726" y="709" on="1"/>
        <pt x="752" y="709" on="0"/>
        <pt x="777" y="683" on="0"/>
        <pt x="777" y="656" on="1"/>
        <pt x="777" y="50" on="1"/>
        <pt x="777" y="22" on="0"/>
        <pt x="759" y="0" on="0"/>
        <pt x="736" y="0" on="1"/>
      </contour>
    </TTGlyph>
    <TTGlyph name="N" xMin="100" yMin="0" xMax="643" yMax="709">
      <contour>
        <pt x="122" y="0" on="0"/>
        <pt x="100" y="22" on="0"/>
        <pt x="100" y="45" on="1"/>
        <pt x="100" y="655" on="1"/>
        <pt x="100" y="680" on="0"/>
        <pt x="135" y="709" on="0"/>
        <pt x="160" y="709" on="1"/>
        <pt x="182" y="709" on="0"/>
        <pt x="217" y="691" on="0"/>
        <pt x="232" y="667" on="1"/>
        <pt x="559" y="148" on="1"/>
        <pt x="564" y="148" on="1"/>
        <pt x="564" y="653" on="1"/>
        <pt x="564" y="682" on="0"/>
        <pt x="589" y="709" on="0"/>
        <pt x="605" y="709" on="1"/>
        <pt x="621" y="709" on="0"/>
        <pt x="643" y="687" on="0"/>
        <pt x="643" y="664" on="1"/>
        <pt x="643" y="58" on="1"/>
        <pt x="643" y="30" on="0"/>
        <pt x="610" y="0" on="0"/>
        <pt x="585" y="0" on="1"/>
        <pt x="538" y="0" on="0"/>
        <pt x="512" y="40" on="1"/>
        <pt x="185" y="561" on="1"/>
        <pt x="179" y="561" on="1"/>
        <pt x="179" y="56" on="1"/>
        <pt x="179" y="27" on="0"/>
        <pt x="154" y="0" on="0"/>
        <pt x="138" y="0" on="1"/>
      </contour>
    </TTGlyph>
    <TTGlyph name="Ntilde" xMin="100" yMin="0" xMax="643" yMax="912">
      <component glyphName="N" x="0" y="0" flags="0x0"/>
      <component glyphName="Tilde" x="19" y="0" flags="0x0"/>
    </TTGlyph>
    <TTGlyph name="O" xMin="53" yMin="0" xMax="663" yMax="709">
      <contour>
        <pt x="663" y="279" on="0"/>
        <pt x="618" y="121" on="0"/>
        <pt x="482" y="0" on="0"/>
        <pt x="357" y="0" on="1"/>
        <pt x="232" y="0" on="0"/>
        <pt x="97" y="121" on="0"/>
        <pt x="53" y="279" on="0"/>
        <pt x="53" y="354" on="1"/>
        <pt x="53" y="429" on="0"/>
        <pt x="97" y="587" on="0"/>
        <pt x="232" y="709" on="0"/>
        <pt x="357" y="709" on="1"/>
        <pt x="482" y="709" on="0"/>
        <pt x="618" y="587" on="0"/>
        <pt x="663" y="428" on="0"/>
        <pt x="663" y="354" on="1"/>
      </contour>
      <contour>
        <pt x="550" y="470" on="0"/>
        <pt x="472" y="658" on="0"/>
        <pt x="357" y="658" on="1"/>
        <pt x="244" y="658" on="0"/>
        <pt x="166" y="470" on="0"/>
        <pt x="166" y="354" on="1"/>
        <pt x="166" y="239" on="0"/>
        <pt x="244" y="51" on="0"/>
        <pt x="357" y="51" on="1"/>
        <pt x="472" y="51" on="0"/>
        <pt x="550" y="238" on="0"/>
        <pt x="550" y="354" on="1"/>
      </contour>
    </TTGlyph>
    <TTGlyph name="OE" xMin="53" yMin="0" xMax="886" yMax="709">
      <contour>
        <pt x="799" y="535" on="0"/>
        <pt x="770" y="565" on="0"/>
        <pt x="770" y="600" on="1"/>
        <pt x="770" y="656" on="1"/>
        <pt x="546" y="656" on="1"/>
        <pt x="546" y="394" on="1"/>
        <pt x="743" y="394" on="1"/>
        <pt x="756" y="394" on="0"/>
        <pt x="771" y="377" on="0"/>
        <pt x="771" y="366" on="1"/>
        <pt x="771" y="356" on="0"/>
        <pt x="753" y="339" on="0"/>
        <pt x="743" y="339" on="1"/>
        <pt x="546" y="339" on="1"/>
        <pt x="546" y="53" on="1"/>
        <pt x="785" y="53" on="1"/>
        <pt x="785" y="109" on="1"/>
        <pt x="785" y="144" on="0"/>
        <pt x="814" y="174" on="0"/>
        <pt x="843" y="174" on="1"/>
        <pt x="865" y="174" on="0"/>
        <pt x="886" y="150" on="0"/>
        <pt x="886" y="124" on="1"/>
        <pt x="886" y="37" on="1"/>
        <pt x="886" y="16" on="0"/>
        <pt x="857" y="0" on="0"/>
        <pt x="826" y="0" on="1"/>
        <pt x="367" y="0" on="1"/>
        <pt x="242" y="0" on="0"/>
        <pt x="102" y="121" on="0"/>
        <pt x="53" y="281" on="0"/>
        <pt x="53" y="354" on="1"/>
        <pt x="53" y="426" on="0"/>
        <pt x="102" y="587" on="0"/>
        <pt x="242" y="709" on="0"/>
        <pt x="367" y="709" on="1"/>
        <pt x="811" y="709" on="1"/>
        <pt x="842" y="709" on="0"/>
        <pt x="871" y="693" on="0"/>
        <pt x="871" y="672" on="1"/>
        <pt x="871" y="585" on="1"/>
        <pt x="871" y="559" on="0"/>
        <pt x="850" y="535" on="0"/>
        <pt x="828" y="535" on="1"/>
      </contour>
      <contour>
        <pt x="412" y="51" on="0"/>
        <pt x="438" y="57" on="1"/>
        <pt x="438" y="652" on="1"/>
        <pt x="405" y="658" on="0"/>
        <pt x="367" y="658" on="1"/>
        <pt x="288" y="658" on="0"/>
        <pt x="198" y="556" on="0"/>
        <pt x="166" y="419" on="0"/>
        <pt x="166" y="354" on="1"/>
        <pt x="166" y="289" on="0"/>
        <pt x="198" y="152" on="0"/>
        <pt x="288" y="51" on="0"/>
        <pt x="367" y="51" on="1"/>
      </contour>
    </TTGlyph>
    <TTGlyph name="Oacute" xMin="53" yMin="0" xMax="663" yMax="963">
      <component glyphName="O" x="0" y="0" flags="0x0"/>
      <component glyphName="uniF6C9" x="15" y="0" flags="0x0"/>
    </TTGlyph>
    <TTGlyph name="Ocircumflex" xMin="53" yMin="0" xMax="663" yMax="919">
      <component glyphName="O" x="0" y="0" flags="0x0"/>
      <component glyphName="circumflex" x="78" y="208" flags="0x4"/>
    </TTGlyph>
    <TTGlyph name="Odieresis" xMin="53" yMin="0" xMax="663" yMax="921">
      <component glyphName="O" x="0" y="0" flags="0x0"/>
      <component glyphName="uniF6CB" x="40" y="0" flags="0x0"/>
    </TTGlyph>
    <TTGlyph name="Ograve" xMin="53" yMin="0" xMax="663" yMax="963">
      <component glyphName="O" x="0" y="0" flags="0x0"/>
      <component glyphName="uniF6CE" x="0" y="0" flags="0x0"/>
    </TTGlyph>
    <TTGlyph name="Oslash" xMin="53" yMin="-76" xMax="663" yMax="785">
      <contour>
        <pt x="618" y="586" on="0"/>
        <pt x="663" y="428" on="0"/>
        <pt x="663" y="354" on="1"/>
        <pt x="663" y="279" on="0"/>
        <pt x="618" y="121" on="0"/>
        <pt x="482" y="0" on="0"/>
        <pt x="357" y="0" on="1"/>
        <pt x="271" y="0" on="0"/>
        <pt x="209" y="32" on="1"/>
        <pt x="151" y="-70" on="1"/>
        <pt x="147" y="-76" on="0"/>
        <pt x="138" y="-76" on="1"/>
        <pt x="124" y="-76" on="0"/>
        <pt x="96" y="-55" on="0"/>
        <pt x="96" y="-45" on="1"/>
        <pt x="96" y="-42" on="0"/>
        <pt x="97" y="-40" on="1"/>
        <pt x="157" y="67" on="1"/>
        <pt x="97" y="120" on="0"/>
        <pt x="53" y="278" on="0"/>
        <pt x="53" y="354" on="1"/>
        <pt x="53" y="429" on="0"/>
        <pt x="97" y="587" on="0"/>
        <pt x="232" y="709" on="0"/>
        <pt x="357" y="709" on="1"/>
        <pt x="442" y="709" on="0"/>
        <pt x="504" y="677" on="1"/>
        <pt x="562" y="779" on="1"/>
        <pt x="565" y="785" on="0"/>
        <pt x="574" y="785" on="1"/>
        <pt x="588" y="785" on="0"/>
        <pt x="618" y="761" on="0"/>
        <pt x="618" y="750" on="1"/>
        <pt x="618" y="746" on="0"/>
        <pt x="617" y="744" on="1"/>
        <pt x="558" y="640" on="1"/>
      </contour>
      <contour>
        <pt x="166" y="224" on="0"/>
        <pt x="204" y="148" on="1"/>
        <pt x="470" y="617" on="1"/>
        <pt x="424" y="658" on="0"/>
        <pt x="357" y="658" on="1"/>
        <pt x="244" y="658" on="0"/>
        <pt x="166" y="470" on="0"/>
        <pt x="166" y="354" on="1"/>
      </contour>
      <contour>
        <pt x="550" y="484" on="0"/>
        <pt x="512" y="560" on="1"/>
        <pt x="244" y="92" on="1"/>
        <pt x="288" y="51" on="0"/>
        <pt x="357" y="51" on="1"/>
        <pt x="472" y="51" on="0"/>
        <pt x="550" y="238" on="0"/>
        <pt x="550" y="354" on="1"/>
      </contour>
    </TTGlyph>
    <TTGlyph name="Otilde" xMin="53" yMin="0" xMax="663" yMax="912">
      <component glyphName="O" x="0" y="0" flags="0x0"/>
      <component glyphName="Tilde" x="-2" y="0" flags="0x0"/>
    </TTGlyph>
    <TTGlyph name="P" xMin="100" yMin="0" xMax="582" yMax="709">
      <contour>
        <pt x="208" y="65" on="1"/>
        <pt x="208" y="30" on="0"/>
        <pt x="178" y="0" on="0"/>
        <pt x="146" y="0" on="1"/>
        <pt x="123" y="0" on="0"/>
        <pt x="100" y="24" on="0"/>
        <pt x="100" y="50" on="1"/>
        <pt x="100" y="659" on="1"/>
        <pt x="100" y="686" on="0"/>
        <pt x="120" y="709" on="0"/>
        <pt x="144" y="709" on="1"/>
        <pt x="311" y="709" on="1"/>
        <pt x="373" y="709" on="0"/>
        <pt x="488" y="685" on="0"/>
        <pt x="582" y="594" on="0"/>
        <pt x="582" y="502" on="1"/>
        <pt x="582" y="438" on="0"/>
        <pt x="522" y="335" on="0"/>
        <pt x="401" y="275" on="0"/>
        <pt x="312" y="275" on="1"/>
        <pt x="208" y="275" on="1"/>
      </contour>
      <contour>
        <pt x="208" y="328" on="1"/>
        <pt x="311" y="328" on="1"/>
        <pt x="386" y="328" on="0"/>
        <pt x="469" y="413" on="0"/>
        <pt x="469" y="502" on="1"/>
        <pt x="469" y="576" on="0"/>
        <pt x="396" y="656" on="0"/>
        <pt x="311" y="656" on="1"/>
        <pt x="208" y="656" on="1"/>
      </contour>
    </TTGlyph>
    <TTGlyph name="Q" xMin="53" yMin="-62" xMax="663" yMax="709">
      <contour>
        <pt x="663" y="274" on="0"/>
        <pt x="610" y="111" on="0"/>
        <pt x="539" y="57" on="1"/>
        <pt x="603" y="-20" on="1"/>
        <pt x="609" y="-28" on="0"/>
        <pt x="609" y="-35" on="1"/>
        <pt x="609" y="-46" on="0"/>
        <pt x="584" y="-62" on="0"/>
        <pt x="566" y="-62" on="1"/>
        <pt x="531" y="-62" on="0"/>
        <pt x="506" y="-32" on="1"/>
        <pt x="465" y="16" on="1"/>
        <pt x="415" y="0" on="0"/>
        <pt x="357" y="0" on="1"/>
        <pt x="232" y="0" on="0"/>
        <pt x="97" y="121" on="0"/>
        <pt x="53" y="279" on="0"/>
        <pt x="53" y="354" on="1"/>
        <pt x="53" y="429" on="0"/>
        <pt x="97" y="587" on="0"/>
        <pt x="232" y="709" on="0"/>
        <pt x="357" y="709" on="1"/>
        <pt x="482" y="709" on="0"/>
        <pt x="618" y="587" on="0"/>
        <pt x="663" y="428" on="0"/>
        <pt x="663" y="354" on="1"/>
      </contour>
      <contour>
        <pt x="550" y="470" on="0"/>
        <pt x="472" y="658" on="0"/>
        <pt x="357" y="658" on="1"/>
        <pt x="244" y="658" on="0"/>
        <pt x="166" y="470" on="0"/>
        <pt x="166" y="354" on="1"/>
        <pt x="166" y="239" on="0"/>
        <pt x="244" y="51" on="0"/>
        <pt x="357" y="51" on="1"/>
        <pt x="397" y="51" on="0"/>
        <pt x="425" y="63" on="1"/>
        <pt x="352" y="151" on="1"/>
        <pt x="340" y="166" on="0"/>
        <pt x="340" y="178" on="1"/>
        <pt x="340" y="191" on="0"/>
        <pt x="362" y="209" on="0"/>
        <pt x="378" y="209" on="1"/>
        <pt x="413" y="209" on="0"/>
        <pt x="439" y="176" on="1"/>
        <pt x="490" y="115" on="1"/>
        <pt x="525" y="163" on="0"/>
        <pt x="550" y="286" on="0"/>
        <pt x="550" y="354" on="1"/>
      </contour>
    </TTGlyph>
    <TTGlyph name="R" xMin="100" yMin="0" xMax="586" yMax="709">
      <contour>
        <pt x="100" y="686" on="0"/>
        <pt x="120" y="709" on="0"/>
        <pt x="144" y="709" on="1"/>
        <pt x="333" y="709" on="1"/>
        <pt x="448" y="709" on="0"/>
        <pt x="586" y="624" on="0"/>
        <pt x="586" y="516" on="1"/>
        <pt x="586" y="467" on="0"/>
        <pt x="535" y="385" on="0"/>
        <pt x="454" y="333" on="0"/>
        <pt x="411" y="326" on="1"/>
        <pt x="577" y="59" on="1"/>
        <pt x="586" y="46" on="0"/>
        <pt x="586" y="33" on="1"/>
        <pt x="586" y="18" on="0"/>
        <pt x="560" y="0" on="0"/>
        <pt x="535" y="0" on="1"/>
        <pt x="515" y="0" on="0"/>
        <pt x="479" y="18" on="0"/>
        <pt x="467" y="38" on="1"/>
        <pt x="299" y="319" on="1"/>
        <pt x="208" y="319" on="1"/>
        <pt x="208" y="65" on="1"/>
        <pt x="208" y="30" on="0"/>
        <pt x="178" y="0" on="0"/>
        <pt x="146" y="0" on="1"/>
        <pt x="123" y="0" on="0"/>
        <pt x="100" y="24" on="0"/>
        <pt x="100" y="50" on="1"/>
        <pt x="100" y="659" on="1"/>
      </contour>
      <contour>
        <pt x="208" y="372" on="1"/>
        <pt x="315" y="372" on="1"/>
        <pt x="377" y="372" on="0"/>
        <pt x="473" y="445" on="0"/>
        <pt x="473" y="522" on="1"/>
        <pt x="473" y="604" on="0"/>
        <pt x="385" y="656" on="0"/>
        <pt x="323" y="656" on="1"/>
        <pt x="208" y="656" on="1"/>
      </contour>
    </TTGlyph>
    <TTGlyph name="Ring" xMin="250" yMin="752" xMax="469" yMax="971">
      <contour>
        <pt x="250" y="907" on="0"/>
        <pt x="314" y="971" on="0"/>
        <pt x="360" y="971" on="1"/>
        <pt x="406" y="971" on="0"/>
        <pt x="469" y="907" on="0"/>
        <pt x="469" y="861" on="1"/>
        <pt x="469" y="815" on="0"/>
        <pt x="406" y="752" on="0"/>
        <pt x="360" y="752" on="1"/>
        <pt x="314" y="752" on="0"/>
        <pt x="250" y="815" on="0"/>
        <pt x="250" y="861" on="1"/>
      </contour>
      <contour>
        <pt x="309" y="841" on="0"/>
        <pt x="340" y="811" on="0"/>
        <pt x="360" y="811" on="1"/>
        <pt x="380" y="811" on="0"/>
        <pt x="410" y="842" on="0"/>
        <pt x="410" y="861" on="1"/>
        <pt x="410" y="881" on="0"/>
        <pt x="380" y="912" on="0"/>
        <pt x="360" y="912" on="1"/>
        <pt x="340" y="912" on="0"/>
        <pt x="309" y="881" on="0"/>
        <pt x="309" y="861" on="1"/>
      </contour>
    </TTGlyph>
    <TTGlyph name="S" xMin="61" yMin="0" xMax="571" yMax="709">
      <contour>
        <pt x="453" y="527" on="0"/>
        <pt x="424" y="556" on="0"/>
        <pt x="424" y="589" on="1"/>
        <pt x="424" y="640" on="1"/>
        <pt x="420" y="641" on="0"/>
        <pt x="407" y="645" on="1"/>
        <pt x="361" y="658" on="0"/>
        <pt x="306" y="658" on="1"/>
        <pt x="262" y="658" on="0"/>
        <pt x="202" y="621" on="0"/>
        <pt x="173" y="564" on="0"/>
        <pt x="173" y="534" on="1"/>
        <pt x="173" y="500" on="0"/>
        <pt x="198" y="456" on="0"/>
        <pt x="254" y="424" on="0"/>
        <pt x="308" y="404" on="1"/>
        <pt x="415" y="366" on="0"/>
        <pt x="515" y="318" on="0"/>
        <pt x="571" y="249" on="0"/>
        <pt x="571" y="194" on="1"/>
        <pt x="571" y="138" on="0"/>
        <pt x="506" y="50" on="0"/>
        <pt x="379" y="0" on="0"/>
        <pt x="291" y="0" on="1"/>
        <pt x="246" y="0" on="0"/>
        <pt x="139" y="19" on="0"/>
        <pt x="103" y="33" on="1"/>
        <pt x="80" y="43" on="0"/>
        <pt x="64" y="60" on="0"/>
        <pt x="64" y="81" on="1"/>
        <pt x="64" y="141" on="1"/>
        <pt x="64" y="189" on="0"/>
        <pt x="107" y="189" on="1"/>
        <pt x="136" y="189" on="0"/>
        <pt x="165" y="160" on="0"/>
        <pt x="165" y="126" on="1"/>
        <pt x="165" y="72" on="1"/>
        <pt x="228" y="51" on="0"/>
        <pt x="287" y="51" on="1"/>
        <pt x="341" y="51" on="0"/>
        <pt x="419" y="89" on="0"/>
        <pt x="459" y="149" on="0"/>
        <pt x="459" y="183" on="1"/>
        <pt x="459" y="216" on="0"/>
        <pt x="424" y="262" on="0"/>
        <pt x="354" y="298" on="0"/>
        <pt x="291" y="321" on="1"/>
        <pt x="206" y="353" on="0"/>
        <pt x="115" y="398" on="0"/>
        <pt x="61" y="471" on="0"/>
        <pt x="61" y="528" on="1"/>
        <pt x="61" y="610" on="0"/>
        <pt x="187" y="709" on="0"/>
        <pt x="299" y="709" on="1"/>
        <pt x="351" y="709" on="0"/>
        <pt x="437" y="694" on="0"/>
        <pt x="484" y="680" on="1"/>
        <pt x="508" y="672" on="0"/>
        <pt x="525" y="654" on="0"/>
        <pt x="525" y="633" on="1"/>
        <pt x="525" y="575" on="1"/>
        <pt x="525" y="527" on="0"/>
        <pt x="482" y="527" on="1"/>
      </contour>
    </TTGlyph>
    <TTGlyph name="Scaron" xMin="61" yMin="0" xMax="571" yMax="919">
      <component glyphName="S" x="0" y="0" flags="0x0"/>
      <component glyphName="uniF6CA" x="-48" y="0" flags="0x0"/>
    </TTGlyph>
    <TTGlyph name="Scedilla" xMin="61" yMin="-210" xMax="571" yMax="709">
      <contour>
        <pt x="453" y="527" on="0"/>
        <pt x="424" y="556" on="0"/>
        <pt x="424" y="589" on="1"/>
        <pt x="424" y="640" on="1"/>
        <pt x="420" y="641" on="0"/>
        <pt x="407" y="645" on="1"/>
        <pt x="361" y="658" on="0"/>
        <pt x="306" y="658" on="1"/>
        <pt x="262" y="658" on="0"/>
        <pt x="202" y="621" on="0"/>
        <pt x="173" y="564" on="0"/>
        <pt x="173" y="534" on="1"/>
        <pt x="173" y="500" on="0"/>
        <pt x="198" y="456" on="0"/>
        <pt x="254" y="424" on="0"/>
        <pt x="308" y="404" on="1"/>
        <pt x="415" y="366" on="0"/>
        <pt x="515" y="318" on="0"/>
        <pt x="571" y="249" on="0"/>
        <pt x="571" y="194" on="1"/>
        <pt x="571" y="113" on="0"/>
        <pt x="439" y="7" on="0"/>
        <pt x="320" y="0" on="1"/>
        <pt x="320" y="-42" on="1"/>
        <pt x="366" y="-42" on="0"/>
        <pt x="426" y="-77" on="0"/>
        <pt x="426" y="-120" on="1"/>
        <pt x="426" y="-161" on="0"/>
        <pt x="360" y="-210" on="0"/>
        <pt x="309" y="-210" on="1"/>
        <pt x="277" y="-210" on="0"/>
        <pt x="214" y="-187" on="0"/>
        <pt x="214" y="-167" on="1"/>
        <pt x="214" y="-159" on="0"/>
        <pt x="226" y="-147" on="0"/>
        <pt x="236" y="-147" on="1"/>
        <pt x="244" y="-147" on="0"/>
        <pt x="261" y="-152" on="1"/>
        <pt x="287" y="-159" on="0"/>
        <pt x="297" y="-159" on="1"/>
        <pt x="322" y="-159" on="0"/>
        <pt x="346" y="-138" on="0"/>
        <pt x="346" y="-123" on="1"/>
        <pt x="346" y="-97" on="0"/>
        <pt x="309" y="-81" on="0"/>
        <pt x="265" y="-81" on="1"/>
        <pt x="265" y="0" on="1"/>
        <pt x="222" y="3" on="0"/>
        <pt x="133" y="21" on="0"/>
        <pt x="103" y="33" on="1"/>
        <pt x="80" y="43" on="0"/>
        <pt x="64" y="60" on="0"/>
        <pt x="64" y="81" on="1"/>
        <pt x="64" y="141" on="1"/>
        <pt x="64" y="189" on="0"/>
        <pt x="107" y="189" on="1"/>
        <pt x="136" y="189" on="0"/>
        <pt x="165" y="160" on="0"/>
        <pt x="165" y="126" on="1"/>
        <pt x="165" y="72" on="1"/>
        <pt x="228" y="51" on="0"/>
        <pt x="287" y="51" on="1"/>
        <pt x="341" y="51" on="0"/>
        <pt x="419" y="89" on="0"/>
        <pt x="459" y="149" on="0"/>
        <pt x="459" y="183" on="1"/>
        <pt x="459" y="216" on="0"/>
        <pt x="424" y="262" on="0"/>
        <pt x="354" y="298" on="0"/>
        <pt x="291" y="321" on="1"/>
        <pt x="206" y="353" on="0"/>
        <pt x="115" y="398" on="0"/>
        <pt x="61" y="471" on="0"/>
        <pt x="61" y="528" on="1"/>
        <pt x="61" y="610" on="0"/>
        <pt x="187" y="709" on="0"/>
        <pt x="299" y="709" on="1"/>
        <pt x="351" y="709" on="0"/>
        <pt x="437" y="694" on="0"/>
        <pt x="484" y="680" on="1"/>
        <pt x="508" y="672" on="0"/>
        <pt x="525" y="654" on="0"/>
        <pt x="525" y="633" on="1"/>
        <pt x="525" y="575" on="1"/>
        <pt x="525" y="527" on="0"/>
        <pt x="482" y="527" on="1"/>
      </contour>
    </TTGlyph>
    <TTGlyph name="T" xMin="20" yMin="0" xMax="630" yMax="709">
      <contour>
        <pt x="379" y="60" on="1"/>
        <pt x="379" y="26" on="0"/>
        <pt x="350" y="0" on="0"/>
        <pt x="317" y="0" on="1"/>
        <pt x="294" y="0" on="0"/>
        <pt x="271" y="24" on="0"/>
        <pt x="271" y="50" on="1"/>
        <pt x="271" y="656" on="1"/>
        <pt x="121" y="656" on="1"/>
        <pt x="121" y="585" on="1"/>
        <pt x="121" y="550" on="0"/>
        <pt x="92" y="520" on="0"/>
        <pt x="63" y="520" on="1"/>
        <pt x="41" y="520" on="0"/>
        <pt x="20" y="544" on="0"/>
        <pt x="20" y="570" on="1"/>
        <pt x="20" y="672" on="1"/>
        <pt x="20" y="693" on="0"/>
        <pt x="49" y="709" on="0"/>
        <pt x="80" y="709" on="1"/>
        <pt x="570" y="709" on="1"/>
        <pt x="601" y="709" on="0"/>
        <pt x="630" y="693" on="0"/>
        <pt x="630" y="672" on="1"/>
        <pt x="630" y="570" on="1"/>
        <pt x="630" y="544" on="0"/>
        <pt x="609" y="520" on="0"/>
        <pt x="587" y="520" on="1"/>
        <pt x="558" y="520" on="0"/>
        <pt x="529" y="550" on="0"/>
        <pt x="529" y="585" on="1"/>
        <pt x="529" y="656" on="1"/>
        <pt x="379" y="656" on="1"/>
      </contour>
    </TTGlyph>
    <TTGlyph name="Thorn" xMin="100" yMin="0" xMax="577" yMax="709">
      <contour>
        <pt x="306" y="576" on="1"/>
        <pt x="368" y="576" on="0"/>
        <pt x="483" y="552" on="0"/>
        <pt x="577" y="461" on="0"/>
        <pt x="577" y="369" on="1"/>
        <pt x="577" y="305" on="0"/>
        <pt x="517" y="202" on="0"/>
        <pt x="396" y="142" on="0"/>
        <pt x="307" y="142" on="1"/>
        <pt x="208" y="142" on="1"/>
        <pt x="208" y="65" on="1"/>
        <pt x="208" y="30" on="0"/>
        <pt x="178" y="0" on="0"/>
        <pt x="146" y="0" on="1"/>
        <pt x="123" y="0" on="0"/>
        <pt x="100" y="24" on="0"/>
        <pt x="100" y="50" on="1"/>
        <pt x="100" y="659" on="1"/>
        <pt x="100" y="686" on="0"/>
        <pt x="120" y="709" on="0"/>
        <pt x="144" y="709" on="1"/>
        <pt x="175" y="709" on="0"/>
        <pt x="208" y="670" on="0"/>
        <pt x="208" y="632" on="1"/>
        <pt x="208" y="576" on="1"/>
      </contour>
      <contour>
        <pt x="208" y="195" on="1"/>
        <pt x="306" y="195" on="1"/>
        <pt x="381" y="195" on="0"/>
        <pt x="464" y="280" on="0"/>
        <pt x="464" y="369" on="1"/>
        <pt x="464" y="443" on="0"/>
        <pt x="391" y="523" on="0"/>
        <pt x="306" y="523" on="1"/>
        <pt x="208" y="523" on="1"/>
      </contour>
    </TTGlyph>
    <TTGlyph name="Tilde" xMin="200" yMin="785" xMax="522" yMax="912">
      <contour>
        <pt x="276" y="829" on="0"/>
        <pt x="263" y="818" on="0"/>
        <pt x="257" y="806" on="1"/>
        <pt x="252" y="795" on="0"/>
        <pt x="242" y="785" on="0"/>
        <pt x="229" y="785" on="1"/>
        <pt x="212" y="785" on="0"/>
        <pt x="200" y="796" on="0"/>
        <pt x="200" y="806" on="1"/>
        <pt x="200" y="825" on="0"/>
        <pt x="225" y="872" on="0"/>
        <pt x="272" y="904" on="0"/>
        <pt x="304" y="904" on="1"/>
        <pt x="334" y="901" on="0"/>
        <pt x="370" y="888" on="1"/>
        <pt x="377" y="885" on="0"/>
        <pt x="403" y="874" on="0"/>
        <pt x="423" y="869" on="0"/>
        <pt x="434" y="869" on="1"/>
        <pt x="447" y="869" on="0"/>
        <pt x="460" y="879" on="0"/>
        <pt x="465" y="887" on="1"/>
        <pt x="467" y="890" on="0"/>
        <pt x="475" y="904" on="0"/>
        <pt x="488" y="912" on="0"/>
        <pt x="499" y="912" on="1"/>
        <pt x="510" y="912" on="0"/>
        <pt x="522" y="901" on="0"/>
        <pt x="522" y="892" on="1"/>
        <pt x="522" y="877" on="0"/>
        <pt x="514" y="864" on="1"/>
        <pt x="498" y="827" on="0"/>
        <pt x="452" y="794" on="0"/>
        <pt x="426" y="794" on="1"/>
        <pt x="409" y="794" on="0"/>
        <pt x="377" y="803" on="0"/>
        <pt x="354" y="812" on="1"/>
        <pt x="311" y="829" on="0"/>
        <pt x="292" y="829" on="1"/>
      </contour>
    </TTGlyph>
    <TTGlyph name="U" xMin="93" yMin="-15" xMax="625" yMax="709">
      <contour>
        <pt x="201" y="138" on="0"/>
        <pt x="295" y="46" on="0"/>
        <pt x="378" y="46" on="1"/>
        <pt x="455" y="46" on="0"/>
        <pt x="546" y="146" on="0"/>
        <pt x="546" y="223" on="1"/>
        <pt x="546" y="653" on="1"/>
        <pt x="546" y="682" on="0"/>
        <pt x="571" y="709" on="0"/>
        <pt x="587" y="709" on="1"/>
        <pt x="603" y="709" on="0"/>
        <pt x="625" y="687" on="0"/>
        <pt x="625" y="664" on="1"/>
        <pt x="625" y="254" on="1"/>
        <pt x="625" y="194" on="0"/>
        <pt x="583" y="73" on="0"/>
        <pt x="464" y="-15" on="0"/>
        <pt x="358" y="-15" on="1"/>
        <pt x="200" y="-15" on="0"/>
        <pt x="93" y="147" on="0"/>
        <pt x="93" y="251" on="1"/>
        <pt x="93" y="659" on="1"/>
        <pt x="93" y="686" on="0"/>
        <pt x="113" y="709" on="0"/>
        <pt x="137" y="709" on="1"/>
        <pt x="168" y="709" on="0"/>
        <pt x="201" y="670" on="0"/>
        <pt x="201" y="632" on="1"/>
        <pt x="201" y="219" on="1"/>
      </contour>
    </TTGlyph>
    <TTGlyph name="Uacute" xMin="93" yMin="-15" xMax="625" yMax="963">
      <component glyphName="U" x="0" y="0" flags="0x0"/>
      <component glyphName="uniF6C9" x="17" y="0" flags="0x0"/>
    </TTGlyph>
    <TTGlyph name="Ucircumflex" xMin="93" yMin="-15" xMax="625" yMax="919">
      <component glyphName="U" x="0" y="0" flags="0x0"/>
      <component glyphName="circumflex" x="79" y="208" flags="0x4"/>
    </TTGlyph>
    <TTGlyph name="Udieresis" xMin="93" yMin="-15" xMax="625" yMax="921">
      <component glyphName="U" x="0" y="0" flags="0x0"/>
      <component glyphName="uniF6CB" x="46" y="0" flags="0x0"/>
    </TTGlyph>
    <TTGlyph name="Ugrave" xMin="93" yMin="-15" xMax="625" yMax="963">
      <component glyphName="U" x="0" y="0" flags="0x0"/>
      <component glyphName="uniF6CE" x="7" y="0" flags="0x0"/>
    </TTGlyph>
    <TTGlyph name="V" xMin="18" yMin="0" xMax="583" yMax="709">
      <contour>
        <pt x="308" y="113" on="1"/>
        <pt x="130" y="656" on="1"/>
        <pt x="112" y="709" on="0"/>
        <pt x="61" y="709" on="1"/>
        <pt x="39" y="709" on="0"/>
        <pt x="18" y="688" on="0"/>
        <pt x="18" y="672" on="1"/>
        <pt x="18" y="661" on="0"/>
        <pt x="22" y="650" on="1"/>
        <pt x="237" y="36" on="1"/>
        <pt x="243" y="17" on="0"/>
        <pt x="277" y="0" on="0"/>
        <pt x="297" y="0" on="1"/>
        <pt x="346" y="0" on="0"/>
        <pt x="360" y="40" on="1"/>
        <pt x="578" y="657" on="1"/>
        <pt x="583" y="670" on="0"/>
        <pt x="583" y="682" on="1"/>
        <pt x="583" y="694" on="0"/>
        <pt x="566" y="709" on="0"/>
        <pt x="552" y="709" on="1"/>
        <pt x="534" y="709" on="0"/>
        <pt x="506" y="688" on="0"/>
        <pt x="495" y="656" on="1"/>
        <pt x="314" y="113" on="1"/>
      </contour>
    </TTGlyph>
    <TTGlyph name="W" xMin="26" yMin="0" xMax="827" yMax="709">
      <contour>
        <pt x="604" y="113" on="1"/>
        <pt x="490" y="649" on="1"/>
        <pt x="478" y="709" on="0"/>
        <pt x="439" y="709" on="1"/>
        <pt x="417" y="709" on="0"/>
        <pt x="393" y="679" on="0"/>
        <pt x="385" y="646" on="1"/>
        <pt x="266" y="113" on="1"/>
        <pt x="260" y="113" on="1"/>
        <pt x="136" y="656" on="1"/>
        <pt x="119" y="709" on="0"/>
        <pt x="68" y="709" on="1"/>
        <pt x="47" y="709" on="0"/>
        <pt x="26" y="688" on="0"/>
        <pt x="26" y="672" on="1"/>
        <pt x="26" y="661" on="0"/>
        <pt x="30" y="650" on="1"/>
        <pt x="190" y="36" on="1"/>
        <pt x="195" y="17" on="0"/>
        <pt x="229" y="0" on="0"/>
        <pt x="249" y="0" on="1"/>
        <pt x="271" y="0" on="0"/>
        <pt x="305" y="19" on="0"/>
        <pt x="311" y="40" on="1"/>
        <pt x="427" y="517" on="1"/>
        <pt x="429" y="517" on="1"/>
        <pt x="534" y="36" on="1"/>
        <pt x="539" y="18" on="0"/>
        <pt x="573" y="0" on="0"/>
        <pt x="593" y="0" on="1"/>
        <pt x="643" y="0" on="0"/>
        <pt x="655" y="40" on="1"/>
        <pt x="822" y="657" on="1"/>
        <pt x="827" y="670" on="0"/>
        <pt x="827" y="682" on="1"/>
        <pt x="827" y="693" on="0"/>
        <pt x="810" y="709" on="0"/>
        <pt x="797" y="709" on="1"/>
        <pt x="779" y="709" on="0"/>
        <pt x="751" y="688" on="0"/>
        <pt x="741" y="656" on="1"/>
        <pt x="610" y="113" on="1"/>
      </contour>
    </TTGlyph>
    <TTGlyph name="X" xMin="30" yMin="0" xMax="559" yMax="709">
      <contour>
        <pt x="456" y="684" on="0"/>
        <pt x="485" y="709" on="0"/>
        <pt x="503" y="709" on="1"/>
        <pt x="515" y="709" on="0"/>
        <pt x="533" y="696" on="0"/>
        <pt x="533" y="685" on="1"/>
        <pt x="533" y="670" on="0"/>
        <pt x="522" y="655" on="1"/>
        <pt x="354" y="382" on="1"/>
        <pt x="551" y="60" on="1"/>
        <pt x="559" y="47" on="0"/>
        <pt x="559" y="32" on="1"/>
        <pt x="559" y="19" on="0"/>
        <pt x="537" y="0" on="0"/>
        <pt x="520" y="0" on="1"/>
        <pt x="490" y="0" on="0"/>
        <pt x="455" y="24" on="0"/>
        <pt x="439" y="52" on="1"/>
        <pt x="289" y="307" on="1"/>
        <pt x="285" y="307" on="1"/>
        <pt x="128" y="54" on="1"/>
        <pt x="108" y="21" on="0"/>
        <pt x="77" y="0" on="0"/>
        <pt x="60" y="0" on="1"/>
        <pt x="45" y="0" on="0"/>
        <pt x="30" y="13" on="0"/>
        <pt x="30" y="22" on="1"/>
        <pt x="30" y="36" on="0"/>
        <pt x="41" y="54" on="1"/>
        <pt x="241" y="366" on="1"/>
        <pt x="70" y="651" on="1"/>
        <pt x="63" y="662" on="0"/>
        <pt x="63" y="675" on="1"/>
        <pt x="63" y="689" on="0"/>
        <pt x="86" y="709" on="0"/>
        <pt x="102" y="709" on="1"/>
        <pt x="151" y="709" on="0"/>
        <pt x="180" y="656" on="1"/>
        <pt x="305" y="434" on="1"/>
        <pt x="311" y="434" on="1"/>
        <pt x="439" y="656" on="1"/>
      </contour>
    </TTGlyph>
    <TTGlyph name="Y" xMin="18" yMin="0" xMax="533" yMax="709">
      <contour>
        <pt x="221" y="0" on="0"/>
        <pt x="221" y="50" on="1"/>
        <pt x="221" y="268" on="1"/>
        <pt x="24" y="649" on="1"/>
        <pt x="18" y="663" on="0"/>
        <pt x="18" y="674" on="1"/>
        <pt x="18" y="689" on="0"/>
        <pt x="38" y="709" on="0"/>
        <pt x="54" y="709" on="1"/>
        <pt x="80" y="709" on="0"/>
        <pt x="116" y="687" on="0"/>
        <pt x="131" y="657" on="1"/>
        <pt x="290" y="343" on="1"/>
        <pt x="294" y="343" on="1"/>
        <pt x="444" y="656" on="1"/>
        <pt x="469" y="709" on="0"/>
        <pt x="505" y="709" on="1"/>
        <pt x="519" y="709" on="0"/>
        <pt x="533" y="690" on="0"/>
        <pt x="533" y="676" on="1"/>
        <pt x="533" y="664" on="0"/>
        <pt x="528" y="654" on="1"/>
        <pt x="329" y="268" on="1"/>
        <pt x="329" y="60" on="1"/>
        <pt x="329" y="25" on="0"/>
        <pt x="300" y="0" on="0"/>
        <pt x="268" y="0" on="1"/>
      </contour>
    </TTGlyph>
    <TTGlyph name="Yacute" xMin="18" yMin="0" xMax="533" yMax="963">
      <component glyphName="Y" x="0" y="0" flags="0x0"/>
      <component glyphName="uniF6C9" x="-50" y="0" flags="0x0"/>
    </TTGlyph>
    <TTGlyph name="Ydieresis" xMin="18" yMin="0" xMax="533" yMax="921">
      <component glyphName="Y" x="0" y="0" flags="0x0"/>
      <component glyphName="uniF6CB" x="-32" y="0" flags="0x0"/>
    </TTGlyph>
    <TTGlyph name="Z" xMin="40" yMin="0" xMax="552" yMax="709">
      <contour>
        <pt x="63" y="0" on="0"/>
        <pt x="40" y="28" on="0"/>
        <pt x="40" y="49" on="1"/>
        <pt x="40" y="58" on="0"/>
        <pt x="44" y="79" on="0"/>
        <pt x="48" y="85" on="1"/>
        <pt x="431" y="656" on="1"/>
        <pt x="163" y="656" on="1"/>
        <pt x="163" y="600" on="1"/>
        <pt x="163" y="565" on="0"/>
        <pt x="134" y="535" on="0"/>
        <pt x="105" y="535" on="1"/>
        <pt x="83" y="535" on="0"/>
        <pt x="62" y="559" on="0"/>
        <pt x="62" y="585" on="1"/>
        <pt x="62" y="672" on="1"/>
        <pt x="62" y="693" on="0"/>
        <pt x="91" y="709" on="0"/>
        <pt x="122" y="709" on="1"/>
        <pt x="499" y="709" on="1"/>
        <pt x="521" y="709" on="0"/>
        <pt x="544" y="679" on="0"/>
        <pt x="544" y="658" on="1"/>
        <pt x="544" y="649" on="0"/>
        <pt x="540" y="629" on="0"/>
        <pt x="536" y="624" on="1"/>
        <pt x="144" y="53" on="1"/>
        <pt x="451" y="53" on="1"/>
        <pt x="451" y="109" on="1"/>
        <pt x="451" y="144" on="0"/>
        <pt x="480" y="174" on="0"/>
        <pt x="509" y="174" on="1"/>
        <pt x="531" y="174" on="0"/>
        <pt x="552" y="150" on="0"/>
        <pt x="552" y="124" on="1"/>
        <pt x="552" y="37" on="1"/>
        <pt x="552" y="16" on="0"/>
        <pt x="523" y="0" on="0"/>
        <pt x="492" y="0" on="1"/>
        <pt x="85" y="0" on="1"/>
      </contour>
    </TTGlyph>
    <TTGlyph name="Zcaron" xMin="40" yMin="0" xMax="552" yMax="919">
      <component glyphName="Z" x="0" y="0" flags="0x0"/>
      <component glyphName="uniF6CA" x="-48" y="0" flags="0x0"/>
    </TTGlyph>
    <TTGlyph name="a" xMin="43" yMin="0" xMax="473" yMax="502">
      <contour>
        <pt x="337" y="46" on="0"/>
        <pt x="252" y="0" on="0"/>
        <pt x="194" y="0" on="1"/>
        <pt x="120" y="0" on="0"/>
        <pt x="43" y="73" on="0"/>
        <pt x="43" y="135" on="1"/>
        <pt x="43" y="211" on="0"/>
        <pt x="156" y="310" on="0"/>
        <pt x="295" y="310" on="1"/>
        <pt x="368" y="310" on="1"/>
        <pt x="368" y="338" on="1"/>
        <pt x="368" y="406" on="0"/>
        <pt x="321" y="462" on="0"/>
        <pt x="268" y="462" on="1"/>
        <pt x="218" y="462" on="0"/>
        <pt x="180" y="420" on="1"/>
        <pt x="148" y="385" on="0"/>
        <pt x="119" y="385" on="1"/>
        <pt x="102" y="385" on="0"/>
        <pt x="84" y="404" on="0"/>
        <pt x="84" y="419" on="1"/>
        <pt x="84" y="438" on="0"/>
        <pt x="112" y="464" on="0"/>
        <pt x="139" y="475" on="1"/>
        <pt x="171" y="488" on="0"/>
        <pt x="252" y="502" on="0"/>
        <pt x="288" y="502" on="1"/>
        <pt x="360" y="502" on="0"/>
        <pt x="441" y="462" on="0"/>
        <pt x="473" y="384" on="0"/>
        <pt x="473" y="321" on="1"/>
        <pt x="473" y="47" on="1"/>
        <pt x="473" y="23" on="0"/>
        <pt x="457" y="0" on="0"/>
        <pt x="434" y="0" on="1"/>
        <pt x="401" y="0" on="0"/>
        <pt x="373" y="45" on="0"/>
        <pt x="373" y="94" on="1"/>
        <pt x="370" y="95" on="1"/>
      </contour>
      <contour>
        <pt x="147" y="268" on="0"/>
        <pt x="147" y="149" on="1"/>
        <pt x="147" y="67" on="0"/>
        <pt x="234" y="67" on="1"/>
        <pt x="261" y="67" on="0"/>
        <pt x="324" y="94" on="0"/>
        <pt x="369" y="147" on="0"/>
        <pt x="369" y="184" on="1"/>
        <pt x="369" y="268" on="1"/>
        <pt x="311" y="268" on="1"/>
      </contour>
    </TTGlyph>
    <TTGlyph name="aacute" xMin="43" yMin="0" xMax="473" yMax="749">
      <component glyphName="a" x="0" y="0" flags="0x0"/>
      <component glyphName="acute" x="1" y="0" flags="0x0"/>
    </TTGlyph>
    <TTGlyph name="accent" xMin="-292" yMin="570" xMax="-127" yMax="749">
      <contour>
        <pt x="-234" y="579" on="0"/>
        <pt x="-254" y="570" on="0"/>
        <pt x="-265" y="570" on="1"/>
        <pt x="-277" y="570" on="0"/>
        <pt x="-292" y="580" on="0"/>
        <pt x="-292" y="589" on="1"/>
        <pt x="-292" y="594" on="0"/>
        <pt x="-290" y="598" on="1"/>
        <pt x="-238" y="723" on="1"/>
        <pt x="-232" y="736" on="0"/>
        <pt x="-200" y="749" on="0"/>
        <pt x="-181" y="749" on="1"/>
        <pt x="-157" y="749" on="0"/>
        <pt x="-127" y="736" on="0"/>
        <pt x="-127" y="725" on="1"/>
        <pt x="-127" y="719" on="0"/>
        <pt x="-130" y="716" on="1"/>
        <pt x="-228" y="586" on="1"/>
      </contour>
    </TTGlyph>
    <TTGlyph name="acircumflex" xMin="43" yMin="0" xMax="473" yMax="711">
      <component glyphName="a" x="0" y="0" flags="0x0"/>
      <component glyphName="circumflex" x="-7" y="0" flags="0x0"/>
    </TTGlyph>
    <TTGlyph name="acute" xMin="230" yMin="570" xMax="395" yMax="749">
      <contour>
        <pt x="288" y="579" on="0"/>
        <pt x="268" y="570" on="0"/>
        <pt x="257" y="570" on="1"/>
        <pt x="245" y="570" on="0"/>
        <pt x="230" y="580" on="0"/>
        <pt x="230" y="589" on="1"/>
        <pt x="230" y="594" on="0"/>
        <pt x="232" y="598" on="1"/>
        <pt x="284" y="723" on="1"/>
        <pt x="290" y="736" on="0"/>
        <pt x="322" y="749" on="0"/>
        <pt x="341" y="749" on="1"/>
        <pt x="365" y="749" on="0"/>
        <pt x="395" y="736" on="0"/>
        <pt x="395" y="725" on="1"/>
        <pt x="395" y="719" on="0"/>
        <pt x="392" y="716" on="1"/>
        <pt x="294" y="586" on="1"/>
      </contour>
    </TTGlyph>
    <TTGlyph name="adieresis" xMin="43" yMin="0" xMax="473" yMax="689">
      <component glyphName="a" x="0" y="0" flags="0x0"/>
      <component glyphName="dieresis" x="0" y="0" flags="0x0"/>
    </TTGlyph>
    <TTGlyph name="ae" xMin="43" yMin="0" xMax="804" yMax="502">
      <contour>
        <pt x="764" y="137" on="0"/>
        <pt x="779" y="137" on="1"/>
        <pt x="788" y="137" on="0"/>
        <pt x="802" y="125" on="0"/>
        <pt x="802" y="116" on="1"/>
        <pt x="802" y="98" on="0"/>
        <pt x="789" y="82" on="1"/>
        <pt x="723" y="0" on="0"/>
        <pt x="605" y="0" on="1"/>
        <pt x="452" y="0" on="0"/>
        <pt x="396" y="110" on="1"/>
        <pt x="393" y="110" on="1"/>
        <pt x="369" y="62" on="0"/>
        <pt x="257" y="0" on="0"/>
        <pt x="204" y="0" on="1"/>
        <pt x="123" y="0" on="0"/>
        <pt x="43" y="72" on="0"/>
        <pt x="43" y="135" on="1"/>
        <pt x="43" y="211" on="0"/>
        <pt x="156" y="310" on="0"/>
        <pt x="295" y="310" on="1"/>
        <pt x="368" y="310" on="1"/>
        <pt x="368" y="338" on="1"/>
        <pt x="368" y="406" on="0"/>
        <pt x="321" y="462" on="0"/>
        <pt x="268" y="462" on="1"/>
        <pt x="218" y="462" on="0"/>
        <pt x="180" y="420" on="1"/>
        <pt x="148" y="385" on="0"/>
        <pt x="119" y="385" on="1"/>
        <pt x="102" y="385" on="0"/>
        <pt x="84" y="404" on="0"/>
        <pt x="84" y="419" on="1"/>
        <pt x="84" y="438" on="0"/>
        <pt x="112" y="464" on="0"/>
        <pt x="139" y="475" on="1"/>
        <pt x="171" y="488" on="0"/>
        <pt x="252" y="502" on="0"/>
        <pt x="288" y="502" on="1"/>
        <pt x="347" y="502" on="0"/>
        <pt x="421" y="475" on="0"/>
        <pt x="442" y="448" on="1"/>
        <pt x="501" y="502" on="0"/>
        <pt x="603" y="502" on="1"/>
        <pt x="694" y="502" on="0"/>
        <pt x="804" y="398" on="0"/>
        <pt x="804" y="301" on="1"/>
        <pt x="804" y="252" on="0"/>
        <pt x="747" y="252" on="1"/>
        <pt x="478" y="252" on="1"/>
        <pt x="477" y="244" on="0"/>
        <pt x="477" y="230" on="1"/>
        <pt x="477" y="144" on="0"/>
        <pt x="545" y="44" on="0"/>
        <pt x="616" y="44" on="1"/>
        <pt x="664" y="44" on="0"/>
        <pt x="720" y="84" on="0"/>
        <pt x="750" y="121" on="0"/>
        <pt x="754" y="126" on="1"/>
      </contour>
      <contour>
        <pt x="549" y="462" on="0"/>
        <pt x="487" y="380" on="0"/>
        <pt x="481" y="294" on="1"/>
        <pt x="668" y="294" on="1"/>
        <pt x="686" y="294" on="0"/>
        <pt x="702" y="307" on="0"/>
        <pt x="702" y="323" on="1"/>
        <pt x="702" y="390" on="0"/>
        <pt x="639" y="462" on="0"/>
        <pt x="597" y="462" on="1"/>
      </contour>
      <contour>
        <pt x="147" y="268" on="0"/>
        <pt x="147" y="149" on="1"/>
        <pt x="147" y="67" on="0"/>
        <pt x="234" y="67" on="1"/>
        <pt x="261" y="67" on="0"/>
        <pt x="324" y="94" on="0"/>
        <pt x="369" y="147" on="0"/>
        <pt x="369" y="184" on="1"/>
        <pt x="369" y="268" on="1"/>
        <pt x="311" y="268" on="1"/>
      </contour>
    </TTGlyph>
    <TTGlyph name="agrave" xMin="43" yMin="0" xMax="473" yMax="749">
      <component glyphName="a" x="0" y="0" flags="0x0"/>
      <component glyphName="grave" x="10" y="0" flags="0x0"/>
    </TTGlyph>
    <TTGlyph name="ampersand" xMin="55" yMin="0" xMax="603" yMax="709">
      <contour>
        <pt x="494" y="206" on="0"/>
        <pt x="512" y="251" on="1"/>
        <pt x="524" y="283" on="0"/>
        <pt x="549" y="283" on="1"/>
        <pt x="563" y="283" on="0"/>
        <pt x="580" y="270" on="0"/>
        <pt x="580" y="260" on="1"/>
        <pt x="580" y="246" on="0"/>
        <pt x="573" y="232" on="1"/>
        <pt x="558" y="198" on="0"/>
        <pt x="538" y="162" on="0"/>
        <pt x="522" y="142" on="1"/>
        <pt x="593" y="53" on="1"/>
        <pt x="603" y="40" on="0"/>
        <pt x="603" y="29" on="1"/>
        <pt x="603" y="16" on="0"/>
        <pt x="581" y="0" on="0"/>
        <pt x="561" y="0" on="1"/>
        <pt x="535" y="0" on="0"/>
        <pt x="505" y="13" on="0"/>
        <pt x="493" y="28" on="1"/>
        <pt x="459" y="71" on="1"/>
        <pt x="418" y="33" on="0"/>
        <pt x="333" y="0" on="0"/>
        <pt x="274" y="0" on="1"/>
        <pt x="173" y="0" on="0"/>
        <pt x="55" y="108" on="0"/>
        <pt x="55" y="197" on="1"/>
        <pt x="55" y="261" on="0"/>
        <pt x="124" y="352" on="0"/>
        <pt x="208" y="397" on="1"/>
        <pt x="181" y="434" on="0"/>
        <pt x="143" y="520" on="0"/>
        <pt x="143" y="552" on="1"/>
        <pt x="143" y="620" on="0"/>
        <pt x="233" y="709" on="0"/>
        <pt x="311" y="709" on="1"/>
        <pt x="384" y="709" on="0"/>
        <pt x="464" y="632" on="0"/>
        <pt x="464" y="577" on="1"/>
        <pt x="464" y="516" on="0"/>
        <pt x="395" y="436" on="0"/>
        <pt x="324" y="394" on="1"/>
        <pt x="480" y="185" on="1"/>
      </contour>
      <contour>
        <pt x="243" y="498" on="0"/>
        <pt x="290" y="434" on="1"/>
        <pt x="340" y="464" on="0"/>
        <pt x="387" y="529" on="0"/>
        <pt x="387" y="573" on="1"/>
        <pt x="387" y="610" on="0"/>
        <pt x="348" y="659" on="0"/>
        <pt x="319" y="659" on="1"/>
        <pt x="283" y="659" on="0"/>
        <pt x="243" y="603" on="0"/>
        <pt x="243" y="560" on="1"/>
      </contour>
      <contour>
        <pt x="326" y="52" on="0"/>
        <pt x="392" y="88" on="0"/>
        <pt x="422" y="119" on="1"/>
        <pt x="242" y="353" on="1"/>
        <pt x="205" y="325" on="0"/>
        <pt x="170" y="283" on="0"/>
        <pt x="157" y="231" on="0"/>
        <pt x="157" y="187" on="1"/>
        <pt x="157" y="153" on="0"/>
        <pt x="189" y="91" on="0"/>
        <pt x="246" y="52" on="0"/>
        <pt x="282" y="52" on="1"/>
      </contour>
    </TTGlyph>
    <TTGlyph name="aring" xMin="43" yMin="0" xMax="473" yMax="770">
      <component glyphName="a" x="0" y="0" flags="0x0"/>
      <component glyphName="ring" x="5" y="0" flags="0x0"/>
    </TTGlyph>
    <TTGlyph name="asciicircum" xMin="76" yMin="479" xMax="433" yMax="688">
      <contour>
        <pt x="167" y="492" on="0"/>
        <pt x="131" y="480" on="0"/>
        <pt x="114" y="480" on="1"/>
        <pt x="98" y="480" on="0"/>
        <pt x="76" y="489" on="0"/>
        <pt x="76" y="495" on="1"/>
        <pt x="76" y="498" on="0"/>
        <pt x="79" y="502" on="1"/>
        <pt x="222" y="671" on="1"/>
        <pt x="236" y="688" on="0"/>
        <pt x="254" y="688" on="1"/>
        <pt x="272" y="688" on="0"/>
        <pt x="287" y="671" on="1"/>
        <pt x="430" y="502" on="1"/>
        <pt x="433" y="498" on="0"/>
        <pt x="433" y="495" on="1"/>
        <pt x="433" y="488" on="0"/>
        <pt x="410" y="479" on="0"/>
        <pt x="395" y="479" on="1"/>
        <pt x="376" y="479" on="0"/>
        <pt x="341" y="491" on="0"/>
        <pt x="332" y="502" on="1"/>
        <pt x="255" y="594" on="1"/>
        <pt x="176" y="502" on="1"/>
      </contour>
    </TTGlyph>
    <TTGlyph name="asciitilde" xMin="90" yMin="255" xMax="641" yMax="441">
      <contour>
        <pt x="575" y="441" on="0"/>
        <pt x="607" y="441" on="1"/>
        <pt x="623" y="441" on="0"/>
        <pt x="641" y="426" on="0"/>
        <pt x="641" y="416" on="1"/>
        <pt x="641" y="409" on="0"/>
        <pt x="638" y="400" on="1"/>
        <pt x="607" y="320" on="0"/>
        <pt x="525" y="268" on="0"/>
        <pt x="477" y="268" on="1"/>
        <pt x="442" y="268" on="0"/>
        <pt x="377" y="293" on="0"/>
        <pt x="334" y="316" on="1"/>
        <pt x="303" y="332" on="0"/>
        <pt x="270" y="346" on="0"/>
        <pt x="255" y="346" on="1"/>
        <pt x="223" y="346" on="0"/>
        <pt x="183" y="315" on="0"/>
        <pt x="168" y="280" on="1"/>
        <pt x="163" y="269" on="0"/>
        <pt x="136" y="255" on="0"/>
        <pt x="123" y="255" on="1"/>
        <pt x="90" y="255" on="0"/>
        <pt x="90" y="281" on="1"/>
        <pt x="90" y="287" on="0"/>
        <pt x="94" y="303" on="1"/>
        <pt x="111" y="362" on="0"/>
        <pt x="197" y="425" on="0"/>
        <pt x="250" y="425" on="1"/>
        <pt x="284" y="425" on="0"/>
        <pt x="347" y="402" on="0"/>
        <pt x="391" y="380" on="1"/>
        <pt x="425" y="363" on="0"/>
        <pt x="465" y="347" on="0"/>
        <pt x="483" y="347" on="1"/>
        <pt x="510" y="347" on="0"/>
        <pt x="546" y="379" on="0"/>
        <pt x="563" y="415" on="1"/>
      </contour>
    </TTGlyph>
    <TTGlyph name="asterisk" xMin="50" yMin="335" xMax="400" yMax="709">
      <contour>
        <pt x="255" y="566" on="1"/>
        <pt x="356" y="637" on="1"/>
        <pt x="360" y="639" on="0"/>
        <pt x="362" y="639" on="1"/>
        <pt x="374" y="639" on="0"/>
        <pt x="400" y="603" on="0"/>
        <pt x="400" y="588" on="1"/>
        <pt x="400" y="579" on="0"/>
        <pt x="394" y="576" on="1"/>
        <pt x="275" y="522" on="1"/>
        <pt x="275" y="519" on="1"/>
        <pt x="390" y="467" on="1"/>
        <pt x="397" y="464" on="0"/>
        <pt x="397" y="454" on="1"/>
        <pt x="397" y="439" on="0"/>
        <pt x="372" y="403" on="0"/>
        <pt x="361" y="403" on="1"/>
        <pt x="359" y="403" on="0"/>
        <pt x="355" y="405" on="1"/>
        <pt x="256" y="479" on="1"/>
        <pt x="253" y="477" on="1"/>
        <pt x="263" y="352" on="1"/>
        <pt x="263" y="344" on="0"/>
        <pt x="241" y="335" on="0"/>
        <pt x="225" y="335" on="1"/>
        <pt x="209" y="335" on="0"/>
        <pt x="187" y="344" on="0"/>
        <pt x="187" y="352" on="1"/>
        <pt x="197" y="477" on="1"/>
        <pt x="194" y="479" on="1"/>
        <pt x="96" y="405" on="1"/>
        <pt x="92" y="403" on="0"/>
        <pt x="90" y="403" on="1"/>
        <pt x="79" y="403" on="0"/>
        <pt x="54" y="439" on="0"/>
        <pt x="54" y="454" on="1"/>
        <pt x="54" y="464" on="0"/>
        <pt x="61" y="467" on="1"/>
        <pt x="175" y="519" on="1"/>
        <pt x="175" y="522" on="1"/>
        <pt x="57" y="576" on="1"/>
        <pt x="50" y="579" on="0"/>
        <pt x="50" y="588" on="1"/>
        <pt x="50" y="603" on="0"/>
        <pt x="77" y="639" on="0"/>
        <pt x="89" y="639" on="1"/>
        <pt x="91" y="639" on="0"/>
        <pt x="95" y="637" on="1"/>
        <pt x="195" y="566" on="1"/>
        <pt x="198" y="568" on="1"/>
        <pt x="187" y="692" on="1"/>
        <pt x="187" y="700" on="0"/>
        <pt x="209" y="709" on="0"/>
        <pt x="225" y="709" on="1"/>
        <pt x="241" y="709" on="0"/>
        <pt x="263" y="700" on="0"/>
        <pt x="263" y="692" on="1"/>
        <pt x="252" y="568" on="1"/>
      </contour>
    </TTGlyph>
    <TTGlyph name="at" xMin="60" yMin="-48" xMax="785" yMax="693">
      <contour>
        <pt x="234" y="329" on="0"/>
        <pt x="295" y="448" on="0"/>
        <pt x="402" y="516" on="0"/>
        <pt x="468" y="516" on="1"/>
        <pt x="523" y="516" on="0"/>
        <pt x="595" y="491" on="0"/>
        <pt x="595" y="469" on="1"/>
        <pt x="595" y="466" on="0"/>
        <pt x="593" y="456" on="1"/>
        <pt x="546" y="240" on="1"/>
        <pt x="544" y="230" on="0"/>
        <pt x="544" y="226" on="1"/>
        <pt x="544" y="196" on="0"/>
        <pt x="577" y="196" on="1"/>
        <pt x="607" y="196" on="0"/>
        <pt x="670" y="239" on="0"/>
        <pt x="711" y="322" on="0"/>
        <pt x="711" y="377" on="1"/>
        <pt x="711" y="441" on="0"/>
        <pt x="630" y="553" on="0"/>
        <pt x="500" y="619" on="0"/>
        <pt x="430" y="619" on="1"/>
        <pt x="356" y="619" on="0"/>
        <pt x="219" y="542" on="0"/>
        <pt x="134" y="406" on="0"/>
        <pt x="134" y="323" on="1"/>
        <pt x="134" y="247" on="0"/>
        <pt x="209" y="110" on="0"/>
        <pt x="346" y="26" on="0"/>
        <pt x="435" y="26" on="1"/>
        <pt x="533" y="26" on="0"/>
        <pt x="615" y="83" on="1"/>
        <pt x="620" y="87" on="0"/>
        <pt x="627" y="87" on="1"/>
        <pt x="640" y="87" on="0"/>
        <pt x="662" y="60" on="0"/>
        <pt x="662" y="46" on="1"/>
        <pt x="662" y="33" on="0"/>
        <pt x="651" y="26" on="1"/>
        <pt x="594" y="-12" on="0"/>
        <pt x="498" y="-48" on="0"/>
        <pt x="430" y="-48" on="1"/>
        <pt x="344" y="-48" on="0"/>
        <pt x="172" y="40" on="0"/>
        <pt x="60" y="209" on="0"/>
        <pt x="60" y="323" on="1"/>
        <pt x="60" y="426" on="0"/>
        <pt x="162" y="595" on="0"/>
        <pt x="331" y="693" on="0"/>
        <pt x="427" y="693" on="1"/>
        <pt x="521" y="693" on="0"/>
        <pt x="686" y="613" on="0"/>
        <pt x="785" y="469" on="0"/>
        <pt x="785" y="377" on="1"/>
        <pt x="785" y="302" on="0"/>
        <pt x="723" y="191" on="0"/>
        <pt x="620" y="132" on="0"/>
        <pt x="562" y="132" on="1"/>
        <pt x="532" y="132" on="0"/>
        <pt x="478" y="154" on="0"/>
        <pt x="468" y="185" on="1"/>
        <pt x="431" y="137" on="0"/>
        <pt x="343" y="137" on="1"/>
        <pt x="292" y="137" on="0"/>
        <pt x="234" y="202" on="0"/>
        <pt x="234" y="256" on="1"/>
      </contour>
      <contour>
        <pt x="427" y="204" on="0"/>
        <pt x="457" y="237" on="1"/>
        <pt x="505" y="447" on="1"/>
        <pt x="488" y="457" on="0"/>
        <pt x="466" y="457" on="1"/>
        <pt x="431" y="457" on="0"/>
        <pt x="367" y="407" on="0"/>
        <pt x="326" y="321" on="0"/>
        <pt x="326" y="268" on="1"/>
        <pt x="326" y="235" on="0"/>
        <pt x="353" y="204" on="0"/>
        <pt x="376" y="204" on="1"/>
      </contour>
    </TTGlyph>
    <TTGlyph name="atilde" xMin="43" yMin="0" xMax="473" yMax="686">
      <component glyphName="a" x="0" y="0" flags="0x0"/>
      <component glyphName="tilde" x="0" y="0" flags="0x0"/>
    </TTGlyph>
    <TTGlyph name="b" xMin="80" yMin="0" xMax="513" yMax="760">
      <contour>
        <pt x="186" y="410" on="1"/>
        <pt x="237" y="502" on="0"/>
        <pt x="342" y="502" on="1"/>
        <pt x="419" y="502" on="0"/>
        <pt x="513" y="404" on="0"/>
        <pt x="513" y="276" on="1"/>
        <pt x="513" y="142" on="0"/>
        <pt x="387" y="0" on="0"/>
        <pt x="275" y="0" on="1"/>
        <pt x="206" y="0" on="0"/>
        <pt x="146" y="23" on="1"/>
        <pt x="115" y="34" on="0"/>
        <pt x="80" y="72" on="0"/>
        <pt x="80" y="110" on="1"/>
        <pt x="80" y="713" on="1"/>
        <pt x="80" y="737" on="0"/>
        <pt x="97" y="760" on="0"/>
        <pt x="120" y="760" on="1"/>
        <pt x="154" y="760" on="0"/>
        <pt x="184" y="722" on="0"/>
        <pt x="184" y="678" on="1"/>
        <pt x="184" y="410" on="1"/>
      </contour>
      <contour>
        <pt x="183" y="71" on="0"/>
        <pt x="232" y="40" on="0"/>
        <pt x="275" y="40" on="1"/>
        <pt x="405" y="40" on="0"/>
        <pt x="405" y="268" on="1"/>
        <pt x="405" y="365" on="0"/>
        <pt x="351" y="435" on="0"/>
        <pt x="302" y="435" on="1"/>
        <pt x="277" y="435" on="0"/>
        <pt x="221" y="402" on="0"/>
        <pt x="183" y="350" on="0"/>
        <pt x="183" y="322" on="1"/>
        <pt x="183" y="93" on="1"/>
      </contour>
    </TTGlyph>
    <TTGlyph name="backslash" xMin="50" yMin="-206" xMax="630" yMax="751">
      <contour>
        <pt x="573" y="-206" on="0"/>
        <pt x="581" y="-206" on="1"/>
        <pt x="596" y="-206" on="0"/>
        <pt x="630" y="-184" on="0"/>
        <pt x="630" y="-174" on="1"/>
        <pt x="630" y="-171" on="0"/>
        <pt x="629" y="-169" on="1"/>
        <pt x="113" y="745" on="1"/>
        <pt x="110" y="751" on="0"/>
        <pt x="100" y="751" on="1"/>
        <pt x="85" y="751" on="0"/>
        <pt x="50" y="727" on="0"/>
        <pt x="50" y="715" on="1"/>
        <pt x="50" y="711" on="0"/>
        <pt x="51" y="709" on="1"/>
        <pt x="568" y="-200" on="1"/>
      </contour>
    </TTGlyph>
    <TTGlyph name="bar" xMin="90" yMin="-60" xMax="172" yMax="740">
      <contour>
        <pt x="90" y="726" on="0"/>
        <pt x="114" y="740" on="0"/>
        <pt x="131" y="740" on="1"/>
        <pt x="147" y="740" on="0"/>
        <pt x="172" y="726" on="0"/>
        <pt x="172" y="715" on="1"/>
        <pt x="172" y="-35" on="1"/>
        <pt x="172" y="-47" on="0"/>
        <pt x="147" y="-60" on="0"/>
        <pt x="131" y="-60" on="1"/>
        <pt x="114" y="-60" on="0"/>
        <pt x="90" y="-47" on="0"/>
        <pt x="90" y="-35" on="1"/>
        <pt x="90" y="715" on="1"/>
      </contour>
    </TTGlyph>
    <TTGlyph name="braceleft" xMin="80" yMin="-178" xMax="364" yMax="740">
      <contour>
        <pt x="177" y="27" on="0"/>
        <pt x="179" y="59" on="1"/>
        <pt x="180" y="106" on="1"/>
        <pt x="180" y="158" on="0"/>
        <pt x="139" y="253" on="0"/>
        <pt x="96" y="253" on="1"/>
        <pt x="88" y="253" on="0"/>
        <pt x="80" y="270" on="0"/>
        <pt x="80" y="281" on="1"/>
        <pt x="80" y="293" on="0"/>
        <pt x="88" y="309" on="0"/>
        <pt x="96" y="309" on="1"/>
        <pt x="139" y="309" on="0"/>
        <pt x="180" y="404" on="0"/>
        <pt x="180" y="456" on="1"/>
        <pt x="179" y="503" on="1"/>
        <pt x="177" y="535" on="0"/>
        <pt x="177" y="564" on="1"/>
        <pt x="177" y="628" on="0"/>
        <pt x="244" y="740" on="0"/>
        <pt x="334" y="740" on="1"/>
        <pt x="348" y="740" on="0"/>
        <pt x="364" y="726" on="0"/>
        <pt x="364" y="715" on="1"/>
        <pt x="364" y="705" on="0"/>
        <pt x="351" y="688" on="0"/>
        <pt x="339" y="685" on="1"/>
        <pt x="271" y="669" on="0"/>
        <pt x="271" y="597" on="1"/>
        <pt x="271" y="565" on="0"/>
        <pt x="274" y="523" on="1"/>
        <pt x="276" y="462" on="1"/>
        <pt x="276" y="393" on="0"/>
        <pt x="237" y="305" on="0"/>
        <pt x="184" y="283" on="1"/>
        <pt x="184" y="279" on="1"/>
        <pt x="237" y="257" on="0"/>
        <pt x="276" y="169" on="0"/>
        <pt x="276" y="100" on="1"/>
        <pt x="274" y="39" on="1"/>
        <pt x="271" y="-3" on="0"/>
        <pt x="271" y="-35" on="1"/>
        <pt x="271" y="-107" on="0"/>
        <pt x="339" y="-123" on="1"/>
        <pt x="351" y="-126" on="0"/>
        <pt x="364" y="-143" on="0"/>
        <pt x="364" y="-153" on="1"/>
        <pt x="364" y="-164" on="0"/>
        <pt x="348" y="-178" on="0"/>
        <pt x="334" y="-178" on="1"/>
        <pt x="244" y="-178" on="0"/>
        <pt x="177" y="-66" on="0"/>
        <pt x="177" y="-2" on="1"/>
      </contour>
    </TTGlyph>
    <TTGlyph name="braceright" xMin="40" yMin="-178" xMax="324" yMax="740">
      <contour>
        <pt x="227" y="-66" on="0"/>
        <pt x="160" y="-178" on="0"/>
        <pt x="70" y="-178" on="1"/>
        <pt x="56" y="-178" on="0"/>
        <pt x="40" y="-164" on="0"/>
        <pt x="40" y="-153" on="1"/>
        <pt x="40" y="-143" on="0"/>
        <pt x="53" y="-126" on="0"/>
        <pt x="65" y="-123" on="1"/>
        <pt x="133" y="-107" on="0"/>
        <pt x="133" y="-35" on="1"/>
        <pt x="133" y="-3" on="0"/>
        <pt x="130" y="39" on="1"/>
        <pt x="128" y="100" on="1"/>
        <pt x="128" y="169" on="0"/>
        <pt x="167" y="257" on="0"/>
        <pt x="220" y="279" on="1"/>
        <pt x="220" y="283" on="1"/>
        <pt x="167" y="305" on="0"/>
        <pt x="128" y="393" on="0"/>
        <pt x="128" y="462" on="1"/>
        <pt x="130" y="523" on="1"/>
        <pt x="133" y="565" on="0"/>
        <pt x="133" y="597" on="1"/>
        <pt x="133" y="669" on="0"/>
        <pt x="65" y="685" on="1"/>
        <pt x="53" y="688" on="0"/>
        <pt x="40" y="705" on="0"/>
        <pt x="40" y="715" on="1"/>
        <pt x="40" y="726" on="0"/>
        <pt x="56" y="740" on="0"/>
        <pt x="70" y="740" on="1"/>
        <pt x="160" y="740" on="0"/>
        <pt x="227" y="628" on="0"/>
        <pt x="227" y="564" on="1"/>
        <pt x="227" y="535" on="0"/>
        <pt x="225" y="503" on="1"/>
        <pt x="224" y="456" on="1"/>
        <pt x="224" y="404" on="0"/>
        <pt x="265" y="309" on="0"/>
        <pt x="308" y="309" on="1"/>
        <pt x="316" y="309" on="0"/>
        <pt x="324" y="293" on="0"/>
        <pt x="324" y="281" on="1"/>
        <pt x="324" y="270" on="0"/>
        <pt x="316" y="253" on="0"/>
        <pt x="308" y="253" on="1"/>
        <pt x="265" y="253" on="0"/>
        <pt x="224" y="158" on="0"/>
        <pt x="224" y="106" on="1"/>
        <pt x="225" y="59" on="1"/>
        <pt x="227" y="27" on="0"/>
        <pt x="227" y="-2" on="1"/>
      </contour>
    </TTGlyph>
    <TTGlyph name="bracketleft" xMin="80" yMin="-178" xMax="303" yMax="730">
      <contour>
        <pt x="80" y="706" on="0"/>
        <pt x="103" y="730" on="0"/>
        <pt x="126" y="730" on="1"/>
        <pt x="286" y="730" on="1"/>
        <pt x="294" y="730" on="0"/>
        <pt x="303" y="709" on="0"/>
        <pt x="303" y="695" on="1"/>
        <pt x="303" y="681" on="0"/>
        <pt x="294" y="661" on="0"/>
        <pt x="286" y="661" on="1"/>
        <pt x="171" y="661" on="1"/>
        <pt x="171" y="-109" on="1"/>
        <pt x="286" y="-109" on="1"/>
        <pt x="294" y="-109" on="0"/>
        <pt x="303" y="-130" on="0"/>
        <pt x="303" y="-144" on="1"/>
        <pt x="303" y="-158" on="0"/>
        <pt x="294" y="-178" on="0"/>
        <pt x="286" y="-178" on="1"/>
        <pt x="126" y="-178" on="1"/>
        <pt x="103" y="-178" on="0"/>
        <pt x="80" y="-154" on="0"/>
        <pt x="80" y="-128" on="1"/>
        <pt x="80" y="680" on="1"/>
      </contour>
    </TTGlyph>
    <TTGlyph name="bracketright" xMin="35" yMin="-178" xMax="258" yMax="730">
      <contour>
        <pt x="258" y="-154" on="0"/>
        <pt x="235" y="-178" on="0"/>
        <pt x="212" y="-178" on="1"/>
        <pt x="52" y="-178" on="1"/>
        <pt x="44" y="-178" on="0"/>
        <pt x="35" y="-158" on="0"/>
        <pt x="35" y="-144" on="1"/>
        <pt x="35" y="-130" on="0"/>
        <pt x="44" y="-109" on="0"/>
        <pt x="52" y="-109" on="1"/>
        <pt x="167" y="-109" on="1"/>
        <pt x="167" y="661" on="1"/>
        <pt x="52" y="661" on="1"/>
        <pt x="44" y="661" on="0"/>
        <pt x="35" y="681" on="0"/>
        <pt x="35" y="695" on="1"/>
        <pt x="35" y="709" on="0"/>
        <pt x="44" y="730" on="0"/>
        <pt x="52" y="730" on="1"/>
        <pt x="212" y="730" on="1"/>
        <pt x="235" y="730" on="0"/>
        <pt x="258" y="706" on="0"/>
        <pt x="258" y="680" on="1"/>
        <pt x="258" y="-128" on="1"/>
      </contour>
    </TTGlyph>
    <TTGlyph name="breve" xMin="125" yMin="556" xMax="418" yMax="711">
      <contour>
        <pt x="418" y="629" on="0"/>
        <pt x="337" y="556" on="0"/>
        <pt x="271" y="556" on="1"/>
        <pt x="206" y="556" on="0"/>
        <pt x="125" y="629" on="0"/>
        <pt x="125" y="683" on="1"/>
        <pt x="125" y="695" on="0"/>
        <pt x="139" y="711" on="0"/>
        <pt x="152" y="711" on="1"/>
        <pt x="164" y="711" on="0"/>
        <pt x="183" y="696" on="0"/>
        <pt x="188" y="684" on="1"/>
        <pt x="201" y="648" on="0"/>
        <pt x="241" y="622" on="0"/>
        <pt x="271" y="622" on="1"/>
        <pt x="301" y="622" on="0"/>
        <pt x="342" y="648" on="0"/>
        <pt x="355" y="684" on="1"/>
        <pt x="360" y="696" on="0"/>
        <pt x="379" y="711" on="0"/>
        <pt x="391" y="711" on="1"/>
        <pt x="404" y="711" on="0"/>
        <pt x="418" y="695" on="0"/>
        <pt x="418" y="683" on="1"/>
      </contour>
    </TTGlyph>
    <TTGlyph name="brokenbar" xMin="90" yMin="-60" xMax="172" yMax="740">
      <contour>
        <pt x="90" y="726" on="0"/>
        <pt x="114" y="740" on="0"/>
        <pt x="131" y="740" on="1"/>
        <pt x="147" y="740" on="0"/>
        <pt x="172" y="726" on="0"/>
        <pt x="172" y="715" on="1"/>
        <pt x="172" y="429" on="1"/>
        <pt x="172" y="417" on="0"/>
        <pt x="147" y="404" on="0"/>
        <pt x="131" y="404" on="1"/>
        <pt x="114" y="404" on="0"/>
        <pt x="90" y="417" on="0"/>
        <pt x="90" y="429" on="1"/>
        <pt x="90" y="715" on="1"/>
      </contour>
      <contour>
        <pt x="90" y="262" on="0"/>
        <pt x="114" y="276" on="0"/>
        <pt x="131" y="276" on="1"/>
        <pt x="147" y="276" on="0"/>
        <pt x="172" y="262" on="0"/>
        <pt x="172" y="251" on="1"/>
        <pt x="172" y="-35" on="1"/>
        <pt x="172" y="-47" on="0"/>
        <pt x="147" y="-60" on="0"/>
        <pt x="131" y="-60" on="1"/>
        <pt x="114" y="-60" on="0"/>
        <pt x="90" y="-47" on="0"/>
        <pt x="90" y="-35" on="1"/>
        <pt x="90" y="251" on="1"/>
      </contour>
    </TTGlyph>
    <TTGlyph name="bullet" xMin="90" yMin="236" xMax="324" yMax="470">
      <contour>
        <pt x="90" y="401" on="0"/>
        <pt x="159" y="470" on="0"/>
        <pt x="207" y="470" on="1"/>
        <pt x="255" y="470" on="0"/>
        <pt x="324" y="401" on="0"/>
        <pt x="324" y="353" on="1"/>
        <pt x="324" y="305" on="0"/>
        <pt x="255" y="236" on="0"/>
        <pt x="207" y="236" on="1"/>
        <pt x="159" y="236" on="0"/>
        <pt x="90" y="305" on="0"/>
        <pt x="90" y="353" on="1"/>
      </contour>
    </TTGlyph>
    <TTGlyph name="c" xMin="50" yMin="0" xMax="470" yMax="502">
      <contour>
        <pt x="432" y="137" on="0"/>
        <pt x="447" y="137" on="1"/>
        <pt x="456" y="137" on="0"/>
        <pt x="470" y="125" on="0"/>
        <pt x="470" y="116" on="1"/>
        <pt x="470" y="98" on="0"/>
        <pt x="457" y="82" on="1"/>
        <pt x="391" y="0" on="0"/>
        <pt x="276" y="0" on="1"/>
        <pt x="157" y="0" on="0"/>
        <pt x="50" y="134" on="0"/>
        <pt x="50" y="250" on="1"/>
        <pt x="50" y="381" on="0"/>
        <pt x="180" y="502" on="0"/>
        <pt x="287" y="502" on="1"/>
        <pt x="353" y="502" on="0"/>
        <pt x="404" y="472" on="1"/>
        <pt x="459" y="439" on="0"/>
        <pt x="459" y="395" on="1"/>
        <pt x="459" y="377" on="0"/>
        <pt x="433" y="356" on="0"/>
        <pt x="417" y="356" on="1"/>
        <pt x="395" y="356" on="0"/>
        <pt x="370" y="377" on="0"/>
        <pt x="363" y="398" on="1"/>
        <pt x="353" y="427" on="0"/>
        <pt x="318" y="462" on="0"/>
        <pt x="285" y="462" on="1"/>
        <pt x="220" y="462" on="0"/>
        <pt x="158" y="367" on="0"/>
        <pt x="158" y="250" on="1"/>
        <pt x="158" y="147" on="0"/>
        <pt x="217" y="44" on="0"/>
        <pt x="287" y="44" on="1"/>
        <pt x="334" y="44" on="0"/>
        <pt x="388" y="82" on="0"/>
        <pt x="418" y="121" on="0"/>
        <pt x="422" y="126" on="1"/>
      </contour>
    </TTGlyph>
    <TTGlyph name="caron" xMin="125" yMin="557" xMax="435" yMax="711">
      <contour>
        <pt x="332" y="681" on="1"/>
        <pt x="361" y="711" on="0"/>
        <pt x="397" y="711" on="1"/>
        <pt x="413" y="711" on="0"/>
        <pt x="435" y="698" on="0"/>
        <pt x="435" y="690" on="1"/>
        <pt x="435" y="685" on="0"/>
        <pt x="431" y="681" on="1"/>
        <pt x="329" y="575" on="1"/>
        <pt x="313" y="557" on="0"/>
        <pt x="280" y="557" on="1"/>
        <pt x="248" y="557" on="0"/>
        <pt x="231" y="575" on="1"/>
        <pt x="129" y="681" on="1"/>
        <pt x="125" y="685" on="0"/>
        <pt x="125" y="690" on="1"/>
        <pt x="125" y="698" on="0"/>
        <pt x="147" y="711" on="0"/>
        <pt x="163" y="711" on="1"/>
        <pt x="199" y="711" on="0"/>
        <pt x="228" y="681" on="1"/>
        <pt x="280" y="629" on="1"/>
      </contour>
    </TTGlyph>
    <TTGlyph name="ccedilla" xMin="50" yMin="-198" xMax="470" yMax="502">
      <contour>
        <pt x="432" y="137" on="0"/>
        <pt x="447" y="137" on="1"/>
        <pt x="456" y="137" on="0"/>
        <pt x="470" y="125" on="0"/>
        <pt x="470" y="116" on="1"/>
        <pt x="470" y="98" on="0"/>
        <pt x="457" y="82" on="1"/>
        <pt x="396" y="5" on="0"/>
        <pt x="291" y="0" on="1"/>
        <pt x="291" y="-38" on="1"/>
        <pt x="392" y="-38" on="0"/>
        <pt x="392" y="-112" on="1"/>
        <pt x="392" y="-152" on="0"/>
        <pt x="330" y="-198" on="0"/>
        <pt x="281" y="-198" on="1"/>
        <pt x="250" y="-198" on="0"/>
        <pt x="190" y="-176" on="0"/>
        <pt x="190" y="-157" on="1"/>
        <pt x="190" y="-149" on="0"/>
        <pt x="202" y="-138" on="0"/>
        <pt x="211" y="-138" on="1"/>
        <pt x="219" y="-138" on="0"/>
        <pt x="234" y="-143" on="1"/>
        <pt x="256" y="-149" on="0"/>
        <pt x="269" y="-149" on="1"/>
        <pt x="293" y="-149" on="0"/>
        <pt x="316" y="-129" on="0"/>
        <pt x="316" y="-115" on="1"/>
        <pt x="316" y="-90" on="0"/>
        <pt x="280" y="-75" on="0"/>
        <pt x="239" y="-75" on="1"/>
        <pt x="239" y="2" on="1"/>
        <pt x="140" y="13" on="0"/>
        <pt x="50" y="144" on="0"/>
        <pt x="50" y="250" on="1"/>
        <pt x="50" y="381" on="0"/>
        <pt x="180" y="502" on="0"/>
        <pt x="287" y="502" on="1"/>
        <pt x="353" y="502" on="0"/>
        <pt x="404" y="472" on="1"/>
        <pt x="459" y="439" on="0"/>
        <pt x="459" y="395" on="1"/>
        <pt x="459" y="377" on="0"/>
        <pt x="433" y="356" on="0"/>
        <pt x="417" y="356" on="1"/>
        <pt x="395" y="356" on="0"/>
        <pt x="370" y="377" on="0"/>
        <pt x="363" y="398" on="1"/>
        <pt x="353" y="427" on="0"/>
        <pt x="318" y="462" on="0"/>
        <pt x="285" y="462" on="1"/>
        <pt x="220" y="462" on="0"/>
        <pt x="158" y="367" on="0"/>
        <pt x="158" y="250" on="1"/>
        <pt x="158" y="147" on="0"/>
        <pt x="217" y="44" on="0"/>
        <pt x="287" y="44" on="1"/>
        <pt x="334" y="44" on="0"/>
        <pt x="388" y="82" on="0"/>
        <pt x="418" y="121" on="0"/>
        <pt x="422" y="126" on="1"/>
      </contour>
    </TTGlyph>
    <TTGlyph name="cedilla" xMin="195" yMin="-198" xMax="397" yMax="10">
      <contour>
        <pt x="397" y="-38" on="0"/>
        <pt x="397" y="-112" on="1"/>
        <pt x="397" y="-152" on="0"/>
        <pt x="335" y="-198" on="0"/>
        <pt x="286" y="-198" on="1"/>
        <pt x="255" y="-198" on="0"/>
        <pt x="195" y="-176" on="0"/>
        <pt x="195" y="-157" on="1"/>
        <pt x="195" y="-149" on="0"/>
        <pt x="207" y="-138" on="0"/>
        <pt x="216" y="-138" on="1"/>
        <pt x="224" y="-138" on="0"/>
        <pt x="239" y="-143" on="1"/>
        <pt x="261" y="-149" on="0"/>
        <pt x="274" y="-149" on="1"/>
        <pt x="298" y="-149" on="0"/>
        <pt x="321" y="-129" on="0"/>
        <pt x="321" y="-115" on="1"/>
        <pt x="321" y="-90" on="0"/>
        <pt x="285" y="-75" on="0"/>
        <pt x="244" y="-75" on="1"/>
        <pt x="244" y="10" on="1"/>
        <pt x="296" y="10" on="1"/>
        <pt x="296" y="-38" on="1"/>
      </contour>
    </TTGlyph>
    <TTGlyph name="cent" xMin="60" yMin="-103" xMax="480" yMax="592">
      <contour>
        <pt x="442" y="137" on="0"/>
        <pt x="457" y="137" on="1"/>
        <pt x="466" y="137" on="0"/>
        <pt x="480" y="125" on="0"/>
        <pt x="480" y="116" on="1"/>
        <pt x="480" y="98" on="0"/>
        <pt x="467" y="82" on="1"/>
        <pt x="408" y="9" on="0"/>
        <pt x="314" y="1" on="1"/>
        <pt x="314" y="-87" on="1"/>
        <pt x="314" y="-95" on="0"/>
        <pt x="295" y="-103" on="0"/>
        <pt x="282" y="-103" on="1"/>
        <pt x="269" y="-103" on="0"/>
        <pt x="250" y="-95" on="0"/>
        <pt x="250" y="-87" on="1"/>
        <pt x="250" y="2" on="1"/>
        <pt x="150" y="12" on="0"/>
        <pt x="60" y="143" on="0"/>
        <pt x="60" y="250" on="1"/>
        <pt x="60" y="366" on="0"/>
        <pt x="163" y="487" on="0"/>
        <pt x="250" y="499" on="1"/>
        <pt x="250" y="576" on="1"/>
        <pt x="250" y="583" on="0"/>
        <pt x="269" y="592" on="0"/>
        <pt x="282" y="592" on="1"/>
        <pt x="295" y="592" on="0"/>
        <pt x="314" y="583" on="0"/>
        <pt x="314" y="576" on="1"/>
        <pt x="314" y="501" on="1"/>
        <pt x="368" y="498" on="0"/>
        <pt x="414" y="472" on="1"/>
        <pt x="469" y="439" on="0"/>
        <pt x="469" y="395" on="1"/>
        <pt x="469" y="377" on="0"/>
        <pt x="443" y="356" on="0"/>
        <pt x="427" y="356" on="1"/>
        <pt x="405" y="356" on="0"/>
        <pt x="380" y="377" on="0"/>
        <pt x="373" y="398" on="1"/>
        <pt x="364" y="423" on="0"/>
        <pt x="338" y="455" on="0"/>
        <pt x="314" y="460" on="1"/>
        <pt x="314" y="45" on="1"/>
        <pt x="353" y="49" on="0"/>
        <pt x="399" y="84" on="0"/>
        <pt x="427" y="120" on="0"/>
        <pt x="432" y="126" on="1"/>
      </contour>
      <contour>
        <pt x="168" y="166" on="0"/>
        <pt x="206" y="67" on="0"/>
        <pt x="250" y="51" on="1"/>
        <pt x="250" y="455" on="1"/>
        <pt x="208" y="441" on="0"/>
        <pt x="168" y="345" on="0"/>
        <pt x="168" y="250" on="1"/>
      </contour>
    </TTGlyph>
    <TTGlyph name="circumflex" xMin="125" yMin="557" xMax="435" yMax="711">
      <contour>
        <pt x="228" y="587" on="1"/>
        <pt x="199" y="557" on="0"/>
        <pt x="163" y="557" on="1"/>
        <pt x="147" y="557" on="0"/>
        <pt x="125" y="570" on="0"/>
        <pt x="125" y="578" on="1"/>
        <pt x="125" y="583" on="0"/>
        <pt x="129" y="587" on="1"/>
        <pt x="231" y="693" on="1"/>
        <pt x="248" y="711" on="0"/>
        <pt x="280" y="711" on="1"/>
        <pt x="313" y="711" on="0"/>
        <pt x="329" y="693" on="1"/>
        <pt x="431" y="587" on="1"/>
        <pt x="435" y="583" on="0"/>
        <pt x="435" y="578" on="1"/>
        <pt x="435" y="570" on="0"/>
        <pt x="413" y="557" on="0"/>
        <pt x="397" y="557" on="1"/>
        <pt x="361" y="557" on="0"/>
        <pt x="332" y="587" on="1"/>
        <pt x="280" y="639" on="1"/>
      </contour>
    </TTGlyph>
    <TTGlyph name="colon" xMin="60" yMin="0" xMax="212" yMax="495">
      <contour>
        <pt x="60" y="451" on="0"/>
        <pt x="104" y="495" on="0"/>
        <pt x="136" y="495" on="1"/>
        <pt x="168" y="495" on="0"/>
        <pt x="212" y="450" on="0"/>
        <pt x="212" y="416" on="1"/>
        <pt x="212" y="383" on="0"/>
        <pt x="168" y="339" on="0"/>
        <pt x="136" y="339" on="1"/>
        <pt x="104" y="339" on="0"/>
        <pt x="60" y="383" on="0"/>
        <pt x="60" y="416" on="1"/>
      </contour>
      <contour>
        <pt x="60" y="112" on="0"/>
        <pt x="104" y="156" on="0"/>
        <pt x="136" y="156" on="1"/>
        <pt x="168" y="156" on="0"/>
        <pt x="212" y="111" on="0"/>
        <pt x="212" y="77" on="1"/>
        <pt x="212" y="44" on="0"/>
        <pt x="168" y="0" on="0"/>
        <pt x="136" y="0" on="1"/>
        <pt x="104" y="0" on="0"/>
        <pt x="60" y="44" on="0"/>
        <pt x="60" y="77" on="1"/>
      </contour>
    </TTGlyph>
    <TTGlyph name="comma" xMin="60" yMin="-103" xMax="212" yMax="156">
      <contour>
        <pt x="87" y="18" on="0"/>
        <pt x="60" y="60" on="0"/>
        <pt x="60" y="84" on="1"/>
        <pt x="60" y="119" on="0"/>
        <pt x="109" y="156" on="0"/>
        <pt x="139" y="156" on="1"/>
        <pt x="167" y="156" on="0"/>
        <pt x="212" y="121" on="0"/>
        <pt x="212" y="89" on="1"/>
        <pt x="212" y="70" on="0"/>
        <pt x="203" y="38" on="0"/>
        <pt x="191" y="13" on="1"/>
        <pt x="149" y="-76" on="1"/>
        <pt x="137" y="-103" on="0"/>
        <pt x="112" y="-103" on="1"/>
        <pt x="99" y="-103" on="0"/>
        <pt x="82" y="-88" on="0"/>
        <pt x="82" y="-77" on="1"/>
        <pt x="82" y="-74" on="0"/>
        <pt x="84" y="-68" on="1"/>
        <pt x="122" y="12" on="1"/>
      </contour>
    </TTGlyph>
    <TTGlyph name="copyright" xMin="50" yMin="-9" xMax="790" yMax="719">
      <contour>
        <pt x="50" y="455" on="0"/>
        <pt x="150" y="622" on="0"/>
        <pt x="319" y="719" on="0"/>
        <pt x="420" y="719" on="1"/>
        <pt x="521" y="719" on="0"/>
        <pt x="691" y="622" on="0"/>
        <pt x="790" y="455" on="0"/>
        <pt x="790" y="355" on="1"/>
        <pt x="790" y="255" on="0"/>
        <pt x="691" y="88" on="0"/>
        <pt x="521" y="-9" on="0"/>
        <pt x="420" y="-9" on="1"/>
        <pt x="319" y="-9" on="0"/>
        <pt x="150" y="88" on="0"/>
        <pt x="50" y="255" on="0"/>
        <pt x="50" y="355" on="1"/>
      </contour>
      <contour>
        <pt x="114" y="271" on="0"/>
        <pt x="196" y="128" on="0"/>
        <pt x="337" y="43" on="0"/>
        <pt x="420" y="43" on="1"/>
        <pt x="503" y="43" on="0"/>
        <pt x="644" y="128" on="0"/>
        <pt x="726" y="271" on="0"/>
        <pt x="726" y="355" on="1"/>
        <pt x="726" y="439" on="0"/>
        <pt x="644" y="582" on="0"/>
        <pt x="503" y="667" on="0"/>
        <pt x="420" y="667" on="1"/>
        <pt x="337" y="667" on="0"/>
        <pt x="196" y="582" on="0"/>
        <pt x="114" y="439" on="0"/>
        <pt x="114" y="355" on="1"/>
      </contour>
      <contour>
        <pt x="474" y="429" on="0"/>
        <pt x="474" y="475" on="1"/>
        <pt x="474" y="511" on="1"/>
        <pt x="462" y="515" on="0"/>
        <pt x="448" y="515" on="1"/>
        <pt x="347" y="515" on="0"/>
        <pt x="347" y="353" on="1"/>
        <pt x="347" y="265" on="0"/>
        <pt x="401" y="197" on="0"/>
        <pt x="445" y="197" on="1"/>
        <pt x="465" y="197" on="0"/>
        <pt x="494" y="205" on="0"/>
        <pt x="510" y="213" on="1"/>
        <pt x="512" y="214" on="0"/>
        <pt x="537" y="227" on="0"/>
        <pt x="547" y="227" on="1"/>
        <pt x="558" y="227" on="0"/>
        <pt x="571" y="216" on="0"/>
        <pt x="571" y="207" on="1"/>
        <pt x="571" y="189" on="0"/>
        <pt x="547" y="179" on="1"/>
        <pt x="522" y="168" on="0"/>
        <pt x="474" y="156" on="0"/>
        <pt x="438" y="156" on="1"/>
        <pt x="344" y="156" on="0"/>
        <pt x="248" y="257" on="0"/>
        <pt x="248" y="354" on="1"/>
        <pt x="248" y="458" on="0"/>
        <pt x="352" y="553" on="0"/>
        <pt x="441" y="553" on="1"/>
        <pt x="488" y="553" on="0"/>
        <pt x="564" y="531" on="0"/>
        <pt x="564" y="507" on="1"/>
        <pt x="564" y="467" on="1"/>
        <pt x="564" y="429" on="0"/>
        <pt x="523" y="429" on="1"/>
      </contour>
    </TTGlyph>
    <TTGlyph name="currency" xMin="9" yMin="88" xMax="521" yMax="600">
      <contour>
        <pt x="469" y="600" on="0"/>
        <pt x="476" y="600" on="1"/>
        <pt x="490" y="600" on="0"/>
        <pt x="521" y="569" on="0"/>
        <pt x="521" y="555" on="1"/>
        <pt x="521" y="548" on="0"/>
        <pt x="516" y="543" on="1"/>
        <pt x="449" y="476" on="1"/>
        <pt x="491" y="415" on="0"/>
        <pt x="491" y="344" on="1"/>
        <pt x="491" y="270" on="0"/>
        <pt x="448" y="213" on="1"/>
        <pt x="515" y="146" on="1"/>
        <pt x="520" y="141" on="0"/>
        <pt x="520" y="133" on="1"/>
        <pt x="520" y="119" on="0"/>
        <pt x="490" y="89" on="0"/>
        <pt x="476" y="89" on="1"/>
        <pt x="467" y="89" on="0"/>
        <pt x="463" y="94" on="1"/>
        <pt x="396" y="161" on="1"/>
        <pt x="369" y="144" on="0"/>
        <pt x="307" y="118" on="0"/>
        <pt x="265" y="118" on="1"/>
        <pt x="233" y="118" on="0"/>
        <pt x="164" y="140" on="0"/>
        <pt x="133" y="160" on="1"/>
        <pt x="66" y="93" on="1"/>
        <pt x="61" y="88" on="0"/>
        <pt x="54" y="88" on="1"/>
        <pt x="40" y="88" on="0"/>
        <pt x="9" y="119" on="0"/>
        <pt x="9" y="133" on="1"/>
        <pt x="9" y="140" on="0"/>
        <pt x="14" y="145" on="1"/>
        <pt x="81" y="212" on="1"/>
        <pt x="66" y="234" on="0"/>
        <pt x="40" y="302" on="0"/>
        <pt x="40" y="344" on="1"/>
        <pt x="40" y="413" on="0"/>
        <pt x="81" y="476" on="1"/>
        <pt x="15" y="542" on="1"/>
        <pt x="10" y="546" on="0"/>
        <pt x="10" y="555" on="1"/>
        <pt x="10" y="569" on="0"/>
        <pt x="40" y="599" on="0"/>
        <pt x="54" y="599" on="1"/>
        <pt x="62" y="599" on="0"/>
        <pt x="67" y="594" on="1"/>
        <pt x="134" y="527" on="1"/>
        <pt x="160" y="544" on="0"/>
        <pt x="222" y="569" on="0"/>
        <pt x="265" y="569" on="1"/>
        <pt x="331" y="569" on="0"/>
        <pt x="396" y="527" on="1"/>
        <pt x="464" y="595" on="1"/>
      </contour>
      <contour>
        <pt x="223" y="498" on="0"/>
        <pt x="153" y="456" on="0"/>
        <pt x="111" y="385" on="0"/>
        <pt x="111" y="344" on="1"/>
        <pt x="111" y="302" on="0"/>
        <pt x="153" y="231" on="0"/>
        <pt x="224" y="189" on="0"/>
        <pt x="265" y="189" on="1"/>
        <pt x="307" y="189" on="0"/>
        <pt x="378" y="231" on="0"/>
        <pt x="420" y="302" on="0"/>
        <pt x="420" y="344" on="1"/>
        <pt x="420" y="385" on="0"/>
        <pt x="378" y="456" on="0"/>
        <pt x="307" y="498" on="0"/>
        <pt x="265" y="498" on="1"/>
      </contour>
    </TTGlyph>
    <TTGlyph name="d" xMin="50" yMin="0" xMax="483" yMax="760">
      <contour>
        <pt x="337" y="502" on="0"/>
        <pt x="379" y="485" on="1"/>
        <pt x="379" y="678" on="1"/>
        <pt x="379" y="722" on="0"/>
        <pt x="409" y="760" on="0"/>
        <pt x="443" y="760" on="1"/>
        <pt x="466" y="760" on="0"/>
        <pt x="483" y="737" on="0"/>
        <pt x="483" y="713" on="1"/>
        <pt x="483" y="47" on="1"/>
        <pt x="483" y="23" on="0"/>
        <pt x="467" y="0" on="0"/>
        <pt x="444" y="0" on="1"/>
        <pt x="383" y="0" on="0"/>
        <pt x="383" y="104" on="1"/>
        <pt x="380" y="105" on="1"/>
        <pt x="351" y="57" on="0"/>
        <pt x="277" y="0" on="0"/>
        <pt x="221" y="0" on="1"/>
        <pt x="148" y="0" on="0"/>
        <pt x="50" y="109" on="0"/>
        <pt x="50" y="229" on="1"/>
        <pt x="50" y="369" on="0"/>
        <pt x="174" y="502" on="0"/>
        <pt x="288" y="502" on="1"/>
      </contour>
      <contour>
        <pt x="158" y="147" on="0"/>
        <pt x="215" y="67" on="0"/>
        <pt x="261" y="67" on="1"/>
        <pt x="288" y="67" on="0"/>
        <pt x="344" y="106" on="0"/>
        <pt x="380" y="165" on="0"/>
        <pt x="380" y="194" on="1"/>
        <pt x="380" y="403" on="1"/>
        <pt x="380" y="425" on="0"/>
        <pt x="330" y="462" on="0"/>
        <pt x="288" y="462" on="1"/>
        <pt x="224" y="462" on="0"/>
        <pt x="158" y="363" on="0"/>
        <pt x="158" y="237" on="1"/>
      </contour>
    </TTGlyph>
    <TTGlyph name="dagger" xMin="40" yMin="-92" xMax="424" yMax="710">
      <contour>
        <pt x="55" y="393" on="0"/>
        <pt x="40" y="417" on="0"/>
        <pt x="40" y="433" on="1"/>
        <pt x="40" y="449" on="0"/>
        <pt x="55" y="473" on="0"/>
        <pt x="68" y="473" on="1"/>
        <pt x="188" y="473" on="1"/>
        <pt x="188" y="681" on="1"/>
        <pt x="188" y="695" on="0"/>
        <pt x="214" y="710" on="0"/>
        <pt x="232" y="710" on="1"/>
        <pt x="250" y="710" on="0"/>
        <pt x="276" y="695" on="0"/>
        <pt x="276" y="681" on="1"/>
        <pt x="276" y="473" on="1"/>
        <pt x="396" y="473" on="1"/>
        <pt x="409" y="473" on="0"/>
        <pt x="424" y="449" on="0"/>
        <pt x="424" y="433" on="1"/>
        <pt x="424" y="417" on="0"/>
        <pt x="409" y="393" on="0"/>
        <pt x="396" y="393" on="1"/>
        <pt x="276" y="393" on="1"/>
        <pt x="276" y="-63" on="1"/>
        <pt x="276" y="-77" on="0"/>
        <pt x="250" y="-92" on="0"/>
        <pt x="232" y="-92" on="1"/>
        <pt x="214" y="-92" on="0"/>
        <pt x="188" y="-77" on="0"/>
        <pt x="188" y="-63" on="1"/>
        <pt x="188" y="393" on="1"/>
        <pt x="68" y="393" on="1"/>
      </contour>
    </TTGlyph>
    <TTGlyph name="daggerdbl" xMin="40" yMin="-92" xMax="424" yMax="710">
      <contour>
        <pt x="55" y="393" on="0"/>
        <pt x="40" y="417" on="0"/>
        <pt x="40" y="433" on="1"/>
        <pt x="40" y="449" on="0"/>
        <pt x="55" y="473" on="0"/>
        <pt x="68" y="473" on="1"/>
        <pt x="188" y="473" on="1"/>
        <pt x="188" y="681" on="1"/>
        <pt x="188" y="695" on="0"/>
        <pt x="214" y="710" on="0"/>
        <pt x="232" y="710" on="1"/>
        <pt x="250" y="710" on="0"/>
        <pt x="276" y="695" on="0"/>
        <pt x="276" y="681" on="1"/>
        <pt x="276" y="473" on="1"/>
        <pt x="396" y="473" on="1"/>
        <pt x="409" y="473" on="0"/>
        <pt x="424" y="449" on="0"/>
        <pt x="424" y="433" on="1"/>
        <pt x="424" y="417" on="0"/>
        <pt x="409" y="393" on="0"/>
        <pt x="396" y="393" on="1"/>
        <pt x="276" y="393" on="1"/>
        <pt x="276" y="225" on="1"/>
        <pt x="396" y="225" on="1"/>
        <pt x="409" y="225" on="0"/>
        <pt x="424" y="201" on="0"/>
        <pt x="424" y="185" on="1"/>
        <pt x="424" y="169" on="0"/>
        <pt x="409" y="145" on="0"/>
        <pt x="396" y="145" on="1"/>
        <pt x="276" y="145" on="1"/>
        <pt x="276" y="-63" on="1"/>
        <pt x="276" y="-77" on="0"/>
        <pt x="250" y="-92" on="0"/>
        <pt x="232" y="-92" on="1"/>
        <pt x="214" y="-92" on="0"/>
        <pt x="188" y="-77" on="0"/>
        <pt x="188" y="-63" on="1"/>
        <pt x="188" y="145" on="1"/>
        <pt x="68" y="145" on="1"/>
        <pt x="55" y="145" on="0"/>
        <pt x="40" y="169" on="0"/>
        <pt x="40" y="185" on="1"/>
        <pt x="40" y="201" on="0"/>
        <pt x="55" y="225" on="0"/>
        <pt x="68" y="225" on="1"/>
        <pt x="188" y="225" on="1"/>
        <pt x="188" y="393" on="1"/>
        <pt x="68" y="393" on="1"/>
      </contour>
    </TTGlyph>
    <TTGlyph name="degree" xMin="50" yMin="494" xMax="282" yMax="725">
      <contour>
        <pt x="50" y="657" on="0"/>
        <pt x="119" y="725" on="0"/>
        <pt x="167" y="725" on="1"/>
        <pt x="215" y="725" on="0"/>
        <pt x="282" y="657" on="0"/>
        <pt x="282" y="608" on="1"/>
        <pt x="282" y="561" on="0"/>
        <pt x="214" y="494" on="0"/>
        <pt x="167" y="494" on="1"/>
        <pt x="119" y="494" on="0"/>
        <pt x="50" y="561" on="0"/>
        <pt x="50" y="608" on="1"/>
      </contour>
      <contour>
        <pt x="105" y="584" on="0"/>
        <pt x="141" y="548" on="0"/>
        <pt x="166" y="548" on="1"/>
        <pt x="191" y="548" on="0"/>
        <pt x="227" y="584" on="0"/>
        <pt x="227" y="607" on="1"/>
        <pt x="227" y="636" on="0"/>
        <pt x="188" y="671" on="0"/>
        <pt x="166" y="671" on="1"/>
        <pt x="142" y="671" on="0"/>
        <pt x="105" y="632" on="0"/>
        <pt x="105" y="607" on="1"/>
      </contour>
    </TTGlyph>
    <TTGlyph name="dieresis" xMin="114" yMin="567" xMax="432" yMax="689">
      <contour>
        <pt x="114" y="653" on="0"/>
        <pt x="150" y="689" on="0"/>
        <pt x="175" y="689" on="1"/>
        <pt x="200" y="689" on="0"/>
        <pt x="236" y="653" on="0"/>
        <pt x="236" y="628" on="1"/>
        <pt x="236" y="603" on="0"/>
        <pt x="200" y="567" on="0"/>
        <pt x="175" y="567" on="1"/>
        <pt x="150" y="567" on="0"/>
        <pt x="114" y="603" on="0"/>
        <pt x="114" y="628" on="1"/>
      </contour>
      <contour>
        <pt x="310" y="653" on="0"/>
        <pt x="346" y="689" on="0"/>
        <pt x="371" y="689" on="1"/>
        <pt x="396" y="689" on="0"/>
        <pt x="432" y="653" on="0"/>
        <pt x="432" y="628" on="1"/>
        <pt x="432" y="603" on="0"/>
        <pt x="396" y="567" on="0"/>
        <pt x="371" y="567" on="1"/>
        <pt x="346" y="567" on="0"/>
        <pt x="310" y="603" on="0"/>
        <pt x="310" y="628" on="1"/>
      </contour>
    </TTGlyph>
    <TTGlyph name="divide" xMin="90" yMin="101" xMax="610" yMax="597">
      <contour>
        <pt x="286" y="560" on="0"/>
        <pt x="324" y="597" on="0"/>
        <pt x="350" y="597" on="1"/>
        <pt x="377" y="597" on="0"/>
        <pt x="414" y="560" on="0"/>
        <pt x="414" y="533" on="1"/>
        <pt x="414" y="507" on="0"/>
        <pt x="377" y="469" on="0"/>
        <pt x="350" y="469" on="1"/>
        <pt x="324" y="469" on="0"/>
        <pt x="286" y="507" on="0"/>
        <pt x="286" y="533" on="1"/>
      </contour>
      <contour>
        <pt x="100" y="309" on="0"/>
        <pt x="90" y="332" on="0"/>
        <pt x="90" y="349" on="1"/>
        <pt x="90" y="366" on="0"/>
        <pt x="100" y="389" on="0"/>
        <pt x="110" y="389" on="1"/>
        <pt x="590" y="389" on="1"/>
        <pt x="599" y="389" on="0"/>
        <pt x="610" y="365" on="0"/>
        <pt x="610" y="349" on="1"/>
        <pt x="610" y="333" on="0"/>
        <pt x="599" y="309" on="0"/>
        <pt x="590" y="309" on="1"/>
        <pt x="110" y="309" on="1"/>
      </contour>
      <contour>
        <pt x="286" y="191" on="0"/>
        <pt x="324" y="229" on="0"/>
        <pt x="350" y="229" on="1"/>
        <pt x="377" y="229" on="0"/>
        <pt x="414" y="191" on="0"/>
        <pt x="414" y="165" on="1"/>
        <pt x="414" y="138" on="0"/>
        <pt x="377" y="101" on="0"/>
        <pt x="350" y="101" on="1"/>
        <pt x="324" y="101" on="0"/>
        <pt x="286" y="138" on="0"/>
        <pt x="286" y="165" on="1"/>
      </contour>
    </TTGlyph>
    <TTGlyph name="dollar" xMin="32" yMin="-117" xMax="498" yMax="813">
      <contour>
        <pt x="389" y="527" on="0"/>
        <pt x="363" y="555" on="0"/>
        <pt x="363" y="589" on="1"/>
        <pt x="363" y="640" on="1"/>
        <pt x="357" y="641" on="0"/>
        <pt x="347" y="645" on="1"/>
        <pt x="316" y="654" on="0"/>
        <pt x="295" y="656" on="1"/>
        <pt x="295" y="390" on="1"/>
        <pt x="372" y="360" on="0"/>
        <pt x="455" y="312" on="0"/>
        <pt x="498" y="246" on="0"/>
        <pt x="498" y="194" on="1"/>
        <pt x="498" y="117" on="0"/>
        <pt x="393" y="14" on="0"/>
        <pt x="295" y="3" on="1"/>
        <pt x="295" y="-96" on="1"/>
        <pt x="295" y="-106" on="0"/>
        <pt x="277" y="-117" on="0"/>
        <pt x="264" y="-117" on="1"/>
        <pt x="252" y="-117" on="0"/>
        <pt x="234" y="-106" on="0"/>
        <pt x="234" y="-96" on="1"/>
        <pt x="234" y="0" on="1"/>
        <pt x="194" y="1" on="0"/>
        <pt x="102" y="20" on="0"/>
        <pt x="71" y="33" on="1"/>
        <pt x="49" y="43" on="0"/>
        <pt x="35" y="60" on="0"/>
        <pt x="35" y="81" on="1"/>
        <pt x="35" y="141" on="1"/>
        <pt x="35" y="189" on="0"/>
        <pt x="74" y="189" on="1"/>
        <pt x="101" y="189" on="0"/>
        <pt x="128" y="160" on="0"/>
        <pt x="128" y="126" on="1"/>
        <pt x="128" y="72" on="1"/>
        <pt x="179" y="52" on="0"/>
        <pt x="234" y="51" on="1"/>
        <pt x="234" y="325" on="1"/>
        <pt x="161" y="355" on="0"/>
        <pt x="80" y="401" on="0"/>
        <pt x="32" y="472" on="0"/>
        <pt x="32" y="528" on="1"/>
        <pt x="32" y="606" on="0"/>
        <pt x="138" y="704" on="0"/>
        <pt x="234" y="708" on="1"/>
        <pt x="234" y="792" on="1"/>
        <pt x="234" y="802" on="0"/>
        <pt x="252" y="813" on="0"/>
        <pt x="264" y="813" on="1"/>
        <pt x="277" y="813" on="0"/>
        <pt x="295" y="802" on="0"/>
        <pt x="295" y="792" on="1"/>
        <pt x="295" y="707" on="1"/>
        <pt x="328" y="704" on="0"/>
        <pt x="384" y="691" on="0"/>
        <pt x="418" y="680" on="1"/>
        <pt x="440" y="672" on="0"/>
        <pt x="456" y="654" on="0"/>
        <pt x="456" y="633" on="1"/>
        <pt x="456" y="575" on="1"/>
        <pt x="456" y="527" on="0"/>
        <pt x="416" y="527" on="1"/>
      </contour>
      <contour>
        <pt x="135" y="489" on="0"/>
        <pt x="178" y="439" on="0"/>
        <pt x="234" y="414" on="1"/>
        <pt x="234" y="656" on="1"/>
        <pt x="185" y="648" on="0"/>
        <pt x="135" y="576" on="0"/>
        <pt x="135" y="534" on="1"/>
      </contour>
      <contour>
        <pt x="395" y="223" on="0"/>
        <pt x="349" y="274" on="0"/>
        <pt x="295" y="299" on="1"/>
        <pt x="295" y="58" on="1"/>
        <pt x="344" y="72" on="0"/>
        <pt x="395" y="141" on="0"/>
        <pt x="395" y="183" on="1"/>
      </contour>
    </TTGlyph>
    <TTGlyph name="dotaccent" xMin="210" yMin="567" xMax="334" yMax="691">
      <contour>
        <pt x="210" y="655" on="0"/>
        <pt x="247" y="691" on="0"/>
        <pt x="272" y="691" on="1"/>
        <pt x="298" y="691" on="0"/>
        <pt x="334" y="655" on="0"/>
        <pt x="334" y="629" on="1"/>
        <pt x="334" y="604" on="0"/>
        <pt x="298" y="567" on="0"/>
        <pt x="272" y="567" on="1"/>
        <pt x="247" y="567" on="0"/>
        <pt x="210" y="604" on="0"/>
        <pt x="210" y="629" on="1"/>
      </contour>
    </TTGlyph>
    <TTGlyph name="dotlessi" xMin="85" yMin="0" xMax="189" yMax="502">
      <contour>
        <pt x="189" y="26" on="0"/>
        <pt x="161" y="0" on="0"/>
        <pt x="125" y="0" on="1"/>
        <pt x="102" y="0" on="0"/>
        <pt x="85" y="23" on="0"/>
        <pt x="85" y="47" on="1"/>
        <pt x="85" y="455" on="1"/>
        <pt x="85" y="479" on="0"/>
        <pt x="102" y="502" on="0"/>
        <pt x="125" y="502" on="1"/>
        <pt x="158" y="502" on="0"/>
        <pt x="189" y="469" on="0"/>
        <pt x="189" y="435" on="1"/>
        <pt x="189" y="68" on="1"/>
      </contour>
    </TTGlyph>
    <TTGlyph name="e" xMin="50" yMin="0" xMax="485" yMax="502">
      <contour>
        <pt x="445" y="137" on="0"/>
        <pt x="460" y="137" on="1"/>
        <pt x="469" y="137" on="0"/>
        <pt x="483" y="125" on="0"/>
        <pt x="483" y="116" on="1"/>
        <pt x="483" y="98" on="0"/>
        <pt x="470" y="82" on="1"/>
        <pt x="404" y="0" on="0"/>
        <pt x="286" y="0" on="1"/>
        <pt x="169" y="0" on="0"/>
        <pt x="50" y="127" on="0"/>
        <pt x="50" y="239" on="1"/>
        <pt x="50" y="367" on="0"/>
        <pt x="170" y="502" on="0"/>
        <pt x="284" y="502" on="1"/>
        <pt x="375" y="502" on="0"/>
        <pt x="485" y="398" on="0"/>
        <pt x="485" y="301" on="1"/>
        <pt x="485" y="252" on="0"/>
        <pt x="428" y="252" on="1"/>
        <pt x="159" y="252" on="1"/>
        <pt x="158" y="244" on="0"/>
        <pt x="158" y="230" on="1"/>
        <pt x="158" y="144" on="0"/>
        <pt x="226" y="44" on="0"/>
        <pt x="297" y="44" on="1"/>
        <pt x="345" y="44" on="0"/>
        <pt x="401" y="84" on="0"/>
        <pt x="431" y="121" on="0"/>
        <pt x="435" y="126" on="1"/>
      </contour>
      <contour>
        <pt x="230" y="462" on="0"/>
        <pt x="168" y="380" on="0"/>
        <pt x="162" y="294" on="1"/>
        <pt x="349" y="294" on="1"/>
        <pt x="367" y="294" on="0"/>
        <pt x="383" y="307" on="0"/>
        <pt x="383" y="323" on="1"/>
        <pt x="383" y="390" on="0"/>
        <pt x="320" y="462" on="0"/>
        <pt x="278" y="462" on="1"/>
      </contour>
    </TTGlyph>
    <TTGlyph name="eacute" xMin="50" yMin="0" xMax="485" yMax="749">
      <component glyphName="e" x="0" y="0" flags="0x0"/>
      <component glyphName="acute" x="0" y="0" flags="0x0"/>
    </TTGlyph>
    <TTGlyph name="ecircumflex" xMin="50" yMin="0" xMax="485" yMax="711">
      <component glyphName="e" x="0" y="0" flags="0x0"/>
      <component glyphName="circumflex" x="-12" y="0" flags="0x0"/>
    </TTGlyph>
    <TTGlyph name="edieresis" xMin="50" yMin="0" xMax="485" yMax="689">
      <component glyphName="e" x="0" y="0" flags="0x0"/>
      <component glyphName="dieresis" x="-10" y="0" flags="0x0"/>
    </TTGlyph>
    <TTGlyph name="egrave" xMin="50" yMin="0" xMax="485" yMax="749">
      <component glyphName="e" x="0" y="0" flags="0x0"/>
      <component glyphName="grave" x="10" y="0" flags="0x0"/>
    </TTGlyph>
    <TTGlyph name="eight" xMin="37" yMin="0" xMax="493" yMax="709">
      <contour>
        <pt x="429" y="366" on="0"/>
        <pt x="493" y="272" on="0"/>
        <pt x="493" y="209" on="1"/>
        <pt x="493" y="110" on="0"/>
        <pt x="370" y="0" on="0"/>
        <pt x="265" y="0" on="1"/>
        <pt x="160" y="0" on="0"/>
        <pt x="37" y="110" on="0"/>
        <pt x="37" y="209" on="1"/>
        <pt x="37" y="271" on="0"/>
        <pt x="101" y="363" on="0"/>
        <pt x="163" y="380" on="1"/>
        <pt x="163" y="388" on="1"/>
        <pt x="114" y="400" on="0"/>
        <pt x="49" y="479" on="0"/>
        <pt x="49" y="532" on="1"/>
        <pt x="49" y="577" on="0"/>
        <pt x="91" y="657" on="0"/>
        <pt x="187" y="709" on="0"/>
        <pt x="265" y="709" on="1"/>
        <pt x="343" y="709" on="0"/>
        <pt x="439" y="657" on="0"/>
        <pt x="481" y="578" on="0"/>
        <pt x="481" y="533" on="1"/>
        <pt x="481" y="480" on="0"/>
        <pt x="415" y="399" on="0"/>
        <pt x="367" y="388" on="1"/>
        <pt x="367" y="380" on="1"/>
      </contour>
      <contour>
        <pt x="312" y="407" on="0"/>
        <pt x="374" y="470" on="0"/>
        <pt x="374" y="535" on="1"/>
        <pt x="374" y="600" on="0"/>
        <pt x="308" y="658" on="0"/>
        <pt x="265" y="658" on="1"/>
        <pt x="222" y="658" on="0"/>
        <pt x="156" y="600" on="0"/>
        <pt x="156" y="535" on="1"/>
        <pt x="156" y="470" on="0"/>
        <pt x="218" y="407" on="0"/>
        <pt x="265" y="407" on="1"/>
      </contour>
      <contour>
        <pt x="148" y="130" on="0"/>
        <pt x="215" y="51" on="0"/>
        <pt x="265" y="51" on="1"/>
        <pt x="315" y="51" on="0"/>
        <pt x="382" y="130" on="0"/>
        <pt x="382" y="207" on="1"/>
        <pt x="382" y="286" on="0"/>
        <pt x="314" y="359" on="0"/>
        <pt x="265" y="359" on="1"/>
        <pt x="216" y="359" on="0"/>
        <pt x="148" y="286" on="0"/>
        <pt x="148" y="207" on="1"/>
      </contour>
    </TTGlyph>
    <TTGlyph name="ellipsis" xMin="60" yMin="0" xMax="736" yMax="156">
      <contour>
        <pt x="60" y="112" on="0"/>
        <pt x="104" y="156" on="0"/>
        <pt x="136" y="156" on="1"/>
        <pt x="168" y="156" on="0"/>
        <pt x="212" y="111" on="0"/>
        <pt x="212" y="77" on="1"/>
        <pt x="212" y="44" on="0"/>
        <pt x="168" y="0" on="0"/>
        <pt x="136" y="0" on="1"/>
        <pt x="104" y="0" on="0"/>
        <pt x="60" y="44" on="0"/>
        <pt x="60" y="77" on="1"/>
      </contour>
      <contour>
        <pt x="322" y="112" on="0"/>
        <pt x="366" y="156" on="0"/>
        <pt x="398" y="156" on="1"/>
        <pt x="430" y="156" on="0"/>
        <pt x="474" y="111" on="0"/>
        <pt x="474" y="77" on="1"/>
        <pt x="474" y="44" on="0"/>
        <pt x="430" y="0" on="0"/>
        <pt x="398" y="0" on="1"/>
        <pt x="366" y="0" on="0"/>
        <pt x="322" y="44" on="0"/>
        <pt x="322" y="77" on="1"/>
      </contour>
      <contour>
        <pt x="584" y="112" on="0"/>
        <pt x="628" y="156" on="0"/>
        <pt x="660" y="156" on="1"/>
        <pt x="692" y="156" on="0"/>
        <pt x="736" y="111" on="0"/>
        <pt x="736" y="77" on="1"/>
        <pt x="736" y="44" on="0"/>
        <pt x="692" y="0" on="0"/>
        <pt x="660" y="0" on="1"/>
        <pt x="628" y="0" on="0"/>
        <pt x="584" y="44" on="0"/>
        <pt x="584" y="77" on="1"/>
      </contour>
    </TTGlyph>
    <TTGlyph name="emdash" xMin="80" yMin="250" xMax="941" yMax="325">
      <contour>
        <pt x="90" y="250" on="0"/>
        <pt x="80" y="272" on="0"/>
        <pt x="80" y="287" on="1"/>
        <pt x="80" y="303" on="0"/>
        <pt x="90" y="325" on="0"/>
        <pt x="99" y="325" on="1"/>
        <pt x="922" y="325" on="1"/>
        <pt x="931" y="325" on="0"/>
        <pt x="941" y="302" on="0"/>
        <pt x="941" y="287" on="1"/>
        <pt x="941" y="273" on="0"/>
        <pt x="931" y="250" on="0"/>
        <pt x="922" y="250" on="1"/>
        <pt x="99" y="250" on="1"/>
      </contour>
    </TTGlyph>
    <TTGlyph name="endash" xMin="80" yMin="250" xMax="710" yMax="325">
      <contour>
        <pt x="90" y="250" on="0"/>
        <pt x="80" y="272" on="0"/>
        <pt x="80" y="287" on="1"/>
        <pt x="80" y="303" on="0"/>
        <pt x="90" y="325" on="0"/>
        <pt x="99" y="325" on="1"/>
        <pt x="691" y="325" on="1"/>
        <pt x="700" y="325" on="0"/>
        <pt x="710" y="302" on="0"/>
        <pt x="710" y="287" on="1"/>
        <pt x="710" y="273" on="0"/>
        <pt x="700" y="250" on="0"/>
        <pt x="691" y="250" on="1"/>
        <pt x="99" y="250" on="1"/>
      </contour>
    </TTGlyph>
    <TTGlyph name="equal" xMin="90" yMin="227" xMax="610" yMax="484">
      <contour>
        <pt x="100" y="404" on="0"/>
        <pt x="90" y="427" on="0"/>
        <pt x="90" y="444" on="1"/>
        <pt x="90" y="461" on="0"/>
        <pt x="100" y="484" on="0"/>
        <pt x="110" y="484" on="1"/>
        <pt x="590" y="484" on="1"/>
        <pt x="599" y="484" on="0"/>
        <pt x="610" y="460" on="0"/>
        <pt x="610" y="444" on="1"/>
        <pt x="610" y="428" on="0"/>
        <pt x="599" y="404" on="0"/>
        <pt x="590" y="404" on="1"/>
        <pt x="110" y="404" on="1"/>
      </contour>
      <contour>
        <pt x="100" y="227" on="0"/>
        <pt x="90" y="250" on="0"/>
        <pt x="90" y="267" on="1"/>
        <pt x="90" y="284" on="0"/>
        <pt x="100" y="307" on="0"/>
        <pt x="110" y="307" on="1"/>
        <pt x="590" y="307" on="1"/>
        <pt x="599" y="307" on="0"/>
        <pt x="610" y="283" on="0"/>
        <pt x="610" y="267" on="1"/>
        <pt x="610" y="251" on="0"/>
        <pt x="599" y="227" on="0"/>
        <pt x="590" y="227" on="1"/>
        <pt x="110" y="227" on="1"/>
      </contour>
    </TTGlyph>
    <TTGlyph name="eth" xMin="50" yMin="0" xMax="515" yMax="760">
      <contour>
        <pt x="509" y="562" on="0"/>
        <pt x="509" y="343" on="1"/>
        <pt x="509" y="198" on="0"/>
        <pt x="399" y="0" on="0"/>
        <pt x="275" y="0" on="1"/>
        <pt x="170" y="0" on="0"/>
        <pt x="50" y="134" on="0"/>
        <pt x="50" y="249" on="1"/>
        <pt x="50" y="322" on="0"/>
        <pt x="102" y="435" on="0"/>
        <pt x="199" y="499" on="0"/>
        <pt x="265" y="499" on="1"/>
        <pt x="345" y="499" on="0"/>
        <pt x="400" y="462" on="1"/>
        <pt x="396" y="506" on="0"/>
        <pt x="369" y="593" on="0"/>
        <pt x="346" y="628" on="1"/>
        <pt x="232" y="568" on="1"/>
        <pt x="229" y="566" on="0"/>
        <pt x="223" y="566" on="1"/>
        <pt x="214" y="566" on="0"/>
        <pt x="200" y="583" on="0"/>
        <pt x="200" y="592" on="1"/>
        <pt x="200" y="604" on="0"/>
        <pt x="211" y="609" on="1"/>
        <pt x="317" y="664" on="1"/>
        <pt x="267" y="716" on="0"/>
        <pt x="198" y="716" on="1"/>
        <pt x="166" y="716" on="0"/>
        <pt x="142" y="708" on="1"/>
        <pt x="124" y="704" on="0"/>
        <pt x="117" y="704" on="1"/>
        <pt x="110" y="704" on="0"/>
        <pt x="100" y="715" on="0"/>
        <pt x="100" y="723" on="1"/>
        <pt x="100" y="744" on="0"/>
        <pt x="172" y="760" on="0"/>
        <pt x="210" y="760" on="1"/>
        <pt x="318" y="760" on="0"/>
        <pt x="389" y="702" on="1"/>
        <pt x="484" y="752" on="1"/>
        <pt x="490" y="754" on="0"/>
        <pt x="492" y="754" on="1"/>
        <pt x="502" y="754" on="0"/>
        <pt x="515" y="737" on="0"/>
        <pt x="515" y="728" on="1"/>
        <pt x="515" y="717" on="0"/>
        <pt x="505" y="711" on="1"/>
        <pt x="423" y="668" on="1"/>
      </contour>
      <contour>
        <pt x="329" y="40" on="0"/>
        <pt x="387" y="152" on="0"/>
        <pt x="402" y="302" on="0"/>
        <pt x="402" y="396" on="1"/>
        <pt x="377" y="427" on="0"/>
        <pt x="311" y="459" on="0"/>
        <pt x="282" y="459" on="1"/>
        <pt x="215" y="459" on="0"/>
        <pt x="157" y="338" on="0"/>
        <pt x="157" y="242" on="1"/>
        <pt x="157" y="140" on="0"/>
        <pt x="221" y="40" on="0"/>
        <pt x="271" y="40" on="1"/>
      </contour>
    </TTGlyph>
    <TTGlyph name="exclam" xMin="85" yMin="0" xMax="224" yMax="709">
      <contour>
        <pt x="207" y="210" on="0"/>
        <pt x="175" y="193" on="0"/>
        <pt x="153" y="193" on="1"/>
        <pt x="132" y="193" on="0"/>
        <pt x="101" y="209" on="0"/>
        <pt x="101" y="225" on="1"/>
        <pt x="101" y="659" on="1"/>
        <pt x="101" y="686" on="0"/>
        <pt x="127" y="709" on="0"/>
        <pt x="151" y="709" on="1"/>
        <pt x="181" y="709" on="0"/>
        <pt x="207" y="684" on="0"/>
        <pt x="207" y="658" on="1"/>
        <pt x="207" y="225" on="1"/>
      </contour>
      <contour>
        <pt x="85" y="97" on="0"/>
        <pt x="126" y="139" on="0"/>
        <pt x="154" y="139" on="1"/>
        <pt x="183" y="139" on="0"/>
        <pt x="224" y="98" on="0"/>
        <pt x="224" y="69" on="1"/>
        <pt x="224" y="41" on="0"/>
        <pt x="182" y="0" on="0"/>
        <pt x="154" y="0" on="1"/>
        <pt x="126" y="0" on="0"/>
        <pt x="85" y="41" on="0"/>
        <pt x="85" y="69" on="1"/>
      </contour>
    </TTGlyph>
    <TTGlyph name="exclamdown" xMin="85" yMin="0" xMax="224" yMax="709">
      <contour>
        <pt x="224" y="612" on="0"/>
        <pt x="183" y="570" on="0"/>
        <pt x="155" y="570" on="1"/>
        <pt x="127" y="570" on="0"/>
        <pt x="85" y="612" on="0"/>
        <pt x="85" y="640" on="1"/>
        <pt x="85" y="668" on="0"/>
        <pt x="127" y="709" on="0"/>
        <pt x="155" y="709" on="1"/>
        <pt x="183" y="709" on="0"/>
        <pt x="224" y="668" on="0"/>
        <pt x="224" y="640" on="1"/>
      </contour>
      <contour>
        <pt x="102" y="499" on="0"/>
        <pt x="134" y="516" on="0"/>
        <pt x="156" y="516" on="1"/>
        <pt x="177" y="516" on="0"/>
        <pt x="208" y="500" on="0"/>
        <pt x="208" y="484" on="1"/>
        <pt x="208" y="50" on="1"/>
        <pt x="208" y="23" on="0"/>
        <pt x="182" y="0" on="0"/>
        <pt x="158" y="0" on="1"/>
        <pt x="128" y="0" on="0"/>
        <pt x="102" y="25" on="0"/>
        <pt x="102" y="51" on="1"/>
        <pt x="102" y="484" on="1"/>
      </contour>
    </TTGlyph>
    <TTGlyph name="f" xMin="24" yMin="0" xMax="436" yMax="760">
      <contour>
        <pt x="24" y="481" on="0"/>
        <pt x="41" y="492" on="0"/>
        <pt x="55" y="493" on="1"/>
        <pt x="112" y="493" on="1"/>
        <pt x="115" y="580" on="0"/>
        <pt x="158" y="681" on="0"/>
        <pt x="193" y="710" on="1"/>
        <pt x="254" y="760" on="0"/>
        <pt x="338" y="760" on="1"/>
        <pt x="382" y="760" on="0"/>
        <pt x="436" y="727" on="0"/>
        <pt x="436" y="705" on="1"/>
        <pt x="436" y="689" on="0"/>
        <pt x="415" y="670" on="0"/>
        <pt x="396" y="670" on="1"/>
        <pt x="383" y="670" on="0"/>
        <pt x="362" y="686" on="0"/>
        <pt x="351" y="699" on="1"/>
        <pt x="334" y="720" on="0"/>
        <pt x="303" y="720" on="1"/>
        <pt x="266" y="720" on="0"/>
        <pt x="215" y="657" on="0"/>
        <pt x="215" y="578" on="1"/>
        <pt x="215" y="493" on="1"/>
        <pt x="326" y="493" on="1"/>
        <pt x="344" y="493" on="0"/>
        <pt x="361" y="480" on="0"/>
        <pt x="361" y="471" on="1"/>
        <pt x="361" y="461" on="0"/>
        <pt x="342" y="445" on="0"/>
        <pt x="326" y="445" on="1"/>
        <pt x="215" y="445" on="1"/>
        <pt x="215" y="68" on="1"/>
        <pt x="215" y="26" on="0"/>
        <pt x="187" y="0" on="0"/>
        <pt x="151" y="0" on="1"/>
        <pt x="128" y="0" on="0"/>
        <pt x="111" y="23" on="0"/>
        <pt x="111" y="47" on="1"/>
        <pt x="111" y="445" on="1"/>
        <pt x="56" y="445" on="1"/>
        <pt x="39" y="445" on="0"/>
        <pt x="24" y="455" on="0"/>
        <pt x="24" y="466" on="1"/>
      </contour>
    </TTGlyph>
    <TTGlyph name="fi" xMin="24" yMin="0" xMax="500" yMax="760">
      <contour>
        <pt x="24" y="490" on="0"/>
        <pt x="41" y="501" on="0"/>
        <pt x="55" y="502" on="1"/>
        <pt x="112" y="502" on="1"/>
        <pt x="115" y="588" on="0"/>
        <pt x="159" y="683" on="0"/>
        <pt x="196" y="713" on="1"/>
        <pt x="223" y="735" on="0"/>
        <pt x="304" y="760" on="0"/>
        <pt x="343" y="760" on="1"/>
        <pt x="377" y="760" on="0"/>
        <pt x="433" y="742" on="0"/>
        <pt x="466" y="714" on="0"/>
        <pt x="466" y="700" on="1"/>
        <pt x="466" y="684" on="0"/>
        <pt x="445" y="665" on="0"/>
        <pt x="426" y="665" on="1"/>
        <pt x="413" y="665" on="0"/>
        <pt x="392" y="681" on="0"/>
        <pt x="381" y="694" on="1"/>
        <pt x="373" y="704" on="0"/>
        <pt x="336" y="720" on="0"/>
        <pt x="318" y="720" on="1"/>
        <pt x="278" y="720" on="0"/>
        <pt x="215" y="656" on="0"/>
        <pt x="215" y="578" on="1"/>
        <pt x="215" y="502" on="1"/>
        <pt x="436" y="502" on="1"/>
        <pt x="469" y="502" on="0"/>
        <pt x="500" y="469" on="0"/>
        <pt x="500" y="435" on="1"/>
        <pt x="500" y="68" on="1"/>
        <pt x="500" y="26" on="0"/>
        <pt x="472" y="0" on="0"/>
        <pt x="436" y="0" on="1"/>
        <pt x="413" y="0" on="0"/>
        <pt x="396" y="23" on="0"/>
        <pt x="396" y="47" on="1"/>
        <pt x="396" y="454" on="1"/>
        <pt x="215" y="454" on="1"/>
        <pt x="215" y="68" on="1"/>
        <pt x="215" y="26" on="0"/>
        <pt x="187" y="0" on="0"/>
        <pt x="151" y="0" on="1"/>
        <pt x="128" y="0" on="0"/>
        <pt x="111" y="23" on="0"/>
        <pt x="111" y="47" on="1"/>
        <pt x="111" y="454" on="1"/>
        <pt x="56" y="454" on="1"/>
        <pt x="39" y="454" on="0"/>
        <pt x="24" y="464" on="0"/>
        <pt x="24" y="475" on="1"/>
      </contour>
    </TTGlyph>
    <TTGlyph name="five" xMin="56" yMin="0" xMax="478" yMax="709">
      <contour>
        <pt x="162" y="413" on="1"/>
        <pt x="211" y="460" on="0"/>
        <pt x="291" y="460" on="1"/>
        <pt x="478" y="460" on="0"/>
        <pt x="478" y="245" on="1"/>
        <pt x="478" y="185" on="0"/>
        <pt x="432" y="74" on="0"/>
        <pt x="328" y="0" on="0"/>
        <pt x="246" y="0" on="1"/>
        <pt x="199" y="0" on="0"/>
        <pt x="117" y="18" on="0"/>
        <pt x="79" y="41" on="1"/>
        <pt x="56" y="55" on="0"/>
        <pt x="56" y="92" on="1"/>
        <pt x="56" y="137" on="1"/>
        <pt x="56" y="163" on="0"/>
        <pt x="77" y="187" on="0"/>
        <pt x="99" y="187" on="1"/>
        <pt x="128" y="187" on="0"/>
        <pt x="152" y="158" on="0"/>
        <pt x="152" y="122" on="1"/>
        <pt x="152" y="65" on="1"/>
        <pt x="171" y="56" on="0"/>
        <pt x="208" y="51" on="0"/>
        <pt x="241" y="51" on="1"/>
        <pt x="296" y="51" on="0"/>
        <pt x="366" y="150" on="0"/>
        <pt x="366" y="239" on="1"/>
        <pt x="366" y="326" on="0"/>
        <pt x="300" y="396" on="0"/>
        <pt x="252" y="396" on="1"/>
        <pt x="220" y="396" on="0"/>
        <pt x="166" y="367" on="0"/>
        <pt x="151" y="343" on="1"/>
        <pt x="137" y="323" on="0"/>
        <pt x="110" y="323" on="1"/>
        <pt x="82" y="323" on="0"/>
        <pt x="82" y="354" on="1"/>
        <pt x="105" y="680" on="1"/>
        <pt x="106" y="709" on="0"/>
        <pt x="140" y="709" on="1"/>
        <pt x="433" y="709" on="1"/>
        <pt x="454" y="709" on="0"/>
        <pt x="467" y="686" on="0"/>
        <pt x="467" y="670" on="1"/>
        <pt x="467" y="652" on="0"/>
        <pt x="444" y="620" on="0"/>
        <pt x="422" y="620" on="1"/>
        <pt x="178" y="620" on="1"/>
      </contour>
    </TTGlyph>
    <TTGlyph name="fl" xMin="24" yMin="0" xMax="500" yMax="760">
      <contour>
        <pt x="500" y="26" on="0"/>
        <pt x="472" y="0" on="0"/>
        <pt x="436" y="0" on="1"/>
        <pt x="413" y="0" on="0"/>
        <pt x="396" y="23" on="0"/>
        <pt x="396" y="47" on="1"/>
        <pt x="396" y="689" on="1"/>
        <pt x="379" y="706" on="0"/>
        <pt x="343" y="720" on="0"/>
        <pt x="318" y="720" on="1"/>
        <pt x="278" y="720" on="0"/>
        <pt x="215" y="656" on="0"/>
        <pt x="215" y="578" on="1"/>
        <pt x="215" y="502" on="1"/>
        <pt x="317" y="502" on="1"/>
        <pt x="334" y="502" on="0"/>
        <pt x="352" y="489" on="0"/>
        <pt x="352" y="480" on="1"/>
        <pt x="352" y="470" on="0"/>
        <pt x="333" y="454" on="0"/>
        <pt x="317" y="454" on="1"/>
        <pt x="215" y="454" on="1"/>
        <pt x="215" y="68" on="1"/>
        <pt x="215" y="26" on="0"/>
        <pt x="187" y="0" on="0"/>
        <pt x="151" y="0" on="1"/>
        <pt x="128" y="0" on="0"/>
        <pt x="111" y="23" on="0"/>
        <pt x="111" y="47" on="1"/>
        <pt x="111" y="454" on="1"/>
        <pt x="56" y="454" on="1"/>
        <pt x="39" y="454" on="0"/>
        <pt x="24" y="464" on="0"/>
        <pt x="24" y="475" on="1"/>
        <pt x="24" y="490" on="0"/>
        <pt x="41" y="501" on="0"/>
        <pt x="55" y="502" on="1"/>
        <pt x="112" y="502" on="1"/>
        <pt x="115" y="588" on="0"/>
        <pt x="159" y="683" on="0"/>
        <pt x="196" y="713" on="1"/>
        <pt x="223" y="735" on="0"/>
        <pt x="304" y="760" on="0"/>
        <pt x="343" y="760" on="1"/>
        <pt x="410" y="760" on="0"/>
        <pt x="498" y="712" on="0"/>
        <pt x="500" y="662" on="1"/>
        <pt x="500" y="68" on="1"/>
      </contour>
    </TTGlyph>
    <TTGlyph name="florin" xMin="-60" yMin="-220" xMax="560" yMax="760">
      <contour>
        <pt x="91" y="491" on="0"/>
        <pt x="107" y="501" on="0"/>
        <pt x="120" y="502" on="1"/>
        <pt x="192" y="502" on="1"/>
        <pt x="214" y="588" on="0"/>
        <pt x="275" y="680" on="0"/>
        <pt x="317" y="710" on="1"/>
        <pt x="390" y="760" on="0"/>
        <pt x="473" y="760" on="1"/>
        <pt x="513" y="760" on="0"/>
        <pt x="560" y="731" on="0"/>
        <pt x="560" y="711" on="1"/>
        <pt x="560" y="693" on="0"/>
        <pt x="539" y="670" on="0"/>
        <pt x="521" y="670" on="1"/>
        <pt x="507" y="670" on="0"/>
        <pt x="489" y="682" on="0"/>
        <pt x="477" y="694" on="1"/>
        <pt x="465" y="707" on="0"/>
        <pt x="445" y="720" on="0"/>
        <pt x="430" y="720" on="1"/>
        <pt x="392" y="720" on="0"/>
        <pt x="327" y="657" on="0"/>
        <pt x="311" y="578" on="1"/>
        <pt x="295" y="502" on="1"/>
        <pt x="406" y="502" on="1"/>
        <pt x="422" y="502" on="0"/>
        <pt x="437" y="491" on="0"/>
        <pt x="437" y="483" on="1"/>
        <pt x="437" y="472" on="0"/>
        <pt x="420" y="454" on="0"/>
        <pt x="404" y="454" on="1"/>
        <pt x="285" y="454" on="1"/>
        <pt x="214" y="121" on="1"/>
        <pt x="182" y="-31" on="0"/>
        <pt x="109" y="-120" on="1"/>
        <pt x="84" y="-152" on="0"/>
        <pt x="0" y="-220" on="0"/>
        <pt x="-30" y="-220" on="1"/>
        <pt x="-42" y="-220" on="0"/>
        <pt x="-60" y="-211" on="0"/>
        <pt x="-60" y="-203" on="1"/>
        <pt x="-59" y="-178" on="0"/>
        <pt x="-28" y="-162" on="1"/>
        <pt x="4" y="-145" on="0"/>
        <pt x="40" y="-113" on="0"/>
        <pt x="78" y="-32" on="0"/>
        <pt x="94" y="44" on="1"/>
        <pt x="181" y="454" on="1"/>
        <pt x="124" y="454" on="1"/>
        <pt x="105" y="454" on="0"/>
        <pt x="88" y="464" on="0"/>
        <pt x="88" y="475" on="1"/>
      </contour>
    </TTGlyph>
    <TTGlyph name="foundryicon" xMin="59" yMin="-275" xMax="1692" yMax="714">
      <contour>
        <pt x="521" y="447" on="0"/>
        <pt x="592" y="418" on="0"/>
        <pt x="612" y="397" on="1"/>
        <pt x="623" y="301" on="0"/>
        <pt x="623" y="212" on="1"/>
        <pt x="623" y="77" on="0"/>
        <pt x="574" y="-143" on="0"/>
        <pt x="472" y="-275" on="0"/>
        <pt x="395" y="-275" on="1"/>
        <pt x="345" y="-275" on="0"/>
        <pt x="307" y="-221" on="0"/>
        <pt x="307" y="-164" on="1"/>
        <pt x="307" y="-126" on="0"/>
        <pt x="322" y="-75" on="1"/>
        <pt x="349" y="-75" on="0"/>
        <pt x="402" y="-93" on="0"/>
        <pt x="421" y="-112" on="1"/>
        <pt x="414" y="-168" on="0"/>
        <pt x="414" y="-193" on="1"/>
        <pt x="414" y="-222" on="0"/>
        <pt x="419" y="-239" on="1"/>
        <pt x="455" y="-216" on="0"/>
        <pt x="492" y="-150" on="0"/>
        <pt x="508" y="-72" on="0"/>
        <pt x="516" y="-1" on="1"/>
        <pt x="518" y="23" on="0"/>
        <pt x="520" y="36" on="1"/>
        <pt x="516" y="29" on="0"/>
        <pt x="499" y="18" on="0"/>
        <pt x="490" y="18" on="1"/>
        <pt x="423" y="18" on="0"/>
        <pt x="388" y="90" on="1"/>
        <pt x="375" y="54" on="0"/>
        <pt x="320" y="2" on="0"/>
        <pt x="274" y="2" on="1"/>
        <pt x="201" y="2" on="0"/>
        <pt x="104" y="86" on="0"/>
        <pt x="59" y="219" on="0"/>
        <pt x="59" y="296" on="1"/>
        <pt x="59" y="427" on="0"/>
        <pt x="130" y="647" on="0"/>
        <pt x="207" y="714" on="1"/>
        <pt x="249" y="705" on="0"/>
        <pt x="311" y="678" on="0"/>
        <pt x="358" y="612" on="0"/>
        <pt x="358" y="554" on="1"/>
        <pt x="358" y="488" on="0"/>
        <pt x="295" y="434" on="1"/>
        <pt x="290" y="428" on="0"/>
        <pt x="286" y="428" on="1"/>
        <pt x="283" y="428" on="0"/>
        <pt x="285" y="437" on="1"/>
        <pt x="287" y="455" on="0"/>
        <pt x="287" y="465" on="1"/>
        <pt x="287" y="502" on="0"/>
        <pt x="267" y="581" on="0"/>
        <pt x="256" y="595" on="1"/>
        <pt x="229" y="570" on="0"/>
        <pt x="190" y="395" on="0"/>
        <pt x="190" y="298" on="1"/>
        <pt x="190" y="208" on="0"/>
        <pt x="229" y="68" on="0"/>
        <pt x="270" y="38" on="1"/>
        <pt x="329" y="57" on="0"/>
        <pt x="369" y="146" on="1"/>
        <pt x="351" y="205" on="0"/>
        <pt x="351" y="299" on="1"/>
        <pt x="351" y="370" on="0"/>
        <pt x="370" y="406" on="1"/>
        <pt x="399" y="400" on="0"/>
        <pt x="448" y="384" on="0"/>
        <pt x="465" y="369" on="1"/>
        <pt x="462" y="318" on="0"/>
        <pt x="462" y="269" on="1"/>
        <pt x="462" y="148" on="0"/>
        <pt x="488" y="66" on="1"/>
        <pt x="502" y="70" on="0"/>
        <pt x="509" y="93" on="1"/>
        <pt x="520" y="144" on="0"/>
        <pt x="520" y="209" on="1"/>
        <pt x="520" y="292" on="0"/>
        <pt x="499" y="418" on="1"/>
        <pt x="495" y="444" on="1"/>
      </contour>
      <contour>
        <pt x="1692" y="196" on="1"/>
        <pt x="1692" y="122" on="0"/>
        <pt x="1634" y="8" on="0"/>
        <pt x="1568" y="8" on="1"/>
        <pt x="1496" y="8" on="0"/>
        <pt x="1460" y="69" on="1"/>
        <pt x="1454" y="44" on="0"/>
        <pt x="1418" y="8" on="0"/>
        <pt x="1395" y="8" on="1"/>
        <pt x="1369" y="8" on="0"/>
        <pt x="1325" y="46" on="0"/>
        <pt x="1315" y="70" on="1"/>
        <pt x="1310" y="50" on="0"/>
        <pt x="1269" y="20" on="0"/>
        <pt x="1248" y="18" on="1"/>
        <pt x="1211" y="18" on="0"/>
        <pt x="1166" y="51" on="0"/>
        <pt x="1158" y="80" on="1"/>
        <pt x="1122" y="23" on="0"/>
        <pt x="1068" y="18" on="1"/>
        <pt x="1000" y="18" on="0"/>
        <pt x="933" y="113" on="0"/>
        <pt x="933" y="186" on="1"/>
        <pt x="933" y="247" on="0"/>
        <pt x="957" y="374" on="0"/>
        <pt x="976" y="406" on="1"/>
        <pt x="982" y="407" on="0"/>
        <pt x="994" y="407" on="1"/>
        <pt x="1006" y="407" on="0"/>
        <pt x="1011" y="406" on="1"/>
        <pt x="1002" y="426" on="0"/>
        <pt x="996" y="446" on="1"/>
        <pt x="959" y="453" on="0"/>
        <pt x="889" y="509" on="0"/>
        <pt x="853" y="552" on="1"/>
        <pt x="847" y="557" on="0"/>
        <pt x="821" y="564" on="0"/>
        <pt x="806" y="567" on="1"/>
        <pt x="781" y="573" on="0"/>
        <pt x="752" y="581" on="0"/>
        <pt x="743" y="590" on="1"/>
        <pt x="739" y="593" on="0"/>
        <pt x="741" y="600" on="0"/>
        <pt x="745" y="600" on="1"/>
        <pt x="746" y="598" on="0"/>
        <pt x="868" y="587" on="0"/>
        <pt x="884" y="587" on="1"/>
        <pt x="930" y="596" on="1"/>
        <pt x="1007" y="610" on="0"/>
        <pt x="1081" y="626" on="0"/>
        <pt x="1090" y="635" on="1"/>
        <pt x="1096" y="656" on="0"/>
        <pt x="1129" y="681" on="0"/>
        <pt x="1148" y="681" on="1"/>
        <pt x="1165" y="681" on="0"/>
        <pt x="1175" y="675" on="1"/>
        <pt x="1192" y="681" on="1"/>
        <pt x="1194" y="681" on="0"/>
        <pt x="1193" y="680" on="0"/>
        <pt x="1193" y="680" on="1"/>
        <pt x="1189" y="661" on="1"/>
        <pt x="1206" y="661" on="1"/>
        <pt x="1207" y="660" on="0"/>
        <pt x="1206" y="660" on="0"/>
        <pt x="1206" y="660" on="1"/>
        <pt x="1192" y="643" on="1"/>
        <pt x="1188" y="635" on="0"/>
        <pt x="1178" y="610" on="0"/>
        <pt x="1175" y="604" on="1"/>
        <pt x="1156" y="558" on="0"/>
        <pt x="1124" y="499" on="0"/>
        <pt x="1073" y="451" on="0"/>
        <pt x="1038" y="445" on="1"/>
        <pt x="1046" y="426" on="0"/>
        <pt x="1063" y="395" on="1"/>
        <pt x="1064" y="393" on="1"/>
        <pt x="1122" y="364" on="0"/>
        <pt x="1122" y="279" on="1"/>
        <pt x="1122" y="224" on="0"/>
        <pt x="1077" y="130" on="0"/>
        <pt x="1038" y="118" on="1"/>
        <pt x="1045" y="90" on="0"/>
        <pt x="1058" y="58" on="0"/>
        <pt x="1071" y="50" on="1"/>
        <pt x="1097" y="61" on="0"/>
        <pt x="1132" y="112" on="0"/>
        <pt x="1145" y="145" on="1"/>
        <pt x="1145" y="198" on="1"/>
        <pt x="1150" y="322" on="0"/>
        <pt x="1210" y="386" on="1"/>
        <pt x="1247" y="386" on="0"/>
        <pt x="1281" y="373" on="1"/>
        <pt x="1282" y="378" on="0"/>
        <pt x="1297" y="439" on="0"/>
        <pt x="1303" y="444" on="1"/>
        <pt x="1306" y="445" on="0"/>
        <pt x="1312" y="445" on="1"/>
        <pt x="1330" y="445" on="0"/>
        <pt x="1381" y="424" on="0"/>
        <pt x="1391" y="413" on="1"/>
        <pt x="1377" y="317" on="0"/>
        <pt x="1377" y="219" on="1"/>
        <pt x="1377" y="111" on="0"/>
        <pt x="1396" y="47" on="1"/>
        <pt x="1407" y="44" on="0"/>
        <pt x="1430" y="74" on="0"/>
        <pt x="1444" y="100" on="0"/>
        <pt x="1446" y="103" on="1"/>
        <pt x="1443" y="117" on="1"/>
        <pt x="1425" y="204" on="0"/>
        <pt x="1425" y="306" on="1"/>
        <pt x="1425" y="415" on="0"/>
        <pt x="1467" y="622" on="0"/>
        <pt x="1507" y="693" on="1"/>
        <pt x="1565" y="684" on="0"/>
        <pt x="1630" y="640" on="0"/>
        <pt x="1656" y="564" on="0"/>
        <pt x="1656" y="501" on="1"/>
        <pt x="1656" y="408" on="0"/>
        <pt x="1594" y="238" on="0"/>
        <pt x="1542" y="214" on="1"/>
        <pt x="1542" y="108" on="0"/>
        <pt x="1584" y="47" on="1"/>
        <pt x="1647" y="94" on="0"/>
        <pt x="1677" y="216" on="1"/>
        <pt x="1682" y="218" on="0"/>
        <pt x="1691" y="218" on="1"/>
      </contour>
      <contour>
        <pt x="1569" y="501" on="0"/>
        <pt x="1544" y="335" on="0"/>
        <pt x="1540" y="261" on="1"/>
        <pt x="1564" y="296" on="0"/>
        <pt x="1591" y="428" on="0"/>
        <pt x="1591" y="494" on="1"/>
        <pt x="1591" y="536" on="0"/>
        <pt x="1585" y="566" on="1"/>
      </contour>
      <contour>
        <pt x="1021" y="405" on="1"/>
        <pt x="1036" y="404" on="0"/>
        <pt x="1050" y="399" on="1"/>
        <pt x="1039" y="413" on="0"/>
        <pt x="1024" y="444" on="1"/>
        <pt x="1019" y="444" on="1"/>
        <pt x="1009" y="444" on="1"/>
      </contour>
      <contour>
        <pt x="905" y="422" on="0"/>
        <pt x="924" y="388" on="1"/>
        <pt x="915" y="336" on="0"/>
        <pt x="915" y="289" on="1"/>
        <pt x="915" y="250" on="0"/>
        <pt x="920" y="226" on="1"/>
        <pt x="900" y="221" on="0"/>
        <pt x="888" y="221" on="1"/>
        <pt x="833" y="221" on="0"/>
        <pt x="824" y="286" on="1"/>
        <pt x="820" y="274" on="0"/>
        <pt x="805" y="252" on="1"/>
        <pt x="793" y="234" on="0"/>
        <pt x="780" y="210" on="0"/>
        <pt x="777" y="195" on="1"/>
        <pt x="777" y="106" on="0"/>
        <pt x="767" y="77" on="1"/>
        <pt x="758" y="47" on="0"/>
        <pt x="723" y="12" on="0"/>
        <pt x="697" y="12" on="1"/>
        <pt x="688" y="12" on="0"/>
        <pt x="683" y="13" on="1"/>
        <pt x="681" y="39" on="0"/>
        <pt x="681" y="54" on="1"/>
        <pt x="673" y="184" on="0"/>
        <pt x="653" y="354" on="0"/>
        <pt x="628" y="415" on="1"/>
        <pt x="668" y="413" on="1"/>
        <pt x="692" y="407" on="1"/>
        <pt x="718" y="402" on="1"/>
        <pt x="735" y="383" on="1"/>
        <pt x="762" y="335" on="0"/>
        <pt x="767" y="265" on="1"/>
        <pt x="803" y="333" on="0"/>
        <pt x="814" y="365" on="1"/>
        <pt x="814" y="378" on="0"/>
        <pt x="823" y="416" on="0"/>
        <pt x="829" y="429" on="1"/>
      </contour>
      <contour>
        <pt x="1036" y="255" on="0"/>
        <pt x="1036" y="154" on="1"/>
        <pt x="1057" y="157" on="0"/>
        <pt x="1080" y="224" on="0"/>
        <pt x="1080" y="265" on="1"/>
        <pt x="1080" y="285" on="0"/>
        <pt x="1069" y="324" on="0"/>
        <pt x="1063" y="337" on="1"/>
      </contour>
      <contour>
        <pt x="1290" y="93" on="0"/>
        <pt x="1292" y="125" on="1"/>
        <pt x="1276" y="192" on="0"/>
        <pt x="1276" y="277" on="1"/>
        <pt x="1276" y="303" on="0"/>
        <pt x="1278" y="327" on="1"/>
        <pt x="1261" y="306" on="0"/>
        <pt x="1235" y="194" on="0"/>
        <pt x="1235" y="137" on="1"/>
        <pt x="1235" y="87" on="0"/>
        <pt x="1246" y="55" on="1"/>
      </contour>
    </TTGlyph>
    <TTGlyph name="four" xMin="-7" yMin="0" xMax="520" yMax="709">
      <contour>
        <pt x="312" y="173" on="1"/>
        <pt x="21" y="173" on="1"/>
        <pt x="-7" y="173" on="0"/>
        <pt x="-7" y="197" on="1"/>
        <pt x="-7" y="207" on="0"/>
        <pt x="0" y="221" on="1"/>
        <pt x="297" y="672" on="1"/>
        <pt x="321" y="709" on="0"/>
        <pt x="367" y="709" on="1"/>
        <pt x="394" y="709" on="0"/>
        <pt x="418" y="685" on="0"/>
        <pt x="418" y="659" on="1"/>
        <pt x="418" y="226" on="1"/>
        <pt x="480" y="226" on="1"/>
        <pt x="503" y="226" on="0"/>
        <pt x="520" y="210" on="0"/>
        <pt x="520" y="197" on="1"/>
        <pt x="520" y="186" on="0"/>
        <pt x="508" y="173" on="0"/>
        <pt x="490" y="173" on="1"/>
        <pt x="418" y="173" on="1"/>
        <pt x="418" y="53" on="1"/>
        <pt x="475" y="53" on="1"/>
        <pt x="498" y="53" on="0"/>
        <pt x="515" y="37" on="0"/>
        <pt x="515" y="24" on="1"/>
        <pt x="515" y="13" on="0"/>
        <pt x="503" y="0" on="0"/>
        <pt x="485" y="0" on="1"/>
        <pt x="225" y="0" on="1"/>
        <pt x="207" y="0" on="0"/>
        <pt x="195" y="13" on="0"/>
        <pt x="195" y="24" on="1"/>
        <pt x="195" y="37" on="0"/>
        <pt x="212" y="53" on="0"/>
        <pt x="235" y="53" on="1"/>
        <pt x="312" y="53" on="1"/>
      </contour>
      <contour>
        <pt x="77" y="226" on="1"/>
        <pt x="312" y="226" on="1"/>
        <pt x="312" y="578" on="1"/>
      </contour>
    </TTGlyph>
    <TTGlyph name="fraction" xMin="-195" yMin="-20" xMax="282" yMax="730">
      <contour>
        <pt x="231" y="730" on="0"/>
        <pt x="240" y="730" on="1"/>
        <pt x="253" y="730" on="0"/>
        <pt x="282" y="711" on="0"/>
        <pt x="282" y="702" on="1"/>
        <pt x="282" y="699" on="0"/>
        <pt x="281" y="698" on="1"/>
        <pt x="-142" y="-15" on="1"/>
        <pt x="-145" y="-20" on="0"/>
        <pt x="-153" y="-20" on="1"/>
        <pt x="-166" y="-20" on="0"/>
        <pt x="-195" y="-1" on="0"/>
        <pt x="-195" y="9" on="1"/>
        <pt x="-195" y="12" on="0"/>
        <pt x="-194" y="14" on="1"/>
        <pt x="228" y="725" on="1"/>
      </contour>
    </TTGlyph>
    <TTGlyph name="g" xMin="52" yMin="-220" xMax="522" yMax="550">
      <contour>
        <pt x="308" y="-180" on="0"/>
        <pt x="379" y="-145" on="0"/>
        <pt x="419" y="-89" on="0"/>
        <pt x="419" y="-60" on="1"/>
        <pt x="419" y="-11" on="0"/>
        <pt x="316" y="30" on="0"/>
        <pt x="229" y="36" on="1"/>
        <pt x="143" y="42" on="0"/>
        <pt x="52" y="85" on="0"/>
        <pt x="52" y="128" on="1"/>
        <pt x="52" y="154" on="0"/>
        <pt x="90" y="184" on="0"/>
        <pt x="127" y="201" on="1"/>
        <pt x="161" y="215" on="0"/>
        <pt x="175" y="225" on="1"/>
        <pt x="175" y="228" on="1"/>
        <pt x="138" y="243" on="0"/>
        <pt x="101" y="309" on="0"/>
        <pt x="101" y="344" on="1"/>
        <pt x="101" y="424" on="0"/>
        <pt x="217" y="502" on="0"/>
        <pt x="302" y="502" on="1"/>
        <pt x="332" y="502" on="0"/>
        <pt x="405" y="487" on="0"/>
        <pt x="427" y="471" on="1"/>
        <pt x="432" y="473" on="0"/>
        <pt x="436" y="486" on="0"/>
        <pt x="438" y="496" on="0"/>
        <pt x="439" y="499" on="1"/>
        <pt x="442" y="523" on="0"/>
        <pt x="460" y="550" on="0"/>
        <pt x="487" y="550" on="1"/>
        <pt x="501" y="550" on="0"/>
        <pt x="522" y="525" on="0"/>
        <pt x="522" y="508" on="1"/>
        <pt x="522" y="476" on="0"/>
        <pt x="465" y="442" on="1"/>
        <pt x="482" y="424" on="0"/>
        <pt x="502" y="375" on="0"/>
        <pt x="502" y="350" on="1"/>
        <pt x="502" y="305" on="0"/>
        <pt x="447" y="237" on="0"/>
        <pt x="356" y="199" on="0"/>
        <pt x="303" y="199" on="1"/>
        <pt x="251" y="199" on="0"/>
        <pt x="223" y="208" on="1"/>
        <pt x="210" y="198" on="0"/>
        <pt x="198" y="191" on="1"/>
        <pt x="179" y="179" on="0"/>
        <pt x="166" y="165" on="0"/>
        <pt x="166" y="152" on="1"/>
        <pt x="166" y="136" on="0"/>
        <pt x="213" y="115" on="0"/>
        <pt x="277" y="112" on="1"/>
        <pt x="400" y="106" on="0"/>
        <pt x="522" y="28" on="0"/>
        <pt x="522" y="-31" on="1"/>
        <pt x="522" y="-85" on="0"/>
        <pt x="453" y="-171" on="0"/>
        <pt x="323" y="-220" on="0"/>
        <pt x="236" y="-220" on="1"/>
        <pt x="154" y="-220" on="0"/>
        <pt x="55" y="-151" on="0"/>
        <pt x="55" y="-97" on="1"/>
        <pt x="55" y="-67" on="0"/>
        <pt x="87" y="-21" on="0"/>
        <pt x="129" y="5" on="0"/>
        <pt x="143" y="5" on="1"/>
        <pt x="154" y="5" on="0"/>
        <pt x="166" y="-7" on="0"/>
        <pt x="166" y="-15" on="1"/>
        <pt x="166" y="-20" on="0"/>
        <pt x="146" y="-44" on="0"/>
        <pt x="133" y="-69" on="0"/>
        <pt x="133" y="-90" on="1"/>
        <pt x="133" y="-130" on="0"/>
        <pt x="208" y="-180" on="0"/>
        <pt x="263" y="-180" on="1"/>
      </contour>
      <contour>
        <pt x="399" y="401" on="0"/>
        <pt x="348" y="462" on="0"/>
        <pt x="302" y="462" on="1"/>
        <pt x="257" y="462" on="0"/>
        <pt x="204" y="401" on="0"/>
        <pt x="204" y="348" on="1"/>
        <pt x="204" y="299" on="0"/>
        <pt x="256" y="239" on="0"/>
        <pt x="302" y="239" on="1"/>
        <pt x="346" y="239" on="0"/>
        <pt x="399" y="301" on="0"/>
        <pt x="399" y="352" on="1"/>
      </contour>
    </TTGlyph>
    <TTGlyph name="gbreve" xMin="52" yMin="-220" xMax="522" yMax="711">
      <component glyphName="g" x="0" y="0" flags="0x0"/>
      <component glyphName="breve" x="21" y="0" flags="0x0"/>
    </TTGlyph>
    <TTGlyph name="germandbls" xMin="80" yMin="0" xMax="520" yMax="760">
      <contour>
        <pt x="80" y="624" on="0"/>
        <pt x="165" y="760" on="0"/>
        <pt x="288" y="760" on="1"/>
        <pt x="378" y="760" on="0"/>
        <pt x="486" y="668" on="0"/>
        <pt x="486" y="582" on="1"/>
        <pt x="486" y="526" on="0"/>
        <pt x="433" y="441" on="0"/>
        <pt x="385" y="425" on="1"/>
        <pt x="385" y="421" on="1"/>
        <pt x="447" y="412" on="0"/>
        <pt x="520" y="312" on="0"/>
        <pt x="520" y="231" on="1"/>
        <pt x="520" y="150" on="0"/>
        <pt x="466" y="47" on="0"/>
        <pt x="379" y="0" on="0"/>
        <pt x="329" y="0" on="1"/>
        <pt x="294" y="0" on="0"/>
        <pt x="245" y="12" on="0"/>
        <pt x="245" y="33" on="1"/>
        <pt x="245" y="41" on="0"/>
        <pt x="254" y="51" on="0"/>
        <pt x="262" y="51" on="1"/>
        <pt x="275" y="51" on="0"/>
        <pt x="287" y="48" on="1"/>
        <pt x="311" y="45" on="0"/>
        <pt x="314" y="45" on="1"/>
        <pt x="357" y="45" on="0"/>
        <pt x="415" y="132" on="0"/>
        <pt x="415" y="230" on="1"/>
        <pt x="415" y="316" on="0"/>
        <pt x="348" y="389" on="0"/>
        <pt x="284" y="389" on="1"/>
        <pt x="256" y="389" on="1"/>
        <pt x="248" y="389" on="0"/>
        <pt x="239" y="403" on="0"/>
        <pt x="239" y="413" on="1"/>
        <pt x="239" y="423" on="0"/>
        <pt x="249" y="438" on="0"/>
        <pt x="257" y="438" on="1"/>
        <pt x="284" y="438" on="1"/>
        <pt x="330" y="438" on="0"/>
        <pt x="381" y="514" on="0"/>
        <pt x="381" y="582" on="1"/>
        <pt x="381" y="640" on="0"/>
        <pt x="339" y="719" on="0"/>
        <pt x="288" y="719" on="1"/>
        <pt x="226" y="719" on="0"/>
        <pt x="184" y="636" on="0"/>
        <pt x="184" y="574" on="1"/>
        <pt x="184" y="71" on="1"/>
        <pt x="184" y="28" on="0"/>
        <pt x="155" y="0" on="0"/>
        <pt x="120" y="0" on="1"/>
        <pt x="97" y="0" on="0"/>
        <pt x="80" y="23" on="0"/>
        <pt x="80" y="47" on="1"/>
        <pt x="80" y="517" on="1"/>
      </contour>
    </TTGlyph>
    <TTGlyph name="grave" xMin="140" yMin="570" xMax="305" yMax="749">
      <contour>
        <pt x="140" y="719" on="0"/>
        <pt x="140" y="725" on="1"/>
        <pt x="140" y="736" on="0"/>
        <pt x="170" y="749" on="0"/>
        <pt x="194" y="749" on="1"/>
        <pt x="213" y="749" on="0"/>
        <pt x="245" y="736" on="0"/>
        <pt x="251" y="723" on="1"/>
        <pt x="303" y="598" on="1"/>
        <pt x="305" y="594" on="0"/>
        <pt x="305" y="589" on="1"/>
        <pt x="305" y="580" on="0"/>
        <pt x="290" y="570" on="0"/>
        <pt x="278" y="570" on="1"/>
        <pt x="267" y="570" on="0"/>
        <pt x="247" y="579" on="0"/>
        <pt x="241" y="586" on="1"/>
        <pt x="143" y="716" on="1"/>
      </contour>
    </TTGlyph>
    <TTGlyph name="greater" xMin="95" yMin="48" xMax="693" yMax="646">
      <contour>
        <pt x="132" y="48" on="0"/>
        <pt x="129" y="48" on="1"/>
        <pt x="117" y="48" on="0"/>
        <pt x="95" y="86" on="0"/>
        <pt x="95" y="103" on="1"/>
        <pt x="95" y="117" on="0"/>
        <pt x="103" y="121" on="1"/>
        <pt x="570" y="347" on="1"/>
        <pt x="103" y="573" on="1"/>
        <pt x="95" y="577" on="0"/>
        <pt x="95" y="590" on="1"/>
        <pt x="95" y="608" on="0"/>
        <pt x="117" y="646" on="0"/>
        <pt x="129" y="646" on="1"/>
        <pt x="132" y="646" on="0"/>
        <pt x="134" y="645" on="1"/>
        <pt x="681" y="374" on="1"/>
        <pt x="687" y="371" on="0"/>
        <pt x="693" y="356" on="0"/>
        <pt x="693" y="347" on="1"/>
        <pt x="693" y="326" on="0"/>
        <pt x="681" y="320" on="1"/>
        <pt x="134" y="49" on="1"/>
      </contour>
    </TTGlyph>
    <TTGlyph name="guillemotleft" xMin="70" yMin="0" xMax="482" yMax="474">
      <contour>
        <pt x="330" y="45" on="1"/>
        <pt x="335" y="38" on="0"/>
        <pt x="335" y="32" on="1"/>
        <pt x="335" y="20" on="0"/>
        <pt x="308" y="0" on="0"/>
        <pt x="295" y="0" on="1"/>
        <pt x="285" y="0" on="0"/>
        <pt x="280" y="6" on="1"/>
        <pt x="78" y="215" on="1"/>
        <pt x="70" y="223" on="0"/>
        <pt x="70" y="235" on="1"/>
        <pt x="70" y="247" on="0"/>
        <pt x="78" y="255" on="1"/>
        <pt x="280" y="468" on="1"/>
        <pt x="286" y="474" on="0"/>
        <pt x="295" y="474" on="1"/>
        <pt x="308" y="474" on="0"/>
        <pt x="335" y="454" on="0"/>
        <pt x="335" y="442" on="1"/>
        <pt x="335" y="436" on="0"/>
        <pt x="330" y="429" on="1"/>
        <pt x="181" y="235" on="1"/>
      </contour>
      <contour>
        <pt x="479" y="80" on="1"/>
        <pt x="482" y="76" on="0"/>
        <pt x="482" y="71" on="1"/>
        <pt x="482" y="59" on="0"/>
        <pt x="454" y="42" on="0"/>
        <pt x="440" y="42" on="1"/>
        <pt x="433" y="42" on="0"/>
        <pt x="430" y="46" on="1"/>
        <pt x="288" y="204" on="1"/>
        <pt x="279" y="215" on="0"/>
        <pt x="279" y="226" on="1"/>
        <pt x="279" y="239" on="0"/>
        <pt x="288" y="249" on="1"/>
        <pt x="430" y="413" on="1"/>
        <pt x="434" y="417" on="0"/>
        <pt x="440" y="417" on="1"/>
        <pt x="454" y="417" on="0"/>
        <pt x="482" y="400" on="0"/>
        <pt x="482" y="388" on="1"/>
        <pt x="482" y="384" on="0"/>
        <pt x="479" y="379" on="1"/>
        <pt x="378" y="226" on="1"/>
      </contour>
    </TTGlyph>
    <TTGlyph name="guillemotright" xMin="70" yMin="0" xMax="482" yMax="474">
      <contour>
        <pt x="217" y="436" on="0"/>
        <pt x="217" y="442" on="1"/>
        <pt x="217" y="454" on="0"/>
        <pt x="244" y="474" on="0"/>
        <pt x="257" y="474" on="1"/>
        <pt x="266" y="474" on="0"/>
        <pt x="272" y="468" on="1"/>
        <pt x="474" y="255" on="1"/>
        <pt x="482" y="247" on="0"/>
        <pt x="482" y="235" on="1"/>
        <pt x="482" y="223" on="0"/>
        <pt x="474" y="215" on="1"/>
        <pt x="272" y="6" on="1"/>
        <pt x="268" y="0" on="0"/>
        <pt x="257" y="0" on="1"/>
        <pt x="244" y="0" on="0"/>
        <pt x="217" y="20" on="0"/>
        <pt x="217" y="32" on="1"/>
        <pt x="217" y="38" on="0"/>
        <pt x="222" y="45" on="1"/>
        <pt x="371" y="235" on="1"/>
        <pt x="222" y="429" on="1"/>
      </contour>
      <contour>
        <pt x="70" y="384" on="0"/>
        <pt x="70" y="388" on="1"/>
        <pt x="70" y="400" on="0"/>
        <pt x="98" y="417" on="0"/>
        <pt x="112" y="417" on="1"/>
        <pt x="118" y="417" on="0"/>
        <pt x="122" y="413" on="1"/>
        <pt x="264" y="249" on="1"/>
        <pt x="273" y="239" on="0"/>
        <pt x="273" y="226" on="1"/>
        <pt x="273" y="215" on="0"/>
        <pt x="264" y="204" on="1"/>
        <pt x="122" y="46" on="1"/>
        <pt x="119" y="42" on="0"/>
        <pt x="112" y="42" on="1"/>
        <pt x="98" y="42" on="0"/>
        <pt x="70" y="59" on="0"/>
        <pt x="70" y="71" on="1"/>
        <pt x="70" y="76" on="0"/>
        <pt x="73" y="80" on="1"/>
        <pt x="174" y="226" on="1"/>
        <pt x="73" y="379" on="1"/>
      </contour>
    </TTGlyph>
    <TTGlyph name="guilsinglleft" xMin="70" yMin="0" xMax="335" yMax="474">
      <contour>
        <pt x="330" y="45" on="1"/>
        <pt x="335" y="38" on="0"/>
        <pt x="335" y="32" on="1"/>
        <pt x="335" y="20" on="0"/>
        <pt x="308" y="0" on="0"/>
        <pt x="295" y="0" on="1"/>
        <pt x="285" y="0" on="0"/>
        <pt x="280" y="6" on="1"/>
        <pt x="78" y="215" on="1"/>
        <pt x="70" y="223" on="0"/>
        <pt x="70" y="235" on="1"/>
        <pt x="70" y="247" on="0"/>
        <pt x="78" y="255" on="1"/>
        <pt x="280" y="468" on="1"/>
        <pt x="286" y="474" on="0"/>
        <pt x="295" y="474" on="1"/>
        <pt x="308" y="474" on="0"/>
        <pt x="335" y="454" on="0"/>
        <pt x="335" y="442" on="1"/>
        <pt x="335" y="436" on="0"/>
        <pt x="330" y="429" on="1"/>
        <pt x="181" y="235" on="1"/>
      </contour>
    </TTGlyph>
    <TTGlyph name="guilsinglright" xMin="70" yMin="0" xMax="335" yMax="474">
      <contour>
        <pt x="70" y="436" on="0"/>
        <pt x="70" y="442" on="1"/>
        <pt x="70" y="454" on="0"/>
        <pt x="97" y="474" on="0"/>
        <pt x="110" y="474" on="1"/>
        <pt x="119" y="474" on="0"/>
        <pt x="125" y="468" on="1"/>
        <pt x="327" y="255" on="1"/>
        <pt x="335" y="247" on="0"/>
        <pt x="335" y="235" on="1"/>
        <pt x="335" y="223" on="0"/>
        <pt x="327" y="215" on="1"/>
        <pt x="125" y="6" on="1"/>
        <pt x="121" y="0" on="0"/>
        <pt x="110" y="0" on="1"/>
        <pt x="97" y="0" on="0"/>
        <pt x="70" y="20" on="0"/>
        <pt x="70" y="32" on="1"/>
        <pt x="70" y="38" on="0"/>
        <pt x="75" y="45" on="1"/>
        <pt x="224" y="235" on="1"/>
        <pt x="75" y="429" on="1"/>
      </contour>
    </TTGlyph>
    <TTGlyph name="h" xMin="80" yMin="0" xMax="500" yMax="760">
      <contour>
        <pt x="186" y="400" on="1"/>
        <pt x="214" y="445" on="0"/>
        <pt x="301" y="502" on="0"/>
        <pt x="359" y="502" on="1"/>
        <pt x="500" y="502" on="0"/>
        <pt x="500" y="351" on="1"/>
        <pt x="500" y="47" on="1"/>
        <pt x="500" y="23" on="0"/>
        <pt x="483" y="0" on="0"/>
        <pt x="460" y="0" on="1"/>
        <pt x="426" y="0" on="0"/>
        <pt x="396" y="38" on="0"/>
        <pt x="396" y="82" on="1"/>
        <pt x="396" y="332" on="1"/>
        <pt x="396" y="387" on="0"/>
        <pt x="349" y="435" on="0"/>
        <pt x="311" y="435" on="1"/>
        <pt x="283" y="435" on="0"/>
        <pt x="223" y="399" on="0"/>
        <pt x="184" y="341" on="0"/>
        <pt x="184" y="310" on="1"/>
        <pt x="184" y="71" on="1"/>
        <pt x="184" y="28" on="0"/>
        <pt x="155" y="0" on="0"/>
        <pt x="120" y="0" on="1"/>
        <pt x="97" y="0" on="0"/>
        <pt x="80" y="23" on="0"/>
        <pt x="80" y="47" on="1"/>
        <pt x="80" y="713" on="1"/>
        <pt x="80" y="737" on="0"/>
        <pt x="97" y="760" on="0"/>
        <pt x="120" y="760" on="1"/>
        <pt x="154" y="760" on="0"/>
        <pt x="184" y="722" on="0"/>
        <pt x="184" y="678" on="1"/>
        <pt x="184" y="400" on="1"/>
      </contour>
    </TTGlyph>
    <TTGlyph name="hungarumlaut" xMin="170" yMin="570" xMax="485" yMax="748">
      <contour>
        <pt x="223" y="579" on="0"/>
        <pt x="204" y="570" on="0"/>
        <pt x="195" y="570" on="1"/>
        <pt x="184" y="570" on="0"/>
        <pt x="170" y="580" on="0"/>
        <pt x="170" y="589" on="1"/>
        <pt x="170" y="594" on="0"/>
        <pt x="172" y="598" on="1"/>
        <pt x="222" y="722" on="1"/>
        <pt x="227" y="735" on="0"/>
        <pt x="256" y="748" on="0"/>
        <pt x="274" y="748" on="1"/>
        <pt x="296" y="748" on="0"/>
        <pt x="323" y="735" on="0"/>
        <pt x="323" y="724" on="1"/>
        <pt x="323" y="718" on="0"/>
        <pt x="320" y="715" on="1"/>
        <pt x="228" y="586" on="1"/>
      </contour>
      <contour>
        <pt x="385" y="579" on="0"/>
        <pt x="366" y="570" on="0"/>
        <pt x="357" y="570" on="1"/>
        <pt x="346" y="570" on="0"/>
        <pt x="332" y="580" on="0"/>
        <pt x="332" y="589" on="1"/>
        <pt x="332" y="594" on="0"/>
        <pt x="334" y="598" on="1"/>
        <pt x="384" y="722" on="1"/>
        <pt x="389" y="735" on="0"/>
        <pt x="418" y="748" on="0"/>
        <pt x="436" y="748" on="1"/>
        <pt x="458" y="748" on="0"/>
        <pt x="485" y="735" on="0"/>
        <pt x="485" y="724" on="1"/>
        <pt x="485" y="718" on="0"/>
        <pt x="482" y="715" on="1"/>
        <pt x="390" y="586" on="1"/>
      </contour>
    </TTGlyph>
    <TTGlyph name="hyphen" xMin="50" yMin="215" xMax="387" yMax="295">
      <contour>
        <pt x="60" y="215" on="0"/>
        <pt x="50" y="238" on="0"/>
        <pt x="50" y="255" on="1"/>
        <pt x="50" y="272" on="0"/>
        <pt x="60" y="295" on="0"/>
        <pt x="70" y="295" on="1"/>
        <pt x="367" y="295" on="1"/>
        <pt x="376" y="295" on="0"/>
        <pt x="387" y="271" on="0"/>
        <pt x="387" y="255" on="1"/>
        <pt x="387" y="239" on="0"/>
        <pt x="376" y="215" on="0"/>
        <pt x="367" y="215" on="1"/>
        <pt x="70" y="215" on="1"/>
      </contour>
    </TTGlyph>
    <TTGlyph name="hyphenminus" xMin="90" yMin="313" xMax="610" yMax="393">
      <contour>
        <pt x="100" y="313" on="0"/>
        <pt x="90" y="336" on="0"/>
        <pt x="90" y="353" on="1"/>
        <pt x="90" y="370" on="0"/>
        <pt x="100" y="393" on="0"/>
        <pt x="110" y="393" on="1"/>
        <pt x="590" y="393" on="1"/>
        <pt x="599" y="393" on="0"/>
        <pt x="610" y="369" on="0"/>
        <pt x="610" y="353" on="1"/>
        <pt x="610" y="337" on="0"/>
        <pt x="599" y="313" on="0"/>
        <pt x="590" y="313" on="1"/>
        <pt x="110" y="313" on="1"/>
      </contour>
    </TTGlyph>
    <TTGlyph name="i" xMin="73" yMin="0" xMax="197" yMax="691">
      <contour>
        <pt x="73" y="655" on="0"/>
        <pt x="110" y="691" on="0"/>
        <pt x="135" y="691" on="1"/>
        <pt x="161" y="691" on="0"/>
        <pt x="197" y="655" on="0"/>
        <pt x="197" y="629" on="1"/>
        <pt x="197" y="604" on="0"/>
        <pt x="161" y="567" on="0"/>
        <pt x="135" y="567" on="1"/>
        <pt x="110" y="567" on="0"/>
        <pt x="73" y="604" on="0"/>
        <pt x="73" y="629" on="1"/>
      </contour>
      <contour>
        <pt x="189" y="26" on="0"/>
        <pt x="161" y="0" on="0"/>
        <pt x="125" y="0" on="1"/>
        <pt x="102" y="0" on="0"/>
        <pt x="85" y="23" on="0"/>
        <pt x="85" y="47" on="1"/>
        <pt x="85" y="455" on="1"/>
        <pt x="85" y="479" on="0"/>
        <pt x="102" y="502" on="0"/>
        <pt x="125" y="502" on="1"/>
        <pt x="158" y="502" on="0"/>
        <pt x="189" y="469" on="0"/>
        <pt x="189" y="434" on="1"/>
        <pt x="189" y="68" on="1"/>
      </contour>
    </TTGlyph>
    <TTGlyph name="iacute" xMin="85" yMin="0" xMax="250" yMax="749">
      <component glyphName="dotlessi" x="0" y="0" flags="0x0"/>
      <component glyphName="acute" x="-145" y="0" flags="0x0"/>
    </TTGlyph>
    <TTGlyph name="icircumflex" xMin="-18" yMin="0" xMax="292" yMax="711">
      <component glyphName="circumflex" x="-143" y="0" flags="0x0"/>
      <component glyphName="dotlessi" x="0" y="0" flags="0x0"/>
    </TTGlyph>
    <TTGlyph name="idieresis" xMin="-22" yMin="0" xMax="296" yMax="689">
      <component glyphName="dieresis" x="-136" y="0" flags="0x0"/>
      <component glyphName="dotlessi" x="0" y="0" flags="0x0"/>
    </TTGlyph>
    <TTGlyph name="igrave" xMin="25" yMin="0" xMax="190" yMax="749">
      <component glyphName="dotlessi" x="0" y="0" flags="0x0"/>
      <component glyphName="grave" x="-115" y="0" flags="0x0"/>
    </TTGlyph>
    <TTGlyph name="j" xMin="-17" yMin="-220" xMax="197" yMax="691">
      <contour>
        <pt x="73" y="655" on="0"/>
        <pt x="110" y="691" on="0"/>
        <pt x="135" y="691" on="1"/>
        <pt x="161" y="691" on="0"/>
        <pt x="197" y="655" on="0"/>
        <pt x="197" y="629" on="1"/>
        <pt x="197" y="604" on="0"/>
        <pt x="161" y="567" on="0"/>
        <pt x="135" y="567" on="1"/>
        <pt x="110" y="567" on="0"/>
        <pt x="73" y="604" on="0"/>
        <pt x="73" y="629" on="1"/>
      </contour>
      <contour>
        <pt x="85" y="479" on="0"/>
        <pt x="102" y="502" on="0"/>
        <pt x="125" y="502" on="1"/>
        <pt x="158" y="502" on="0"/>
        <pt x="189" y="469" on="0"/>
        <pt x="189" y="434" on="1"/>
        <pt x="189" y="121" on="1"/>
        <pt x="189" y="-18" on="0"/>
        <pt x="131" y="-116" on="1"/>
        <pt x="94" y="-176" on="0"/>
        <pt x="56" y="-203" on="1"/>
        <pt x="32" y="-220" on="0"/>
        <pt x="13" y="-220" on="1"/>
        <pt x="1" y="-220" on="0"/>
        <pt x="-17" y="-210" on="0"/>
        <pt x="-17" y="-199" on="1"/>
        <pt x="-17" y="-187" on="0"/>
        <pt x="-6" y="-170" on="0"/>
        <pt x="6" y="-162" on="1"/>
        <pt x="11" y="-159" on="0"/>
        <pt x="41" y="-142" on="0"/>
        <pt x="64" y="-118" on="0"/>
        <pt x="70" y="-101" on="1"/>
        <pt x="78" y="-79" on="0"/>
        <pt x="85" y="-11" on="0"/>
        <pt x="85" y="44" on="1"/>
        <pt x="85" y="455" on="1"/>
      </contour>
    </TTGlyph>
</ttFont>
